<svg width="466" height="435" viewBox="0 0 466 435" fill="none" xmlns="http://www.w3.org/2000/svg">
<g clip-path="url(#clip0_493_714)">
<path d="M68.15 205.09C-22.72 257.56 -22.72 342.63 68.15 395.09C159.02 447.55 306.36 447.56 397.24 395.09C488.12 342.62 488.11 257.56 397.24 205.09C306.37 152.62 159.03 152.63 68.15 205.09Z" fill="#C5D9FF" fill-opacity="0.51"/>
<path d="M61.58 387.52C55.0267 387.642 48.5522 386.075 42.78 382.97L24.47 372.41C18.78 369.13 15.65 364.55 15.65 359.53C15.65 354.51 18.78 349.92 24.47 346.64L171.47 261.82C177.288 258.837 183.732 257.281 190.27 257.281C196.808 257.281 203.252 258.837 209.07 261.82L227.38 272.38C233.07 275.66 236.2 280.24 236.2 285.27C236.2 290.3 233.07 294.87 227.38 298.15L80.38 382.97C74.6081 386.076 68.1335 387.643 61.58 387.52Z" fill="#1A46EE" fill-opacity="0.17"/>
<path d="M374.8 366.12C409.964 366.12 438.47 349.662 438.47 329.36C438.47 309.058 409.964 292.6 374.8 292.6C339.636 292.6 311.13 309.058 311.13 329.36C311.13 349.662 339.636 366.12 374.8 366.12Z" fill="#CDD9FC"/>
<path d="M214.51 115.39C214.15 115.4 213.797 115.287 213.51 115.07C213.336 114.943 213.188 114.783 213.076 114.599C212.964 114.415 212.89 114.211 212.857 113.998C212.825 113.785 212.835 113.568 212.887 113.359C212.939 113.15 213.032 112.953 213.16 112.78L229.73 90.3999C229.985 90.0459 230.369 89.8074 230.8 89.7371C231.23 89.6668 231.671 89.7703 232.025 90.0249C232.379 90.2795 232.617 90.6644 232.688 91.0948C232.758 91.5252 232.655 91.9658 232.4 92.3199L215.83 114.7C215.679 114.91 215.482 115.082 215.252 115.202C215.023 115.322 214.769 115.386 214.51 115.39Z" fill="#E0E0E0"/>
<path d="M226.42 130.82C226.072 130.812 225.735 130.694 225.459 130.482C225.182 130.27 224.98 129.976 224.882 129.642C224.784 129.308 224.795 128.951 224.913 128.623C225.032 128.296 225.251 128.014 225.54 127.82L250.42 111.95C250.785 111.749 251.213 111.694 251.617 111.797C252.021 111.9 252.371 112.153 252.595 112.504C252.819 112.856 252.901 113.279 252.824 113.689C252.747 114.099 252.517 114.464 252.18 114.71L227.3 130.56C227.039 130.732 226.733 130.822 226.42 130.82Z" fill="#E0E0E0"/>
<path d="M195.89 109.9C195.741 109.9 195.592 109.877 195.45 109.83C195.034 109.715 194.68 109.441 194.467 109.066C194.253 108.691 194.197 108.246 194.31 107.83L202.03 80.15C202.074 79.9285 202.164 79.7186 202.293 79.5333C202.422 79.348 202.588 79.1913 202.78 79.0731C202.972 78.9549 203.187 78.8778 203.411 78.8464C203.634 78.8151 203.862 78.8303 204.08 78.891C204.297 78.9518 204.5 79.0568 204.675 79.1995C204.85 79.3422 204.993 79.5195 205.097 79.7203C205.2 79.9211 205.261 80.1411 205.275 80.3665C205.289 80.5918 205.257 80.8177 205.18 81.03L197.47 108.71C197.372 109.053 197.165 109.355 196.88 109.57C196.594 109.785 196.247 109.901 195.89 109.9Z" fill="#E0E0E0"/>
<path d="M279.82 14.09C276.208 20.3207 275.043 27.6727 276.553 34.7149C278.062 41.757 282.139 47.9854 287.988 52.1877C293.837 56.3899 301.041 58.2652 308.196 57.4486C315.352 56.632 321.948 53.182 326.7 47.77L335.57 49.29C335.905 49.3445 336.248 49.2971 336.555 49.154C336.862 49.0109 337.12 48.7786 337.293 48.4875C337.467 48.1963 337.549 47.8597 337.529 47.5213C337.509 47.1829 337.387 46.8584 337.18 46.59L331.65 39.49C334.193 32.7392 334.129 25.283 331.47 18.577C328.811 11.8711 323.748 6.39694 317.27 3.22337C310.791 0.049813 303.363 -0.595289 296.434 1.41402C289.506 3.42332 283.575 7.94277 279.8 14.09H279.82ZM318.4 6.08996C324.212 9.57178 328.481 15.135 330.34 21.65L331.01 24.65C332.129 31.2688 330.714 38.0663 327.045 43.6879C323.376 49.3094 317.724 53.342 311.214 54.9819C304.705 56.6219 297.816 55.7488 291.922 52.5366C286.028 49.3244 281.56 44.0091 279.41 37.65L278.6 34.65C277.495 29.5618 277.902 24.2615 279.771 19.4019C281.641 14.5423 284.891 10.3357 289.121 7.30003C293.352 4.26441 298.377 2.53243 303.58 2.31743C308.782 2.10242 313.934 3.41377 318.4 6.08996Z" fill="#455A64"/>
<path d="M300.56 44.8C299.988 44.8014 299.422 44.6849 298.897 44.4578C298.373 44.2307 297.9 43.8978 297.51 43.48L288.01 33.32C287.617 32.9215 287.308 32.4483 287.1 31.9283C286.893 31.4083 286.792 30.852 286.803 30.2923C286.815 29.7326 286.938 29.1809 287.166 28.6697C287.394 28.1585 287.722 27.6982 288.131 27.3159C288.54 26.9337 289.022 26.6372 289.547 26.4442C290.073 26.2511 290.632 26.1652 291.191 26.1917C291.75 26.2182 292.298 26.3565 292.803 26.5984C293.308 26.8402 293.759 27.1808 294.13 27.6L300.29 34.18L314.88 15.72C315.568 14.8474 316.575 14.284 317.679 14.1537C318.782 14.0234 319.892 14.3368 320.765 15.025C321.638 15.7132 322.201 16.7199 322.331 17.8236C322.462 18.9272 322.148 20.0374 321.46 20.91L303.85 43.21C303.477 43.6836 303.006 44.071 302.469 44.3454C301.932 44.6199 301.342 44.775 300.74 44.8H300.56Z" fill="#1A46EE"/>
<path d="M360.47 322.69L356.85 320.8L360.53 319.94L360.47 322.69Z" fill="#263238"/>
<path d="M323.59 328.01C323.59 328.01 367.89 310.41 368.33 313.29C368.418 313.863 368.387 314.449 368.24 315.01C368.283 314.962 368.323 314.912 368.36 314.86L367.36 320.17C365.349 321.648 362.959 322.522 360.47 322.69C360.47 322.43 360.47 320.84 360.53 319.94C359.167 320.429 357.854 321.048 356.61 321.79C353.75 323.49 351.83 326.57 348.72 330.13C346.46 332.72 342.56 333.82 336.83 334.41C330.65 335.04 325.29 333.7 323.83 332.04C322.7 330.71 323.35 328.38 323.59 328.01Z" fill="#263238"/>
<path d="M324.83 327.07C325.27 326.66 326.88 325.07 329.06 323.3C331.135 321.526 333.298 319.857 335.54 318.3C336.68 317.594 337.757 316.791 338.76 315.9C339.55 315.13 340.31 314.34 341.02 313.5C342.962 311.169 344.661 308.646 346.09 305.97C347.232 304.005 347.774 301.749 347.65 299.48C347.67 293.148 347.28 286.821 346.48 280.54L367.48 280.87C366.75 284.08 366.32 289.57 365.86 293.23C365.16 298.8 364.96 300.04 366.99 305.69C367.58 307.35 368.5 308.96 368.52 310.69C368.52 313.56 366.15 315.94 363.52 317.25C361.34 318.33 358.87 318.74 356.75 319.9C354.593 321.218 352.69 322.911 351.13 324.9C349.59 326.68 348.33 328.79 346.22 330.01C343.985 331.182 341.543 331.906 339.03 332.14C335.864 332.575 332.657 332.619 329.48 332.27C324.97 331.8 321.7 330.07 324.83 327.07Z" fill="#FFBDA7"/>
<path d="M342.17 318.93C341.168 318.331 340.052 317.947 338.893 317.802C337.735 317.658 336.559 317.756 335.44 318.09C332.13 320.46 329.39 322.56 327.44 324.09C325.09 325.88 323.03 327.51 323.03 329.65C323.03 333.01 336.38 334.5 344.03 331.58C346.34 330.907 348.298 329.361 349.49 327.27C349.49 327.27 348.52 322.48 342.17 318.93ZM368.07 307.78C367.531 306.698 367.047 305.59 366.62 304.46C363.97 305.74 359.2 311.91 361.04 318.35C362.379 318.157 363.665 317.694 364.82 316.989C365.975 316.284 366.976 315.352 367.76 314.25C368.432 313.317 368.819 312.209 368.874 311.061C368.93 309.912 368.65 308.773 368.07 307.78Z" fill="#37474F"/>
<path d="M400.46 312.07C399.22 313.99 400.83 321.24 400.54 326.4C400.29 331.09 399 339.26 400.48 343.89C402.24 349.37 405.83 355.74 412.48 350.6C416.61 347.41 418.98 343.3 419.54 336.6C419.93 331.91 418 325.42 416.34 319.67C414.4 312.9 413.7 309.32 413.7 309.32L400.46 312.07Z" fill="#263238"/>
<path d="M414.13 277.5C414.6 288.43 413.29 296.11 413.21 303.11C413.231 306.289 413.566 309.457 414.21 312.57C415.16 317.03 416.77 323.24 417.45 326.14C418.39 330.14 419.11 332.73 417.66 337.27C417.537 337.618 417.379 337.953 417.19 338.27C415.19 342 410.05 344.83 408.41 344.38C408.072 344.8 407.623 345.117 407.114 345.294C406.604 345.471 406.055 345.501 405.53 345.38C405.344 345.351 405.16 345.307 404.98 345.25C404.79 345.198 404.606 345.127 404.43 345.04C403.763 344.685 403.176 344.197 402.706 343.605C402.236 343.013 401.894 342.33 401.7 341.6C401.6 341.29 401.52 340.97 401.44 340.6C400.25 334.97 401.11 331.33 401.23 329.13C401.36 326.59 401.23 323.35 400.97 319.25C400.71 315.15 399.73 302.25 398.26 296.11C397.17 291.81 395.81 286.42 394.37 280.67L414.13 277.5Z" fill="#FFBDA7"/>
<path d="M418.48 331.4C414.48 329.68 402.72 329.4 400.85 334.96C400.85 340.16 400.77 343.69 404.16 348.22C408.67 354.22 414.55 347.86 416.8 343.81C419.05 339.76 419.03 334.21 418.48 331.4Z" fill="#37474F"/>
<path d="M398.85 134.7C404.56 144.61 409.16 152.97 410.65 179.15C412.33 208.7 412.08 219.96 412.22 223.53C412.36 227.1 414.74 233.63 416.76 251.19C418.78 268.75 416.7 311.32 416.7 311.32C416.7 311.32 415.27 314.19 408.34 314.84C401.94 315.45 398.19 313.27 398.19 313.27C398.19 313.27 385.84 260 383.39 249.41C379.93 234.41 374.85 204.82 374.85 204.82L371.7 229.74C371.7 229.74 373.7 239.43 371.89 254.85C370.08 270.27 366.65 299.79 366.65 299.79C363.782 301.586 360.551 302.723 357.19 303.12C353.595 303.553 349.958 302.791 346.84 300.95C346.84 300.95 340.65 239.81 340.51 222.34C340.37 204.87 341.77 161.28 347.25 135.34L398.85 134.7Z" fill="#37474F"/>
<path d="M350.86 160.44C353.63 167.63 363.56 172.61 367.92 173.59L372.39 204.47L371.7 229.74L374.83 204.83L369.7 167.93C369.7 167.93 357.61 167.18 350.86 160.44ZM392.08 156.63C392.81 159.46 393.48 162.3 394.19 165.15C394.9 168 395.58 170.85 396.33 173.72C396.346 170.76 396.125 167.804 395.67 164.88C395.25 161.96 394.67 159.06 393.95 156.18C393.218 153.306 392.326 150.475 391.28 147.7C390.242 144.896 388.901 142.213 387.28 139.7C388.21 142.52 389.04 145.32 389.83 148.14C390.62 150.96 391.38 153.79 392.08 156.63ZM397.17 151.13C398.17 152.83 399.1 154.56 400.06 156.28L402.87 161.56C402.654 159.551 402.169 157.58 401.43 155.7C400.717 153.811 399.854 151.982 398.85 150.23C397.833 148.487 396.697 146.817 395.45 145.23C394.206 143.619 392.814 142.129 391.29 140.78C392.21 142.59 393.21 144.31 394.2 146.03C395.19 147.75 396.2 149.41 397.17 151.13ZM393.24 230.94C391.43 221.94 390.12 212.76 388.83 203.61C387.54 194.46 386.32 185.29 384.93 176.15C385.58 185.37 386.34 194.59 387.35 203.78C388.36 212.97 389.56 222.17 391.35 231.29C393.14 240.41 395.17 249.4 397.2 258.43C399.23 267.46 401.33 276.43 403.58 285.43C402.06 276.31 400.423 267.203 398.67 258.11C396.94 249.06 395.09 239.96 393.24 230.94ZM349.6 200.49L350.98 176.39C349.76 184.39 348.82 192.39 348.11 200.39C347.4 208.39 346.78 216.44 346.81 224.58C347.16 232.68 347.81 240.68 348.59 248.71C349.37 256.74 350.22 264.71 351.26 272.71C350.967 264.663 350.577 256.62 350.09 248.58L349.37 236.58C349.13 232.58 348.85 228.58 348.73 224.58C348.61 220.58 348.85 216.58 349.01 212.58C349.17 208.58 349.4 204.51 349.6 200.49Z" fill="#263238"/>
<path d="M282.57 107.26C283.484 107.251 284.395 107.362 285.28 107.59C283.292 106.941 281.486 105.831 280.01 104.35C279.763 104.065 279.594 103.72 279.52 103.35C279.52 103.05 279.52 102.18 279.96 101.93L278.33 100.65C277.7 100.18 276.33 98.9801 277.33 98.2701C278.09 97.7101 279.33 97.9201 280.74 98.4301C279.99 97.8601 279.46 97.3301 279.39 96.9301C279.19 95.7001 279.88 94.9301 282.44 95.7401C285 96.5501 291.39 98.8501 296.19 98.2401C297.06 98.1301 298.81 98.1401 299.45 97.4701C300.34 96.5501 298.73 95.4101 298.05 94.9301C297.411 94.4593 296.8 93.9518 296.22 93.4101C295.546 92.8282 294.996 92.1176 294.6 91.3201C294.408 90.9171 294.309 90.4764 294.309 90.0301C294.309 89.5838 294.408 89.1431 294.6 88.7401C294.82 88.3201 295.22 87.9501 295.68 88.2201C297.52 89.2201 299.4 90.2201 301.25 91.3001C303.065 92.2218 304.796 93.3027 306.42 94.5301C308.21 96.0101 309.77 98.1801 312.35 100.22C314.93 102.26 317.64 104.03 323.81 107.12C327.22 108.82 332.96 112.02 332.96 112.02C332.96 112.02 339.96 96.8101 342.77 90.7701C348.58 78.2301 353.68 74.1201 366.65 71.3501L358.88 94.8701C358.88 94.8701 353.46 119.18 351.04 127.24C348.62 135.3 345.28 137.24 342.46 137.54C333.6 138.33 324.84 128.61 309.25 115.02C308.115 114.013 306.78 113.257 305.332 112.802C303.885 112.347 302.357 112.204 300.85 112.38C299.22 112.58 297.36 112.68 296.28 112.76C294.608 112.81 292.936 112.717 291.28 112.48C288.53 112.08 288.53 112.29 284.35 110.16C283.83 109.9 281.72 108.68 281.77 108.1C281.79 107.891 281.88 107.694 282.025 107.542C282.17 107.39 282.362 107.29 282.57 107.26Z" fill="#FFBDA7"/>
<path d="M285.28 107.59C286.535 107.933 287.816 108.174 289.11 108.31C290.39 108.49 291.69 108.51 293.01 108.69C291.687 108.902 290.342 108.936 289.01 108.79C287.697 108.651 286.427 108.243 285.28 107.59Z" fill="#F0997A"/>
<path d="M308.54 105.61C308.474 105.364 308.38 105.125 308.26 104.9C308 104.477 307.68 104.093 307.31 103.76C306.577 103.104 305.705 102.622 304.76 102.35C303.718 102.061 302.62 102.043 301.57 102.299C300.52 102.554 299.552 103.075 298.76 103.81C298.76 103.81 298.71 104.06 298.81 104.02C300.66 103.25 302.55 102.57 304.58 103.13C306.229 103.71 307.586 104.912 308.36 106.48C308.43 106.62 308.58 106.54 308.58 106.4C308.607 106.136 308.593 105.87 308.54 105.61Z" fill="#F0997A"/>
<path d="M293.42 101.64C291.278 101.373 289.158 100.945 287.08 100.36C285.08 99.8701 283.15 99.2301 281.2 98.6201C281.2 98.6201 281.2 98.6201 281.2 98.6801C283.164 99.6997 285.251 100.463 287.41 100.95C289.386 101.361 291.393 101.608 293.41 101.69C293.41 101.69 293.44 101.65 293.42 101.64Z" fill="#F0997A"/>
<path d="M294.05 105.21C291.912 104.934 289.797 104.506 287.72 103.93C286.92 103.73 286.13 103.51 285.35 103.27C284.569 103.069 283.801 102.822 283.05 102.53L282.37 102.25C282.088 102.109 281.793 101.995 281.49 101.91C281.16 101.848 280.82 101.848 280.49 101.91C280.49 101.91 280.42 101.91 280.44 101.97C280.853 101.981 281.26 102.069 281.64 102.23C281.9 102.337 282.15 102.457 282.39 102.59C282.61 102.71 282.83 102.8 283.05 102.9C283.76 103.22 284.48 103.5 285.21 103.75C286.13 104.06 287.06 104.33 288.01 104.55C289.986 104.966 291.993 105.213 294.01 105.29C294.01 105.29 294.07 105.21 294.05 105.21Z" fill="#F0997A"/>
<path d="M366.62 71.3801C354.28 72.8101 348.86 77.4401 344.23 86.0801C340.86 92.3601 332.59 111.49 332.59 111.49L322.7 106.58C322.7 106.58 323.82 108.98 322 114.24C321.485 115.771 320.654 117.177 319.562 118.367C318.47 119.557 317.141 120.505 315.66 121.15C319.734 125.186 324.059 128.961 328.61 132.45C334.61 136.84 340.4 139.82 345.27 136.96C350.14 134.1 351.41 128.5 353.15 121.87C354.89 115.24 359.42 94.6501 359.42 94.6501L366.62 71.3801Z" fill="#37474F"/>
<path d="M344.94 124.72C342.64 119.35 337.51 113.26 332.59 111.49L333.59 109.12C341.21 112.15 343.86 119.61 344.94 124.72Z" fill="#263238"/>
<path d="M405.55 78.2601H384.92C384.428 69.1134 384.592 59.9433 385.41 50.8201C385.903 44.3001 386.51 37.7901 387.23 31.2901C387.297 29.6252 387.723 27.9945 388.48 26.5101C390.34 23.3901 394.92 23.8501 397.87 24.8901C399.575 25.4786 401.145 26.4006 402.489 27.6025C403.833 28.8043 404.925 30.2619 405.7 31.8901C407.22 35.2501 407.27 39.0801 407.25 42.7701C407.183 54.6367 406.617 66.4667 405.55 78.2601Z" fill="#263238"/>
<path d="M374.49 64.54L374.83 64.86C375.826 65.7993 377.013 66.5122 378.31 66.95C379.41 67.2302 380.552 67.3081 381.68 67.18C383.48 67.18 385.44 67.86 387.21 67.32C387.98 67.08 388.21 66.55 388.69 65.95C389.36 65.12 390.06 64.32 390.74 63.5C393.512 60.2718 395.998 56.8087 398.17 53.15C400.98 48.21 402.87 42.6 402.61 36.93C402.61 34.4776 401.917 32.0751 400.61 30C399.945 28.975 399.029 28.1366 397.949 27.5644C396.87 26.9922 395.662 26.705 394.44 26.73C393.923 24.6601 392.891 22.7544 391.44 21.19C386.08 16.56 382.14 16.64 376.68 16.52C371.851 16.5662 367.11 17.821 362.89 20.17C359.203 22.6215 356.622 26.4192 355.7 30.75C354.7 35.49 356.7 39.46 359.58 42.55C362.15 45.3 366.38 47.33 367.23 51.34C367.49 52.59 367.38 53.9 367.62 55.16C368.12 57.71 369.98 59.74 371.77 61.62C371.7 62.05 373.63 63.77 374.49 64.54Z" fill="#263238"/>
<path d="M368.88 73.04C369.563 72.4141 370.403 71.9855 371.31 71.8C372.25 71.67 372.61 70.99 372.61 69.37V66.37C371.107 66.5256 369.589 66.3802 368.143 65.9424C366.698 65.5046 365.354 64.7831 364.19 63.82C360.69 60.82 358.76 54.82 359.02 48.38C359.2 44.08 360.28 42.06 360.21 41.09C359.78 35.34 360.21 34.31 361.52 31.32C363.87 26.55 369.93 24.76 372.6 29.81C380.04 23.88 388.42 31.47 388.21 40.36C387.27 47.69 389.54 48.03 390.96 48.06C393.02 43.47 397.75 43.49 399.78 46.42C401.61 49.07 401.71 53.28 398.17 56.97C394.83 60.46 391.17 58.23 390.98 56.97C390.98 56.97 390.53 67.49 390.48 69.46C390.43 71.43 390.84 73.6101 393.3 74.3901C394.404 74.6561 395.455 75.1057 396.41 75.72C396.077 75.9658 395.766 76.2402 395.48 76.54C394.61 77.59 393.31 78.5401 390.08 82.4201C381.78 85.6401 371.87 90.11 366.02 93.69C364.446 89.491 363.13 85.1997 362.08 80.84C364.053 77.9981 366.334 75.3823 368.88 73.04Z" fill="#FFBDA7"/>
<path d="M392.61 55.1699C392.61 55.5121 392.711 55.8466 392.902 56.1311C393.092 56.4156 393.362 56.6373 393.678 56.7682C393.994 56.8992 394.342 56.9335 394.677 56.8667C395.013 56.7999 395.321 56.6352 395.563 56.3932C395.805 56.1513 395.97 55.843 396.037 55.5074C396.103 55.1719 396.069 54.824 395.938 54.5079C395.807 54.1918 395.586 53.9216 395.301 53.7315C395.017 53.5414 394.682 53.4399 394.34 53.4399C393.881 53.4399 393.441 53.6222 393.117 53.9466C392.792 54.2711 392.61 54.7111 392.61 55.1699Z" fill="white"/>
<path d="M363.54 36.6401L367.82 35.4301C367.755 35.1472 367.633 34.8806 367.462 34.6463C367.291 34.4119 367.074 34.2149 366.824 34.0671C366.574 33.9193 366.297 33.8239 366.009 33.7866C365.722 33.7492 365.429 33.7709 365.15 33.8501C364.577 34.0226 364.091 34.4074 363.792 34.9259C363.493 35.4443 363.403 36.0575 363.54 36.6401Z" fill="#263238"/>
<path d="M383.25 37.5699L379.1 35.8099C379.201 35.5332 379.358 35.2802 379.56 35.0662C379.762 34.8523 380.007 34.682 380.277 34.5659C380.548 34.4497 380.839 34.3902 381.134 34.3909C381.429 34.3916 381.72 34.4525 381.99 34.5699C382.545 34.8128 382.985 35.2596 383.22 35.8181C383.454 36.3765 383.465 37.0037 383.25 37.5699Z" fill="#263238"/>
<path d="M371.01 54.4101L377.37 52.6301C377.506 53.0388 377.558 53.471 377.521 53.9003C377.485 54.3296 377.362 54.747 377.158 55.127C376.955 55.5069 376.677 55.8415 376.34 56.1103C376.004 56.379 375.616 56.5763 375.2 56.6901C374.343 56.9178 373.43 56.8083 372.651 56.3843C371.872 55.9602 371.285 55.2538 371.01 54.4101Z" fill="#B16668"/>
<path d="M377.51 53.55C377.533 54.2568 377.318 54.9507 376.899 55.5203C376.48 56.0898 375.882 56.5019 375.2 56.69C374.733 56.8125 374.246 56.8364 373.77 56.76C374.003 55.9135 374.483 55.1557 375.15 54.5838C375.816 54.0119 376.638 53.652 377.51 53.55Z" fill="#F28F8F"/>
<path d="M367.24 42.4399C367.257 42.925 367.083 43.3973 366.756 43.756C366.429 44.1148 365.975 44.3315 365.49 44.3599C365.255 44.379 365.019 44.3504 364.796 44.2761C364.572 44.2017 364.366 44.083 364.19 43.927C364.013 43.7711 363.87 43.5812 363.769 43.3686C363.667 43.156 363.61 42.9252 363.6 42.6899C363.586 42.2055 363.761 41.7346 364.087 41.3764C364.414 41.0182 364.866 40.8008 365.35 40.7699C365.585 40.7508 365.821 40.7794 366.044 40.8537C366.268 40.9281 366.474 41.0468 366.65 41.2028C366.827 41.3587 366.97 41.5486 367.071 41.7612C367.173 41.9738 367.23 42.2046 367.24 42.4399Z" fill="#263238"/>
<path d="M380.33 43.2C380.355 43.7001 380.182 44.19 379.849 44.5641C379.516 44.9381 379.05 45.1665 378.55 45.2C378.31 45.219 378.069 45.1895 377.84 45.1131C377.612 45.0367 377.402 44.915 377.221 44.7554C377.041 44.5957 376.895 44.4014 376.792 44.184C376.688 43.9665 376.63 43.7305 376.62 43.49C376.595 42.9898 376.768 42.5 377.101 42.1259C377.434 41.7518 377.9 41.5235 378.4 41.49C378.64 41.4709 378.881 41.5005 379.11 41.5769C379.338 41.6533 379.548 41.775 379.729 41.9346C379.909 42.0942 380.055 42.2886 380.158 42.506C380.262 42.7234 380.32 42.9595 380.33 43.2Z" fill="#263238"/>
<path d="M372.61 66.42C379.68 65.97 386.52 64.27 388.4 60.02C388.273 61.2853 387.816 62.4948 387.073 63.527C386.331 64.5593 385.329 65.3777 384.17 65.9C380.575 67.6732 376.619 68.5937 372.61 68.59V66.42Z" fill="#F0997A"/>
<path d="M356.43 38.3799C356.452 38.9966 356.673 39.5896 357.06 40.0699C357.198 40.2438 357.287 40.4507 357.32 40.6699C357.412 42.1931 357.637 43.7054 357.99 45.1899C358.45 46.4099 359.46 48.3599 362.86 48.5699C363.454 48.6173 364.051 48.5971 364.64 48.5099H364.78C365.296 48.4213 365.797 48.2632 366.27 48.0399C366.696 47.8426 367.09 47.5831 367.44 47.2699C367.966 46.7924 368.415 46.2357 368.77 45.6199C369.68 44.0799 369.71 41.8899 370.97 41.6899H371.12H371.28C372.95 41.7899 372.52 44.1599 373.28 45.8999C374.04 47.6399 375.42 49.3599 379.05 49.5599C380.381 49.6774 381.717 49.3991 382.89 48.7599C383.105 48.6247 383.312 48.4779 383.51 48.3199C384.016 47.8834 384.442 47.3623 384.77 46.7799C385.373 45.3597 385.854 43.8912 386.21 42.3899C386.29 42.1613 386.408 41.9482 386.56 41.7599C387.043 41.3524 387.391 40.8087 387.56 40.1999C387.614 39.894 387.556 39.5789 387.396 39.3125C387.236 39.0461 386.985 38.8464 386.69 38.7499L385.81 38.6099C382.887 38.0731 379.9 37.9821 376.95 38.3399C374.07 38.9399 373.01 39.7299 371.45 39.6499C369.89 39.5699 369.13 38.6499 366.55 37.7399C364.55 37.0099 361 36.8899 358.3 37.0099H357.47C357.168 37.0884 356.901 37.2662 356.713 37.5147C356.524 37.7632 356.424 38.068 356.43 38.3799ZM374.7 40.7599C376.02 39.6399 378.14 39.3899 379.85 39.2899C382.58 39.1899 384.2 39.8499 384.76 40.3899C385.32 40.9299 384.82 43.2499 384.45 44.3899C384.205 45.2741 383.779 46.098 383.2 46.8099C382.705 47.3517 382.09 47.769 381.403 48.0279C380.717 48.2868 379.979 48.38 379.25 48.2999C378.536 48.3213 377.825 48.1926 377.164 47.9221C376.502 47.6517 375.905 47.2456 375.41 46.7299C374.834 46.0364 374.467 45.1938 374.35 44.2999C374.16 42.9899 374.12 41.4599 374.7 40.7599ZM358.93 38.8899C359.144 38.7359 359.38 38.6145 359.63 38.5299C361.026 38.1236 362.501 38.0754 363.92 38.3899C365.82 38.7199 367.75 39.6299 368.2 40.3899C368.65 41.1499 368.38 42.6599 367.99 43.9499C367.907 44.2495 367.797 44.5408 367.66 44.8199C367.49 45.1792 367.275 45.5152 367.02 45.8199C366.509 46.4094 365.856 46.8591 365.123 47.1268C364.39 47.3944 363.601 47.4712 362.83 47.3499C362.132 47.323 361.449 47.142 360.83 46.8199C359 45.8199 358.72 43.8199 358.58 42.8999C358.47 41.7099 358.33 39.3699 358.95 38.8899H358.93Z" fill="#37474F"/>
<path d="M365.85 48.55L372.27 51.16L372.94 44.71C372.62 43.27 372.6 41.81 371.39 41.71L365.85 48.55Z" fill="#F0997A"/>
<path d="M386.47 39.6001L395.65 44.4401C394.799 44.5228 393.979 44.8074 393.26 45.2701L386.2 41.5301L386.47 39.6001Z" fill="#37474F"/>
<path d="M348.5 121.98C348.72 118.253 348.696 114.515 348.43 110.79C348.43 110.79 343.81 106 343.81 99.7902C343.81 93.3102 346.65 88.8902 353.43 82.4702C357.337 78.7135 361.616 75.363 366.2 72.4702L371.62 71.7202C371.62 71.7202 367.98 78.8702 369.97 82.9002C380.59 82.1002 389.7 77.5302 393.43 74.3502L402.27 76.0902C402.27 76.0902 407.66 87.4202 405.49 96.7902C404.32 101.86 401.99 110.44 400.1 117.26C398.268 123.857 398.912 130.895 401.91 137.05C402.19 137.61 402.46 138.18 402.73 138.73C405.28 144.01 408.66 153.73 408.66 153.73C408.66 153.73 393.81 160.38 369.43 157.42C345.05 154.46 343.03 150.16 343.03 150.16L347.58 128.94C348.072 126.648 348.379 124.321 348.5 121.98Z" fill="white"/>
<path d="M389.05 110.98C388.079 113.419 386.425 115.525 384.285 117.046C382.146 118.566 379.612 119.436 376.99 119.55C374.465 119.746 371.932 119.271 369.65 118.173C367.367 117.076 365.414 115.395 363.99 113.3C363.99 113.3 365.46 123.22 377.23 121.94C389 120.66 389.05 110.98 389.05 110.98Z" fill="#E0E0E0"/>
<path d="M390.49 70.4102C390.49 70.4102 381.67 90.4802 378.36 100.17C375.05 109.86 376.27 117.75 376.7 135.53C377.03 149.22 377.7 169.88 377.7 169.88C377.7 169.88 403.62 170.5 412.02 159.25C410.16 152.38 404.12 136.25 402.57 131.91C401.02 127.57 402.01 123.72 405.16 113.81C408.31 103.9 412.98 98.5902 413.16 91.1702C413.34 83.7502 406.57 77.0502 404.74 75.7002C394.81 73.4002 390.91 72.7502 390.49 70.4102Z" fill="#455A64"/>
<path d="M371.62 71.7301C371.62 71.7301 353.4 88.7301 351.51 106.13C349.62 123.53 347.05 161.89 347.05 161.89C347.05 161.89 345.18 160.89 341.62 156.73C342.71 148.81 346.62 117.52 346.05 113.89C345.48 110.26 337.19 101.75 345.49 90.3601C353.79 78.9701 366.62 71.3601 366.62 71.3601L372.54 70.3601C372.561 70.6584 372.483 70.9553 372.316 71.2035C372.149 71.4518 371.904 71.6372 371.62 71.7301Z" fill="#455A64"/>
<path d="M363.94 75.4201C362.79 76.4201 361.64 77.3501 360.52 78.3601C358.29 80.3601 356.06 82.3601 353.91 84.5001C352.84 85.5601 351.77 86.6201 350.74 87.7201C350.21 88.2701 349.74 88.8201 349.2 89.4001C348.634 89.9721 348.188 90.6523 347.89 91.4001C347.658 92.181 347.577 92.9988 347.65 93.8101C347.705 94.5849 347.822 95.354 348 96.1101C348.316 97.5089 348.744 98.8801 349.28 100.21C347.996 101.621 346.934 103.22 346.13 104.95C346.032 105.205 345.961 105.47 345.92 105.74C345.895 106.01 345.895 106.281 345.92 106.55C345.92 107.06 346.01 107.55 346.07 108.03C346.2 109.03 346.35 109.97 346.52 110.93C347.19 114.78 348.03 118.59 348.95 122.37C348.34 118.53 347.72 114.68 347.18 110.83C347.05 109.83 346.93 108.91 346.84 107.95C346.84 107.47 346.75 106.95 346.75 106.52C346.719 106.089 346.791 105.657 346.96 105.26C347.789 103.558 348.875 101.993 350.18 100.62L350.37 100.4L350.26 100.12C349.723 98.7491 349.295 97.3381 348.98 95.9001C348.827 95.1919 348.727 94.4732 348.68 93.7501C348.605 93.0628 348.659 92.3675 348.84 91.7001C349.086 91.0556 349.464 90.4696 349.95 89.9801C350.42 89.4201 350.95 88.8601 351.43 88.3201C352.43 87.2201 353.49 86.1501 354.54 85.0801C356.64 82.9401 358.75 80.8101 360.92 78.7301C363.09 76.6501 365.21 74.5401 367.51 72.6001C366.26 73.4901 365.1 74.4601 363.94 75.4201Z" fill="#37474F"/>
<path d="M393.92 99.8202L394.01 97.4402L394.18 92.6702C394.37 86.3202 394.53 81.0902 394.56 74.7202C394.04 81.0602 393.67 86.3002 393.31 92.6602L393.08 97.4402L392.96 99.8302V100.42C392.956 100.569 392.933 100.717 392.89 100.86C392.772 101.171 392.595 101.456 392.37 101.7C391.249 102.719 389.932 103.498 388.5 103.99C387.039 104.56 385.539 105.021 384.01 105.37L383.49 105.49L383.66 105.99C384.368 107.954 384.959 109.957 385.43 111.99C385.54 112.49 385.64 112.99 385.71 113.49C385.795 113.946 385.795 114.414 385.71 114.87V115L385.62 115.18L384.3 117.59C383.3 119.43 382.3 121.26 381.3 123.12L378.37 128.68L381.66 123.31C382.76 121.53 383.81 119.71 384.88 117.91L385.68 116.56L386.08 115.88L386.38 115.38L386.47 115.13C386.617 114.566 386.647 113.977 386.56 113.4C386.503 112.866 386.42 112.336 386.31 111.81C385.89 109.913 385.366 108.04 384.74 106.2C386.147 105.878 387.53 105.46 388.88 104.95C390.471 104.423 391.924 103.544 393.13 102.38C393.439 102.033 393.677 101.629 393.83 101.19C393.9 100.953 393.94 100.708 393.95 100.46L393.92 99.8202Z" fill="#37474F"/>
<path d="M242.07 82.4001L248.1 85.8801V103.05L242.07 99.5701V82.4001Z" fill="#A5B5F1"/>
<path opacity="0.3" d="M242.07 82.4001L248.1 85.8801V103.05L242.07 99.5701V82.4001Z" fill="white"/>
<path d="M242.07 82.4001L248.1 85.8801L250.3 84.6101L244.27 81.1301L242.07 82.4001Z" fill="#A5B5F1"/>
<path d="M248.1 103.05L250.33 101.78L250.3 84.6101L248.1 85.8801V103.05Z" fill="#A5B5F1"/>
<path d="M252.91 88.6702L258.94 92.1602V99.2402L252.91 95.7602V88.6702Z" fill="#A5B5F1"/>
<path opacity="0.3" d="M252.91 88.6702L258.94 92.1602V99.2402L252.91 95.7602V88.6702Z" fill="white"/>
<path d="M252.91 88.6702L258.94 92.1602L261.13 90.8902L255.1 87.4102L252.91 88.6702Z" fill="#A5B5F1"/>
<path d="M258.94 99.2401L261.16 97.9801L261.13 90.8901L258.94 92.1601V99.2401Z" fill="#A5B5F1"/>
<path d="M265.15 95.76V88.8L237.47 72.76V79.73L265.15 95.76Z" fill="#A5B5F1"/>
<path opacity="0.3" d="M265.15 95.76V88.8L237.47 72.76V79.73L265.15 95.76Z" fill="white"/>
<path d="M265.15 95.76V88.8L267.34 87.53V94.5L265.15 95.76Z" fill="#A5B5F1"/>
<path d="M237.47 72.76L239.66 71.5L267.34 87.53L265.15 88.8L237.47 72.76Z" fill="#A5B5F1"/>
<path opacity="0.3" d="M237.47 72.76L239.66 71.5L267.34 87.53L265.15 88.8L237.47 72.76Z" fill="white"/>
<path d="M336.19 120.73L331.85 128.25L235.7 72.7401L235.5 72.6301C235.141 72.3139 234.864 71.9166 234.69 71.4713C234.516 71.026 234.451 70.5456 234.5 70.0701C234.5 67.8601 235.67 65.3901 237.11 64.5601C237.318 64.4205 237.557 64.3332 237.805 64.3053C238.054 64.2775 238.306 64.31 238.54 64.4001C238.598 64.4201 238.653 64.4506 238.7 64.4901L336.19 120.73Z" fill="#A5B5F1"/>
<path opacity="0.3" d="M336.19 120.73L331.85 128.25L235.7 72.7401L235.5 72.6301C235.141 72.3139 234.864 71.9166 234.69 71.4713C234.516 71.026 234.451 70.5456 234.5 70.0701C234.5 67.8601 235.67 65.3901 237.11 64.5601C237.318 64.4205 237.557 64.3332 237.805 64.3053C238.054 64.2775 238.306 64.31 238.54 64.4001C238.598 64.4201 238.653 64.4506 238.7 64.4901L336.19 120.73Z" fill="white"/>
<path opacity="0.6" d="M234.61 69.4202C234.61 69.6402 234.61 69.8602 234.61 70.0702C234.561 70.5457 234.626 71.0261 234.8 71.4714C234.974 71.9167 235.251 72.314 235.61 72.6302L235.81 72.7402L331.92 128.25L333.08 126.25L234.61 69.4202Z" fill="#A5B5F1"/>
<path d="M259.83 79.9401V72.9801L244.98 64.3601V71.3301L259.83 79.9401Z" fill="#A5B5F1"/>
<path opacity="0.5" d="M259.83 79.9401V72.9801L244.98 64.3601V71.3301L259.83 79.9401Z" fill="white"/>
<path d="M259.83 79.9402V72.9802L262.02 71.7102V78.6802L259.83 79.9402Z" fill="#A5B5F1"/>
<path d="M244.98 64.3601L247.17 63.1001L262.02 71.7101L259.83 72.9801L244.98 64.3601Z" fill="#A5B5F1"/>
<path opacity="0.3" d="M244.98 64.3601L247.17 63.1001L262.02 71.7101L259.83 72.9801L244.98 64.3601Z" fill="white"/>
<path d="M362.49 170.2C358.863 170.119 355.321 169.084 352.22 167.2C339.58 159.9 329.68 141.2 329.68 124.52C329.68 115.04 333.04 107.67 338.89 104.29C343.99 101.35 350.26 101.73 356.56 105.36C369.2 112.66 379.1 131.41 379.1 148.04C379.1 157.52 375.74 164.89 369.89 168.27C367.638 169.558 365.084 170.224 362.49 170.2ZM346.32 110.97C345.237 110.953 344.169 111.229 343.23 111.77C340.23 113.53 338.36 118.29 338.36 124.49C338.36 137.86 346.69 153.96 356.56 159.66C359.03 161.09 362.61 162.44 365.56 160.73C368.51 159.02 370.44 154.22 370.44 148.01C370.44 134.65 362.1 118.54 352.23 112.84C350.45 111.727 348.416 111.084 346.32 110.97Z" fill="#A5B5F1"/>
<path opacity="0.3" d="M356.55 105.32C350.26 101.68 343.99 101.32 338.89 104.24C333.04 107.62 329.68 114.99 329.68 124.47C329.68 141.1 339.58 159.86 352.22 167.14C355.321 169.023 358.863 170.058 362.49 170.14C365.091 170.144 367.645 169.454 369.89 168.14C375.74 164.76 379.1 157.39 379.1 147.91C379.1 131.38 369.2 112.64 356.55 105.32ZM365.55 160.71C362.55 162.41 359.04 161.06 356.55 159.64C346.7 153.94 338.35 137.84 338.35 124.47C338.35 118.26 340.17 113.47 343.23 111.75C344.169 111.209 345.237 110.933 346.32 110.95C348.413 111.066 350.443 111.709 352.22 112.82C362.09 118.52 370.43 134.62 370.43 147.99C370.43 154.22 368.6 158.97 365.55 160.73V160.71Z" fill="white"/>
<path opacity="0.6" d="M356.55 159.66C346.7 153.96 338.35 137.86 338.35 124.49C338.35 118.28 340.17 113.49 343.23 111.77C343.745 111.475 344.301 111.259 344.88 111.13C343.838 111.313 342.842 111.7 341.95 112.27C338.4 114.5 336.14 119.72 335.89 126.27C335.36 140.27 344.2 156.1 355.18 160.81C357.74 161.91 361.37 162.81 364.61 161.2C361.87 162.15 358.78 160.94 356.55 159.66Z" fill="#A5B5F1"/>
<path opacity="0.2" d="M345.8 103.79C353.35 102.79 374.15 113.99 377.51 143.19C373.44 127.66 364.61 110.39 345.8 103.79Z" fill="white"/>
<path d="M405.14 132.49C399.31 134.14 392.93 135.86 391.67 136.27C390.715 136.636 389.681 136.744 388.671 136.582C387.662 136.421 386.713 135.996 385.92 135.35C383.92 134.09 381.68 132.48 380.75 131.79C379.82 131.1 378.07 129.79 376.75 129.74C375.7 129.74 373.21 131.26 370.95 132.48C369.246 133.35 367.712 134.518 366.42 135.93C365.42 137 363.01 140.81 362.97 142.14C362.93 143.47 364.31 143.93 365.74 143.14C367 142.46 368.59 139.77 370.06 138.87C371.53 137.97 375.51 136.06 375.51 136.06C375.51 136.06 370.79 139.21 370.19 139.74C369.59 140.27 367.87 142.44 367.28 143.13C366.69 143.82 365.99 145.58 366.28 146.13C366.57 146.68 367.54 147.5 368.16 147.33C368.54 147.224 368.901 147.058 369.23 146.84C369.342 147.245 369.511 147.632 369.73 147.99C369.881 148.265 370.102 148.496 370.37 148.66C370.373 148.945 370.445 149.226 370.581 149.477C370.717 149.728 370.912 149.942 371.15 150.1C371.707 150.46 372.369 150.626 373.03 150.57C374.384 150.552 375.73 150.351 377.03 149.97C380.03 149.24 381.38 149.19 384.36 150.65C386.698 151.769 389.35 152.048 391.87 151.44C395.164 150.481 398.549 149.867 401.97 149.61C402.91 149.52 403.97 149.44 405.03 149.36L405.14 132.49Z" fill="#FFBDA7"/>
<path d="M368.23 147.32C368.069 147.34 367.906 147.329 367.75 147.286C367.594 147.243 367.448 147.169 367.32 147.07C367.914 146.978 368.473 146.729 368.94 146.35C369.94 145.64 372.43 143.13 374.26 142.13C376.09 141.13 378.21 140.24 378.81 139.45C378.47 140.09 376.59 141.45 374.49 142.66C372.652 143.91 370.917 145.305 369.3 146.83C368.971 147.048 368.61 147.214 368.23 147.32Z" fill="#F0997A"/>
<path d="M372.85 147.96C373.59 147.71 376.65 145.96 377.85 145.32C379.05 144.68 380.77 143.53 380.77 143.53C380.077 144.203 379.316 144.803 378.5 145.32C377.45 145.94 374.38 147.71 373.12 148.22C372.286 148.615 371.355 148.761 370.44 148.64C370.172 148.476 369.951 148.245 369.8 147.97C370.282 148.177 370.801 148.283 371.326 148.281C371.851 148.279 372.369 148.17 372.85 147.96Z" fill="#F0997A"/>
<path d="M404.7 75.7C413.43 77.24 416.9 82.5699 420.7 93.9099C425.95 109.42 430.56 124.69 431.55 132.45L410.94 126.81L399.94 104.62C399.94 104.62 395.86 86.8 404.7 75.7Z" fill="#37474F"/>
<path d="M431.63 132.45C431.88 136.1 431.23 138.02 429.54 139.59C427.85 141.16 420.91 144.44 416.64 145.93C412.37 147.42 401.18 150.44 399.03 150.84C401.26 147.37 400.12 142.54 398.23 139.46C397.304 137.767 395.875 136.404 394.14 135.56L411.02 126.81L412.18 117.73L431.63 132.45Z" fill="#37474F"/>
<path d="M220.51 133.92C220.51 130.73 218.39 127.53 214.17 125.09L201.7 117.91C193.26 113.03 179.56 113.03 171.12 117.91L58.27 183.07C54.05 185.51 51.93 188.71 51.94 191.91V340.98C51.94 344.18 54.04 347.38 58.27 349.83L70.7 357.02C79.15 361.89 92.84 361.89 101.28 357.02L214.15 291.85C218.37 289.41 220.49 286.22 220.49 283.02V133.92H220.51Z" fill="#A5B5F1"/>
<path opacity="0.3" d="M70.7 207.91L58.25 200.73C49.81 195.85 49.81 187.94 58.25 183.07L171.12 117.91C179.56 113.03 193.25 113.03 201.7 117.91L214.15 125.09C222.6 129.97 222.6 137.88 214.15 142.75L101.3 207.91C92.86 212.79 79.17 212.79 70.7 207.91Z" fill="white"/>
<path d="M186.94 135.72C191.94 138.63 191.94 143.35 186.94 146.27C181.94 149.19 173.7 149.18 168.7 146.32C163.7 143.46 163.7 138.68 168.7 135.77C173.7 132.86 181.9 132.81 186.94 135.72Z" fill="#A5B5F1"/>
<path opacity="0.2" d="M186.94 135.72C191.94 138.63 191.94 143.35 186.94 146.27C181.94 149.19 173.7 149.18 168.7 146.32C163.7 143.46 163.7 138.68 168.7 135.77C173.7 132.86 181.9 132.81 186.94 135.72Z" fill="black"/>
<path opacity="0.2" d="M168.7 146.14L168.6 146.2L168.7 146.27C173.7 149.18 181.92 149.18 186.96 146.27L187.06 146.2L186.96 146.14C181.9 143.23 173.7 143.23 168.7 146.14Z" fill="black"/>
<path opacity="0.2" d="M86.03 211.57V360.67C80.6928 360.787 75.4149 359.534 70.7 357.03L58.27 349.82C54.03 347.39 51.91 344.17 51.95 340.96V191.89C51.95 195.11 54.03 198.29 58.27 200.72L70.7 207.93C75.4149 210.434 80.6928 211.687 86.03 211.57Z" fill="black"/>
<path d="M168.16 285.32L141.16 300.88L145.34 252.13C142.12 250.42 140.06 246.23 140.06 240.21C140.06 229.47 146.59 217 154.64 212.35C162.69 207.7 169.22 212.64 169.22 223.35C169.05 229.706 167.231 235.909 163.94 241.35L168.16 285.32Z" fill="#37474F"/>
<path d="M168.17 285.32L143.76 271.23L141.22 300.88L168.17 285.32Z" fill="#263238"/>
<path d="M154.7 212.32C149.43 215.32 144.83 221.76 142.27 228.82L164 241.36C167.291 235.919 169.11 229.716 169.28 223.36C169.27 212.64 162.7 207.71 154.7 212.32Z" fill="#263238"/>
<path d="M190.01 66.7399V46.7399C190.01 28.2799 183.01 13.6599 170.86 6.6399C159.25 -0.0601039 144.86 0.849893 130.43 9.19989C103.85 24.5399 83.04 61.9699 83.04 94.4199V185.19C83.04 186.99 84.25 188.79 86.63 190.19C91.39 192.93 99.1 192.93 103.86 190.19C106.24 188.81 107.44 187.01 107.44 185.19V94.4599C107.44 70.7299 123.56 41.3799 142.63 30.3599C149.14 26.6099 154.98 25.6799 158.68 27.8099C163.03 30.3199 165.62 37.4099 165.62 46.8099V66.8099C165.62 68.5999 166.83 70.3799 169.19 71.7399C173.95 74.4899 181.67 74.4899 186.43 71.7399C188.79 70.3799 189.98 68.5999 190 66.8099L190.01 66.7399Z" fill="#F0F0F0"/>
<path d="M154.06 4.12999C159.625 4.09279 165.099 5.53907 169.92 8.31999C181.48 15 188.11 29.02 188.11 46.78V66.78C188.11 67.93 187.11 69.14 185.48 70.09C183.098 71.28 180.472 71.8995 177.81 71.8995C175.148 71.8995 172.522 71.28 170.14 70.09C168.48 69.14 167.52 67.93 167.51 66.78V46.78C167.51 36.58 164.63 29.06 159.61 26.17C157.902 25.2218 155.973 24.7455 154.02 24.79C150.4 24.79 146.13 26.15 141.68 28.72C122.09 40.03 105.54 70.14 105.54 94.46V185.23C105.54 186.38 104.54 187.6 102.91 188.57C100.525 189.754 97.8979 190.37 95.235 190.37C92.572 190.37 89.9452 189.754 87.56 188.57C85.95 187.63 85 186.47 84.93 185.35V94.46C84.93 62.62 105.33 25.91 131.37 10.88C139.13 6.39999 146.76 4.12999 154.06 4.12999ZM154.06 2.23999C146.52 2.23999 138.49 4.57999 130.43 9.23999C103.85 24.58 83.04 62.01 83.04 94.46V185.23C83.04 187.03 84.25 188.83 86.63 190.23C89.2988 191.588 92.2507 192.295 95.245 192.295C98.2393 192.295 101.191 191.588 103.86 190.23C106.24 188.85 107.44 187.05 107.44 185.23V94.46C107.44 70.73 123.56 41.38 142.63 30.36C146.84 27.93 150.78 26.68 154.03 26.68C155.66 26.6339 157.272 27.024 158.7 27.81C163.05 30.32 165.64 37.41 165.64 46.81V66.81C165.64 68.6 166.85 70.38 169.21 71.74C171.882 73.0939 174.835 73.7994 177.83 73.7994C180.825 73.7994 183.778 73.0939 186.45 71.74C188.81 70.38 190 68.6 190.02 66.81V46.81C190.02 28.35 183.02 13.73 170.87 6.70999C165.765 3.76203 159.965 2.22935 154.07 2.26999L154.06 2.23999Z" fill="#E0E0E0"/>
<path d="M141.58 6.22998C140.29 6.83998 137.81 8.22997 136.52 9.01997C109.96 24.36 90.32 62.41 90.32 94.85V182.32C90.32 184.14 91.5 185.94 93.9 187.32C97.403 189.144 101.399 189.796 105.3 189.18C104.866 189.571 104.386 189.907 103.87 190.18C99.1 192.94 91.39 192.94 86.62 190.18C84.22 188.82 83.04 187.03 83.04 185.18V97.72C83.04 65.28 103.87 26.57 130.43 11.22C133.946 9.14026 137.687 7.46622 141.58 6.22998Z" fill="#E0E0E0"/>
<path d="M66.1901 354.38L47.0501 365.43C47.3101 358.6 47.9001 348.43 46.9601 341.6C41.1801 299.76 24.8901 285.97 17.1401 265.6C8.98005 244.17 18.9301 237.32 31.8601 241.12C43.3801 244.56 60.0701 261.62 65.3201 292.84C68.8101 313.61 68.2001 336.17 66.1901 354.38Z" fill="#1A47EE"/>
<path opacity="0.65" d="M66.1901 354.38L47.0501 365.43C47.3101 358.6 47.9001 348.43 46.9601 341.6C41.1801 299.76 24.8901 285.97 17.1401 265.6C8.98005 244.17 18.9301 237.32 31.8601 241.12C43.3801 244.56 60.0701 261.62 65.3201 292.84C68.8101 313.61 68.2001 336.17 66.1901 354.38Z" fill="white"/>
<path d="M56.05 360.23L54.13 361.32C60.98 312.57 44.3 270.32 27.85 252.8C27.772 252.723 27.7101 252.631 27.6678 252.53C27.6256 252.429 27.6038 252.32 27.6038 252.21C27.6038 252.1 27.6256 251.992 27.6678 251.891C27.7101 251.789 27.772 251.697 27.85 251.62C28.0089 251.464 28.2225 251.377 28.445 251.377C28.6675 251.377 28.8811 251.464 29.04 251.62C45.52 269.13 62.18 311.71 56.05 360.23Z" fill="white"/>
<path d="M3.28003 291.46C11.89 283.85 23.12 291.9 30.85 300.59C37.53 308.11 50.96 328.11 52.43 362.32L41.7 368.54C35.98 351.68 30.1 344.93 22.8 333.84C16.14 323.75 8.41003 317.5 4.30003 310.4" fill="#1A47EE"/>
<path opacity="0.3" d="M3.28003 291.46C11.89 283.85 23.12 291.9 30.85 300.59C37.53 308.11 50.96 328.11 52.43 362.32L41.7 368.54C35.98 351.68 30.1 344.93 22.8 333.84C16.14 323.75 8.41003 317.5 4.30003 310.4" fill="white"/>
<path d="M48.01 364.87L46.44 365.78C41.92 339.12 23.81 308.26 12.55 300.98C12.4553 300.919 12.3737 300.839 12.3102 300.745C12.2467 300.652 12.2025 300.546 12.1801 300.436C12.1578 300.325 12.1577 300.211 12.18 300.1C12.2024 299.989 12.2465 299.884 12.31 299.79C12.37 299.695 12.4483 299.613 12.5402 299.548C12.6322 299.484 12.7361 299.438 12.8458 299.414C12.9555 299.39 13.069 299.388 13.1795 299.408C13.2901 299.427 13.3957 299.469 13.49 299.53C25.14 307.09 43.21 337.8 48.01 364.87Z" fill="white"/>
</g>
<defs>
<clipPath id="clip0_493_714">
<rect width="465.41" height="434.44" fill="white"/>
</clipPath>
</defs>
</svg>
