<svg width="738" height="347" viewBox="0 0 738 347" fill="none" xmlns="http://www.w3.org/2000/svg">
<g clip-path="url(#clip0_619_506)">
<path d="M211.447 11.298V120.12C211.571 121.904 212.395 123.566 213.741 124.744C215.087 125.921 216.844 126.518 218.629 126.404H447.001C448.781 126.506 450.529 125.905 451.869 124.729C453.208 123.553 454.032 121.897 454.161 120.12V11.298C454.037 9.51814 453.215 7.85916 451.875 6.68224C450.534 5.50532 448.782 4.90571 447.001 5.01394H218.563C216.789 4.91764 215.049 5.52268 213.718 6.69838C212.386 7.87408 211.571 9.52617 211.447 11.298Z" fill="#E2E1EF"/>
<path d="M211.447 8.40795V17.3414H454.161V8.40795C454.313 6.34661 453.646 4.30848 452.306 2.73483C450.966 1.16118 449.06 0.178665 447.001 0H218.563C216.512 0.189471 214.617 1.17662 213.286 2.74906C211.955 4.3215 211.295 6.35355 211.447 8.40795Z" fill="#A5B5F1"/>
<path d="M300.847 48.7617L431.674 48.7617V40.9668L300.847 40.9668V48.7617Z" fill="#C7C5D8"/>
<path d="M300.847 69.4751L431.674 69.4751V61.6802L300.847 61.6802V69.4751Z" fill="#C7C5D8"/>
<path d="M300.847 90.1885L431.674 90.1885V82.3936L300.847 82.3936V90.1885Z" fill="#C7C5D8"/>
<path d="M231.613 90.1885H286.484V41.3172L231.613 41.3172V90.1885Z" fill="#A5B5F1"/>
<path d="M735.587 341.464H125.222C124.641 341.464 124.084 341.233 123.673 340.822C123.263 340.412 123.032 339.855 123.032 339.274C123.032 338.693 123.263 338.136 123.673 337.726C124.084 337.315 124.641 337.084 125.222 337.084H735.587C736.167 337.084 736.724 337.315 737.135 337.726C737.546 338.136 737.776 338.693 737.776 339.274C737.776 339.855 737.546 340.412 737.135 340.822C736.724 341.233 736.167 341.464 735.587 341.464Z" fill="#D2D2DB"/>
<path d="M390.138 232.576C390.138 232.576 375.643 244.553 371.154 242.561C366.666 240.568 326.202 206.104 326.202 206.104L291.892 237.722C291.892 237.722 332.202 320.488 360.666 331.479C389.131 342.471 419.106 338.048 436.097 319.481C453.088 300.913 441.089 250.553 441.089 250.553L390.138 232.576Z" fill="#F9D5C3"/>
<path d="M650.39 275.536C650.39 275.536 626.458 167.13 571.456 146.657C516.454 126.185 478.838 135.315 458.08 141.161C422.609 151.146 374.658 226.555 374.658 226.555L434.105 275.514L431.586 341.442H569.53L571.018 277.003L650.39 275.536Z" fill="#A5B5F1"/>
<path d="M511.9 65.3151C511.9 65.3151 483.436 66.6726 481.859 39.4125C480.151 10.3568 507.017 7.5761 518.425 19.3122C529.833 31.0483 527.709 43.0034 527.709 43.0034C527.709 43.0034 535.657 35.8435 544.349 44.6455C550.699 51.2143 547.415 61.6585 547.415 61.6585C547.415 61.6585 562.085 61.0892 560.728 73.8982C560.331 77.6525 559.197 81.2914 557.39 84.6057C555.582 87.92 553.137 90.8442 550.196 93.2103L511.9 65.3151Z" fill="black"/>
<path d="M481.399 89.5317C480.304 99.1001 484.706 107.464 491.231 108.209C497.755 108.953 503.952 101.815 505.047 92.2468C506.142 82.6783 501.74 74.3142 495.215 73.5697C488.691 72.8253 482.494 79.9195 481.399 89.5317Z" fill="#DB2A65"/>
<path d="M537.912 115.544L534.956 145.76C534.956 145.76 528.65 153.905 510.871 153.621C497.602 153.402 493.354 149.964 493.354 149.964L496.683 134.834L499.967 120.098L532.57 116.201L537.912 115.544Z" fill="#F9D5C3"/>
<path d="M532.438 116.201C532.196 117.195 531.805 118.148 531.278 119.025C523.023 133.454 504.237 134.9 496.551 134.834L499.836 120.098L532.438 116.201Z" fill="black"/>
<path d="M499.836 50.5574C499.836 50.5574 480.261 86.8824 484.509 108.559C488.756 130.236 508.265 128.462 520.133 125.331C526.846 123.731 533.003 120.35 537.956 115.544C541.167 116.778 544.686 116.969 548.011 116.088C551.337 115.208 554.3 113.301 556.48 110.639C564.516 101.224 561.012 89.3347 555.078 86.2036C549.145 83.0725 541.459 86.8824 541.459 86.8824L548.028 76.4162C548.028 76.4162 528.475 18.7648 499.836 50.5574Z" fill="#F9D5C3"/>
<path d="M541.043 103.501C540.738 103.498 540.442 103.394 540.2 103.207C539.959 103.02 539.785 102.759 539.706 102.464C539.626 102.169 539.646 101.856 539.761 101.573C539.876 101.29 540.08 101.052 540.343 100.895L554.903 92.4437C555.228 92.2646 555.609 92.2169 555.967 92.3106C556.326 92.4044 556.635 92.6323 556.83 92.9473C557.014 93.2672 557.064 93.6467 556.97 94.0033C556.875 94.3599 556.644 94.665 556.326 94.8523L541.744 103.326C541.531 103.448 541.288 103.508 541.043 103.501Z" fill="black"/>
<path d="M553.458 104.552C553.306 104.584 553.15 104.584 552.998 104.552L544.24 101.377C543.911 101.236 543.648 100.974 543.506 100.644C543.364 100.315 543.354 99.944 543.477 99.6074C543.601 99.2708 543.848 98.9943 544.17 98.8348C544.491 98.6753 544.861 98.6449 545.203 98.75L553.962 101.925C554.31 102.053 554.593 102.314 554.749 102.651C554.905 102.987 554.921 103.372 554.794 103.72C554.683 103.979 554.495 104.197 554.256 104.345C554.018 104.494 553.739 104.566 553.458 104.552Z" fill="black"/>
<path d="M523.702 68.9716C523.475 68.9706 523.254 68.902 523.067 68.7746C520.245 66.7984 516.968 65.5704 513.542 65.2056C513.256 65.178 512.991 65.0429 512.8 64.8277C512.609 64.6124 512.506 64.3328 512.513 64.0451C512.515 63.8992 512.548 63.7554 512.609 63.6228C512.67 63.4902 512.758 63.3717 512.867 63.2749C512.976 63.1781 513.104 63.1051 513.243 63.0605C513.382 63.0159 513.529 63.0008 513.674 63.016C517.503 63.3982 521.169 64.7633 524.315 66.9791C524.434 67.0583 524.537 67.1607 524.616 67.2801C524.695 67.3996 524.75 67.5336 524.776 67.6744C524.803 67.8153 524.801 67.96 524.77 68.1C524.74 68.2401 524.682 68.3727 524.6 68.4899C524.5 68.637 524.367 68.7576 524.21 68.8416C524.054 68.9255 523.879 68.9701 523.702 68.9716Z" fill="black"/>
<path d="M494.515 64.5923C494.299 64.5884 494.09 64.5223 493.911 64.4018C493.732 64.2814 493.592 64.1118 493.508 63.9135C493.454 63.7798 493.428 63.637 493.43 63.493C493.432 63.3491 493.462 63.207 493.519 63.0748C493.576 62.9426 493.658 62.8229 493.762 62.7226C493.865 62.6223 493.987 62.5434 494.121 62.4903C496.379 61.6419 498.869 61.6419 501.127 62.4903C501.261 62.5434 501.383 62.6223 501.486 62.7226C501.59 62.8229 501.672 62.9426 501.729 63.0748C501.786 63.207 501.816 63.3491 501.818 63.493C501.82 63.637 501.794 63.7798 501.74 63.9135C501.629 64.18 501.418 64.3928 501.152 64.5071C500.887 64.6215 500.588 64.6284 500.317 64.5266C498.577 63.8941 496.671 63.8941 494.931 64.5266C494.799 64.5812 494.657 64.6037 494.515 64.5923Z" fill="black"/>
<path d="M498.587 98.9685C498.398 98.9718 498.211 98.9249 498.046 98.8326C497.88 98.7403 497.743 98.6059 497.646 98.443C491.931 88.787 502.025 77.7734 502.529 77.3136C502.63 77.211 502.752 77.1296 502.885 77.074C503.018 77.0184 503.161 76.9897 503.306 76.9897C503.45 76.9897 503.594 77.0184 503.727 77.074C503.86 77.1296 503.982 77.211 504.083 77.3136C504.186 77.4154 504.267 77.5365 504.323 77.6699C504.379 77.8033 504.407 77.9464 504.407 78.0909C504.407 78.2354 504.379 78.3785 504.323 78.5119C504.267 78.6453 504.186 78.7664 504.083 78.8682C504.083 78.8682 494.602 89.1373 499.485 97.392C499.559 97.515 499.608 97.6517 499.628 97.7939C499.648 97.9361 499.64 98.0809 499.603 98.2198C499.566 98.3587 499.502 98.4887 499.414 98.6023C499.326 98.7158 499.216 98.8106 499.091 98.8809C498.934 98.9539 498.76 98.9841 498.587 98.9685Z" fill="black"/>
<path d="M493.245 79.1094C493.115 79.1402 492.98 79.1402 492.851 79.1094C492.716 79.0608 492.592 78.9856 492.487 78.8883C492.381 78.791 492.296 78.6735 492.237 78.5429C492.178 78.4122 492.146 78.2711 492.142 78.1277C492.138 77.9843 492.163 77.8416 492.216 77.7081L494.778 70.9642C494.882 70.6913 495.091 70.4711 495.358 70.352C495.624 70.2329 495.928 70.2247 496.201 70.3292C496.474 70.4338 496.694 70.6424 496.813 70.9093C496.932 71.1762 496.94 71.4795 496.836 71.7525L494.252 78.4964C494.165 78.6875 494.022 78.8482 493.843 78.9574C493.663 79.0667 493.455 79.1197 493.245 79.1094Z" fill="black"/>
<path d="M512.338 81.3424H511.944C511.689 81.219 511.493 81.0019 511.395 80.7366C511.297 80.4713 511.305 80.1784 511.418 79.9192L513.98 73.1753C514.031 73.0396 514.108 72.9153 514.208 72.8098C514.307 72.7042 514.427 72.6194 514.559 72.5604C514.691 72.5013 514.834 72.4691 514.979 72.4656C515.124 72.4622 515.268 72.4876 515.403 72.5404C515.672 72.6435 515.89 72.8484 516.009 73.1107C516.127 73.373 516.138 73.6716 516.038 73.9417L513.455 80.6856C513.369 80.9041 513.212 81.0875 513.01 81.2065C512.807 81.3256 512.571 81.3734 512.338 81.3424Z" fill="black"/>
<path d="M495.807 58.7901C497.12 57.0387 498.86 55.6524 500.861 54.7632C502.861 53.8741 505.056 53.5116 507.236 53.7103C509.482 53.939 511.656 54.6288 513.623 55.7365C515.589 56.8442 517.306 58.3459 518.666 60.1477C518.666 60.1477 514.111 72.5187 523.702 80.2479C533.292 87.9771 541.416 86.8166 541.416 86.8166L549.101 84.9117L555.67 74.5769L536.38 49.2655L509.973 31.8584L494.515 43.3317L495.807 58.7901Z" fill="black"/>
<path d="M505.572 110.705C501.894 110.705 499.332 106.326 499.222 106.129C499.14 105.979 499.094 105.813 499.087 105.643C499.08 105.473 499.113 105.303 499.183 105.148C499.253 104.993 499.359 104.856 499.491 104.749C499.623 104.642 499.779 104.567 499.945 104.53L511.024 102.078C511.22 102.038 511.423 102.052 511.611 102.117C511.8 102.183 511.968 102.298 512.097 102.45C512.225 102.603 512.309 102.787 512.34 102.984C512.371 103.181 512.347 103.382 512.272 103.567C511.966 104.289 509.229 110.705 505.572 110.705ZM502.025 106.326C502.438 106.911 502.965 107.407 503.574 107.784C504.184 108.16 504.864 108.409 505.572 108.515C506.755 108.515 508.222 106.654 509.294 104.705L502.025 106.326Z" fill="black"/>
<path d="M638.414 275.755C638.414 275.755 654.66 322.415 623.087 337.391C591.513 352.368 487.114 343.303 487.114 343.303L493.114 304.504L563.968 275.755H638.414Z" fill="#F9D5C3"/>
<path d="M326.202 207.177C326.202 207.177 322.108 187.712 314.926 181.056C307.744 174.399 287.272 161.087 280.615 164.152C273.959 167.217 288.301 180.639 288.301 180.639C288.301 180.639 235.554 177.574 230.431 182.194C225.307 186.814 233.496 191.412 233.496 191.412C233.496 191.412 220.183 192.945 223.271 197.981C226.358 203.017 236.058 205.141 236.058 205.141C236.058 205.141 222.242 205.644 229.927 212.826C237.612 220.008 267.478 229.992 284.206 230.233C300.935 230.474 311.861 230.233 311.861 230.233L326.202 207.177Z" fill="#F9D5C3"/>
<path d="M304.723 211.688H304.372C287.6 206.214 290.775 184.712 290.797 184.493C290.851 184.206 291.012 183.951 291.249 183.78C291.485 183.609 291.778 183.535 292.067 183.573C292.351 183.622 292.604 183.78 292.772 184.013C292.94 184.247 293.009 184.537 292.965 184.822C292.855 185.632 290.053 204.703 305.051 209.608C305.342 209.651 305.603 209.808 305.777 210.044C305.952 210.28 306.025 210.576 305.982 210.867C305.938 211.157 305.781 211.418 305.545 211.593C305.309 211.767 305.013 211.841 304.723 211.797V211.688Z" fill="black"/>
<path d="M260.756 209.104H260.625L235.926 206.126C235.783 206.109 235.644 206.064 235.517 205.993C235.391 205.922 235.28 205.827 235.191 205.713C235.01 205.483 234.928 205.19 234.963 204.9C234.998 204.61 235.147 204.345 235.376 204.165C235.606 203.984 235.899 203.902 236.189 203.937L260.274 206.827L273.631 183.968C273.785 183.721 274.029 183.545 274.311 183.475C274.593 183.406 274.891 183.449 275.142 183.596C275.267 183.666 275.377 183.761 275.465 183.874C275.553 183.988 275.617 184.118 275.654 184.257C275.69 184.396 275.699 184.54 275.679 184.683C275.658 184.825 275.61 184.961 275.536 185.085L261.807 208.644C261.695 208.815 261.536 208.949 261.35 209.03C261.163 209.112 260.957 209.138 260.756 209.104Z" fill="black"/>
<path d="M268.989 195.135L233.343 192.376C233.056 192.354 232.79 192.219 232.601 192.002C232.413 191.785 232.317 191.502 232.335 191.215C232.363 190.927 232.502 190.661 232.723 190.473C232.943 190.285 233.229 190.19 233.518 190.208L269.011 192.945C269.301 192.945 269.58 193.061 269.785 193.266C269.99 193.471 270.106 193.75 270.106 194.04C270.106 194.33 269.99 194.609 269.785 194.814C269.58 195.019 269.301 195.135 269.011 195.135H268.989Z" fill="black"/>
<path d="M486.151 284.951C486.151 284.951 474.152 277.156 470.101 274.857C466.05 272.558 457.752 260.493 452.125 261.72C446.498 262.946 459.569 282.521 459.569 282.521C459.569 282.521 413.807 273.762 410.26 278.535C406.713 283.309 431.565 293.862 431.565 293.862C431.565 293.862 397.999 288.192 397.254 294.432C396.51 300.672 427.273 308.336 427.273 308.336C427.273 308.336 404.107 307.153 404.348 313.131C404.589 319.108 450.329 332.377 450.329 332.377C450.329 332.377 487.727 354.273 501.872 336.121C516.017 317.97 486.151 284.951 486.151 284.951Z" fill="#F9D5C3"/>
<path d="M468.787 290.906C468.54 290.911 468.298 290.825 468.109 290.666L458.869 283.396C458.643 283.216 458.498 282.953 458.465 282.666C458.432 282.379 458.514 282.09 458.693 281.864C458.874 281.638 459.137 281.493 459.424 281.46C459.711 281.427 459.999 281.509 460.226 281.688L469.444 288.958C469.673 289.135 469.822 289.396 469.859 289.683C469.896 289.971 469.818 290.261 469.641 290.491C469.536 290.616 469.406 290.718 469.259 290.79C469.112 290.862 468.951 290.901 468.787 290.906Z" fill="black"/>
<path d="M433.798 310.744H433.601L427.032 309.474C426.888 309.447 426.751 309.392 426.629 309.311C426.507 309.231 426.401 309.128 426.319 309.007C426.237 308.886 426.179 308.75 426.149 308.606C426.119 308.463 426.118 308.315 426.145 308.171C426.173 308.028 426.228 307.891 426.308 307.768C426.389 307.646 426.492 307.541 426.613 307.458C426.734 307.376 426.87 307.318 427.013 307.288C427.157 307.259 427.304 307.257 427.448 307.285L434.017 308.533C434.299 308.596 434.545 308.766 434.704 309.007C434.863 309.247 434.923 309.541 434.871 309.825C434.834 310.082 434.704 310.317 434.507 310.486C434.31 310.655 434.058 310.747 433.798 310.744Z" fill="black"/>
<path d="M438.155 295.986H437.98L431.411 295.001C431.126 294.952 430.871 294.795 430.7 294.563C430.528 294.33 430.454 294.04 430.492 293.753C430.51 293.609 430.558 293.471 430.631 293.346C430.705 293.221 430.803 293.113 430.919 293.027C431.036 292.941 431.169 292.879 431.31 292.846C431.451 292.813 431.597 292.808 431.74 292.833L438.308 293.819C438.452 293.829 438.593 293.867 438.722 293.931C438.851 293.996 438.966 294.085 439.06 294.193C439.155 294.302 439.227 294.429 439.273 294.565C439.318 294.702 439.337 294.846 439.327 294.99C439.317 295.134 439.278 295.274 439.214 295.403C439.15 295.532 439.061 295.647 438.952 295.742C438.843 295.836 438.717 295.908 438.58 295.954C438.443 296 438.299 296.018 438.155 296.008V295.986Z" fill="black"/>
<path d="M433.82 341.486L181.187 341.486V321.78L424.383 321.78C426.886 321.78 429.286 322.774 431.056 324.544C432.826 326.314 433.82 328.714 433.82 331.217V341.442V341.486Z" fill="#50447E"/>
<path d="M368.549 341.464H181.187L181.187 220.862C181.187 218.139 182.269 215.527 184.195 213.601C186.121 211.675 188.733 210.593 191.456 210.593L358.28 210.593C361.003 210.593 363.615 211.675 365.541 213.601C367.467 215.527 368.549 218.139 368.549 220.862V341.464Z" fill="#A5B5F1"/>
<path d="M520.899 168.728C514.024 168.728 509.251 161.634 507.565 158.7C504.083 161.569 493.836 169.298 489.107 164.459C483.567 158.832 492.063 149.613 492.413 149.132C492.583 148.957 492.804 148.842 493.045 148.802C493.285 148.763 493.532 148.802 493.748 148.913C515.009 160.561 534.058 144.994 534.256 144.818C534.421 144.68 534.624 144.594 534.838 144.571C535.052 144.548 535.268 144.588 535.46 144.687C535.652 144.794 535.81 144.955 535.915 145.148C536.019 145.342 536.067 145.562 536.051 145.782C536.051 146.548 534.08 165.05 524.03 168.137C523.024 168.496 521.967 168.696 520.899 168.728ZM507.762 155.876H507.981C508.147 155.904 508.304 155.972 508.438 156.076C508.571 156.179 508.678 156.313 508.747 156.467C508.747 156.598 514.79 168.707 523.264 166.123C529.833 164.065 532.548 153.117 533.402 148.125C527.687 151.891 511.331 160.649 493.376 151.321C491.734 153.292 487.136 159.445 490.552 162.904C493.967 166.364 503.842 158.985 507.039 156.138C507.153 156.041 507.286 155.968 507.428 155.922C507.571 155.877 507.722 155.861 507.871 155.876H507.762Z" fill="white"/>
<path d="M560.815 276.85C560.525 276.85 560.246 276.734 560.041 276.529C559.836 276.324 559.72 276.045 559.72 275.755V253.224C559.72 252.934 559.836 252.655 560.041 252.45C560.246 252.245 560.525 252.129 560.815 252.129C561.105 252.129 561.384 252.245 561.589 252.45C561.795 252.655 561.91 252.934 561.91 253.224V275.755C561.91 276.045 561.795 276.324 561.589 276.529C561.384 276.734 561.105 276.85 560.815 276.85Z" fill="white"/>
<path d="M434.105 276.631C433.959 276.631 433.815 276.602 433.68 276.545C433.546 276.489 433.425 276.406 433.323 276.302C433.221 276.198 433.14 276.075 433.087 275.94C433.033 275.804 433.007 275.66 433.01 275.514L433.776 230.299C433.773 230.156 433.799 230.013 433.854 229.88C433.908 229.747 433.989 229.626 434.091 229.526C434.194 229.425 434.316 229.347 434.45 229.295C434.584 229.244 434.727 229.22 434.871 229.227C435.163 229.232 435.442 229.352 435.646 229.561C435.851 229.77 435.966 230.051 435.966 230.343L435.199 275.558C435.188 275.843 435.069 276.112 434.865 276.312C434.662 276.511 434.389 276.625 434.105 276.631Z" fill="white"/>
<path d="M529.22 98.2241C528.125 107.793 532.526 116.157 539.051 116.901C545.576 117.646 551.772 110.508 552.867 100.939C553.962 91.3708 549.561 83.0066 543.036 82.2622C536.511 81.5177 530.314 88.6776 529.22 98.2241Z" fill="#DB2A65"/>
<path d="M532.548 98.6183C531.453 108.187 535.854 116.551 542.401 117.295C548.948 118.04 555.122 110.902 556.217 101.333C557.312 91.765 552.911 83.4008 546.364 82.6563C539.817 81.9119 533.642 89.0499 532.548 98.6183Z" fill="#EA366E"/>
<path d="M268.989 283.812C278.252 283.812 285.761 276.303 285.761 267.04C285.761 257.777 278.252 250.268 268.989 250.268C259.726 250.268 252.217 257.777 252.217 267.04C252.217 276.303 259.726 283.812 268.989 283.812Z" fill="#EFEFF4"/>
<path d="M255.238 224.191H196.711C196.423 224.185 196.147 224.068 195.943 223.864C195.739 223.66 195.622 223.384 195.616 223.096C195.616 222.805 195.732 222.527 195.937 222.322C196.142 222.116 196.421 222.001 196.711 222.001H255.238C255.529 222.001 255.807 222.116 256.013 222.322C256.218 222.527 256.333 222.805 256.333 223.096C256.333 223.386 256.218 223.665 256.013 223.87C255.807 224.075 255.529 224.191 255.238 224.191Z" fill="#ADA4F7"/>
<path d="M539.533 40.9888C539.533 40.9888 543.211 48.2363 542.357 63.4757C541.503 78.7151 540.299 86.9479 540.299 86.9479L550.634 87.977C550.634 87.977 559.458 51.3236 539.533 40.9888Z" fill="#EA366E"/>
<path d="M434.389 259.267C434.135 259.271 433.887 259.186 433.689 259.026L381.555 216.133C381.427 216.048 381.319 215.938 381.236 215.809C381.154 215.68 381.1 215.535 381.077 215.384C381.054 215.232 381.063 215.078 381.103 214.93C381.144 214.782 381.215 214.645 381.312 214.527C381.409 214.408 381.529 214.311 381.666 214.242C381.803 214.173 381.952 214.134 382.105 214.126C382.258 214.119 382.411 214.143 382.554 214.199C382.697 214.254 382.826 214.338 382.934 214.447L435.09 257.275C435.312 257.459 435.453 257.723 435.482 258.01C435.51 258.297 435.425 258.583 435.243 258.808C435.145 258.943 435.017 259.055 434.869 259.135C434.721 259.215 434.557 259.26 434.389 259.267Z" fill="white"/>
<path d="M646.778 262.749H561.122C560.831 262.749 560.553 262.633 560.347 262.428C560.142 262.223 560.027 261.944 560.027 261.654C560.027 261.364 560.142 261.085 560.347 260.88C560.553 260.674 560.831 260.559 561.122 260.559H646.778C647.068 260.559 647.346 260.674 647.552 260.88C647.757 261.085 647.872 261.364 647.872 261.654C647.872 261.944 647.757 262.223 647.552 262.428C647.346 262.633 647.068 262.749 646.778 262.749Z" fill="white"/>
<path d="M668.673 335.902H717.567V271.967H668.673V335.902Z" fill="#EA366E"/>
<path d="M693.109 274.769C706.616 274.769 717.567 273.515 717.567 271.967C717.567 270.419 706.616 269.164 693.109 269.164C679.601 269.164 668.651 270.419 668.651 271.967C668.651 273.515 679.601 274.769 693.109 274.769Z" fill="white"/>
<path d="M650.39 307.329C650.39 294.301 658.579 283.703 668.652 283.703C678.724 283.703 686.934 294.301 686.934 307.329C686.934 320.357 678.745 330.932 668.652 330.932C658.558 330.932 650.39 320.335 650.39 307.329ZM654.77 307.329C654.77 317.948 661.032 326.619 668.717 326.619C676.403 326.619 682.687 317.86 682.687 307.329C682.687 296.797 676.425 288.038 668.717 288.038C661.01 288.038 654.704 296.687 654.704 307.329H654.77Z" fill="#EA366E"/>
<path d="M242.824 33.9819H7.64161C3.42126 33.9819 0 37.4032 0 41.6235V74.9926C0 79.213 3.42126 82.6342 7.64161 82.6342H242.824C247.044 82.6342 250.465 79.213 250.465 74.9926V41.6235C250.465 37.4032 247.044 33.9819 242.824 33.9819Z" fill="white"/>
<path d="M17.0568 72.453C16.3791 72.4473 15.7308 72.1756 15.2516 71.6964C14.7724 71.2172 14.5007 70.5689 14.4949 69.8912V47.7547C14.4949 47.4182 14.5612 47.0851 14.69 46.7743C14.8187 46.4635 15.0074 46.1811 15.2453 45.9432C15.4832 45.7053 15.7656 45.5166 16.0764 45.3879C16.3872 45.2591 16.7203 45.1929 17.0568 45.1929C17.3932 45.1929 17.7263 45.2591 18.0371 45.3879C18.3479 45.5166 18.6303 45.7053 18.8682 45.9432C19.1061 46.1811 19.2948 46.4635 19.4235 46.7743C19.5523 47.0851 19.6186 47.4182 19.6186 47.7547V69.8912C19.6186 70.5707 19.3486 71.2223 18.8682 71.7027C18.3878 72.1831 17.7362 72.453 17.0568 72.453Z" fill="#A5B5F1"/>
<path d="M54.5203 72.4528C53.8447 72.447 53.1987 72.1746 52.723 71.6948C52.2473 71.215 51.9804 70.5667 51.9804 69.891V47.7544C51.9475 47.3996 51.989 47.0418 52.1022 46.7039C52.2154 46.366 52.3979 46.0554 52.638 45.792C52.8781 45.5287 53.1705 45.3183 53.4965 45.1744C53.8225 45.0304 54.1749 44.9561 54.5312 44.9561C54.8876 44.9561 55.2401 45.0304 55.5661 45.1744C55.8921 45.3183 56.1845 45.5287 56.4245 45.792C56.6646 46.0554 56.8471 46.366 56.9603 46.7039C57.0735 47.0418 57.115 47.3996 57.0821 47.7544V69.891C57.0821 70.5704 56.8122 71.222 56.3318 71.7025C55.8514 72.1829 55.1997 72.4528 54.5203 72.4528Z" fill="#A5B5F1"/>
<path d="M198.112 72.4528C197.437 72.447 196.791 72.1746 196.315 71.6948C195.839 71.215 195.573 70.5667 195.573 69.891V47.7544C195.54 47.3996 195.581 47.0418 195.694 46.7039C195.808 46.366 195.99 46.0554 196.23 45.792C196.47 45.5287 196.763 45.3183 197.089 45.1744C197.415 45.0304 197.767 44.9561 198.123 44.9561C198.48 44.9561 198.832 45.0304 199.158 45.1744C199.484 45.3183 199.777 45.5287 200.017 45.792C200.257 46.0554 200.439 46.366 200.552 46.7039C200.666 47.0418 200.707 47.3996 200.674 47.7544V69.891C200.674 70.5704 200.404 71.222 199.924 71.7025C199.443 72.1829 198.792 72.4528 198.112 72.4528Z" fill="#A5B5F1"/>
<path d="M221.738 72.4528C221.062 72.447 220.416 72.1746 219.941 71.6948C219.465 71.215 219.198 70.5667 219.198 69.891V47.7544C219.165 47.3996 219.207 47.0418 219.32 46.7039C219.433 46.366 219.616 46.0554 219.856 45.792C220.096 45.5287 220.388 45.3183 220.714 45.1744C221.04 45.0304 221.392 44.9561 221.749 44.9561C222.105 44.9561 222.458 45.0304 222.784 45.1744C223.11 45.3183 223.402 45.5287 223.642 45.792C223.882 46.0554 224.065 46.366 224.178 46.7039C224.291 47.0418 224.333 47.3996 224.3 47.7544V69.891C224.3 70.5704 224.03 71.222 223.549 71.7025C223.069 72.1829 222.417 72.4528 221.738 72.4528Z" fill="#A5B5F1"/>
<path d="M61.7897 75.5404C61.1103 75.5404 60.4587 75.2705 59.9783 74.7901C59.4979 74.3097 59.228 73.6581 59.228 72.9786V44.5142C59.2869 43.8784 59.5811 43.2876 60.053 42.8575C60.5249 42.4274 61.1403 42.189 61.7788 42.189C62.4172 42.189 63.0328 42.4274 63.5046 42.8575C63.9765 43.2876 64.2707 43.8784 64.3296 44.5142V72.9786C64.3325 73.314 64.269 73.6466 64.1426 73.9573C64.0163 74.268 63.8296 74.5506 63.5935 74.7888C63.3573 75.027 63.0764 75.216 62.7668 75.345C62.4572 75.474 62.1251 75.5404 61.7897 75.5404Z" fill="#A5B5F1"/>
<path d="M205.973 75.5402C205.294 75.5402 204.642 75.2703 204.162 74.7898C203.681 74.3094 203.411 73.6578 203.411 72.9784V44.5139C203.411 43.8345 203.681 43.1829 204.162 42.7025C204.642 42.222 205.294 41.9521 205.973 41.9521C206.652 41.9521 207.304 42.222 207.784 42.7025C208.265 43.1829 208.535 43.8345 208.535 44.5139V72.9784C208.535 73.6578 208.265 74.3094 207.784 74.7898C207.304 75.2703 206.652 75.5402 205.973 75.5402Z" fill="#A5B5F1"/>
<path d="M213.855 75.5402C213.176 75.5402 212.524 75.2703 212.044 74.7898C211.564 74.3094 211.294 73.6578 211.294 72.9784V44.5139C211.294 43.8345 211.564 43.1829 212.044 42.7025C212.524 42.222 213.176 41.9521 213.855 41.9521C214.535 41.9521 215.187 42.222 215.667 42.7025C216.147 43.1829 216.417 43.8345 216.417 44.5139V72.9784C216.417 73.6578 216.147 74.3094 215.667 74.7898C215.187 75.2703 214.535 75.5402 213.855 75.5402Z" fill="#A5B5F1"/>
<path d="M24.8517 47.7544H24.3481C23.0783 47.7544 22.049 48.7837 22.049 50.0534V67.5919C22.049 68.8617 23.0783 69.891 24.3481 69.891H24.8517C26.1214 69.891 27.1507 68.8617 27.1507 67.5919V50.0534C27.1507 48.7837 26.1214 47.7544 24.8517 47.7544Z" fill="#A5B5F1"/>
<path d="M46.8787 47.7544H46.3751C45.1054 47.7544 44.076 48.7837 44.076 50.0534V67.5919C44.076 68.8617 45.1054 69.891 46.3751 69.891H46.8787C48.1484 69.891 49.1778 68.8617 49.1778 67.5919V50.0534C49.1778 48.7837 48.1484 47.7544 46.8787 47.7544Z" fill="#A5B5F1"/>
<path d="M69.497 47.7544H68.9934C67.7237 47.7544 66.6943 48.7837 66.6943 50.0534V67.5919C66.6943 68.8617 67.7237 69.891 68.9934 69.891H69.497C70.7667 69.891 71.796 68.8617 71.796 67.5919V50.0534C71.796 48.7837 70.7667 47.7544 69.497 47.7544Z" fill="#A5B5F1"/>
<path d="M190.252 47.7544H189.748C188.479 47.7544 187.449 48.7837 187.449 50.0534V67.5919C187.449 68.8617 188.479 69.891 189.748 69.891H190.252C191.522 69.891 192.551 68.8617 192.551 67.5919V50.0534C192.551 48.7837 191.522 47.7544 190.252 47.7544Z" fill="#A5B5F1"/>
<path d="M31.902 63.9353C31.2226 63.9353 30.571 63.6654 30.0906 63.1849C29.6102 62.7045 29.3402 62.0529 29.3402 61.3735V56.2718C29.3402 55.5923 29.6102 54.9407 30.0906 54.4603C30.571 53.9799 31.2226 53.71 31.902 53.71C32.5815 53.71 33.233 53.9799 33.7135 54.4603C34.1939 54.9407 34.4639 55.5923 34.4639 56.2718V61.3735C34.4581 62.0511 34.1864 62.6994 33.7072 63.1786C33.228 63.6578 32.5797 63.9295 31.902 63.9353Z" fill="#A5B5F1"/>
<path d="M39.0838 63.9355C38.4044 63.9355 37.7528 63.6656 37.2724 63.1852C36.792 62.7048 36.522 62.0531 36.522 61.3737V56.272C36.4891 55.9172 36.5306 55.5594 36.6438 55.2215C36.757 54.8836 36.9396 54.573 37.1796 54.3096C37.4197 54.0463 37.7121 53.8359 38.0381 53.6919C38.3641 53.548 38.7165 53.4736 39.0729 53.4736C39.4292 53.4736 39.7817 53.548 40.1077 53.6919C40.4337 53.8359 40.7261 54.0463 40.9662 54.3096C41.2062 54.573 41.3887 54.8836 41.5019 55.2215C41.6151 55.5594 41.6566 55.9172 41.6237 56.272V61.3737C41.6238 62.0494 41.3569 62.6977 40.8812 63.1775C40.4055 63.6573 39.7595 63.9297 39.0838 63.9355Z" fill="#A5B5F1"/>
<path d="M229.686 63.9355C229.01 63.9297 228.364 63.6573 227.889 63.1775C227.413 62.6977 227.146 62.0494 227.146 61.3737V56.272C227.113 55.9172 227.155 55.5594 227.268 55.2215C227.381 54.8836 227.564 54.573 227.804 54.3096C228.044 54.0463 228.336 53.8359 228.662 53.6919C228.988 53.548 229.341 53.4736 229.697 53.4736C230.053 53.4736 230.406 53.548 230.732 53.6919C231.058 53.8359 231.35 54.0463 231.59 54.3096C231.83 54.573 232.013 54.8836 232.126 55.2215C232.239 55.5594 232.281 55.9172 232.248 56.272V61.3737C232.248 62.0531 231.978 62.7048 231.498 63.1852C231.017 63.6656 230.365 63.9355 229.686 63.9355Z" fill="#A5B5F1"/>
<path d="M237.24 63.9355C236.561 63.9355 235.909 63.6656 235.429 63.1852C234.948 62.7048 234.678 62.0531 234.678 61.3737V56.272C234.645 55.9172 234.687 55.5594 234.8 55.2215C234.913 54.8836 235.096 54.573 235.336 54.3096C235.576 54.0463 235.868 53.8359 236.194 53.6919C236.52 53.548 236.873 53.4736 237.229 53.4736C237.586 53.4736 237.938 53.548 238.264 53.6919C238.59 53.8359 238.882 54.0463 239.122 54.3096C239.363 54.573 239.545 54.8836 239.658 55.2215C239.771 55.5594 239.813 55.9172 239.78 56.272V61.3737C239.78 62.0494 239.513 62.6977 239.037 63.1775C238.562 63.6573 237.916 63.9297 237.24 63.9355Z" fill="#A5B5F1"/>
<path d="M76.7883 63.9353C76.1088 63.9353 75.4573 63.6654 74.9768 63.1849C74.4964 62.7045 74.2264 62.0529 74.2264 61.3735V56.2718C74.2264 55.5923 74.4964 54.9407 74.9768 54.4603C75.4573 53.9799 76.1088 53.71 76.7883 53.71C77.4677 53.71 78.1193 53.9799 78.5997 54.4603C79.0801 54.9407 79.3501 55.5923 79.3501 56.2718V61.3735C79.3444 62.0511 79.0726 62.6994 78.5934 63.1786C78.1142 63.6578 77.4659 63.9295 76.7883 63.9353Z" fill="#A5B5F1"/>
<path d="M182.698 63.9355C182.022 63.9297 181.376 63.6573 180.9 63.1775C180.425 62.6977 180.158 62.0494 180.158 61.3737V56.272C180.125 55.9172 180.167 55.5594 180.28 55.2215C180.393 54.8836 180.575 54.573 180.815 54.3096C181.056 54.0463 181.348 53.8359 181.674 53.6919C182 53.548 182.352 53.4736 182.709 53.4736C183.065 53.4736 183.418 53.548 183.744 53.6919C184.07 53.8359 184.362 54.0463 184.602 54.3096C184.842 54.573 185.025 54.8836 185.138 55.2215C185.251 55.5594 185.293 55.9172 185.26 56.272V61.3737C185.26 62.0531 184.99 62.7048 184.509 63.1852C184.029 63.6656 183.377 63.9355 182.698 63.9355Z" fill="#A5B5F1"/>
<path d="M175.801 61.0017H83.357C82.7763 61.0017 82.2194 60.771 81.8088 60.3604C81.3981 59.9498 81.1674 59.3928 81.1674 58.8121C81.1674 58.2314 81.3981 57.6745 81.8088 57.2639C82.2194 56.8532 82.7763 56.6226 83.357 56.6226H175.801C176.381 56.6226 176.938 56.8532 177.349 57.2639C177.76 57.6745 177.99 58.2314 177.99 58.8121C177.99 59.3928 177.76 59.9498 177.349 60.3604C176.938 60.771 176.381 61.0017 175.801 61.0017Z" fill="#A5B5F1"/>
</g>
<defs>
<clipPath id="clip0_619_506">
<rect width="737.798" height="346.04" fill="white"/>
</clipPath>
</defs>
</svg>
