<svg width="270" height="236" viewBox="0 0 270 236" fill="none" xmlns="http://www.w3.org/2000/svg">
<g clip-path="url(#clip0_483_769)">
<path d="M121.89 235.42C120.993 235.425 120.109 235.205 119.32 234.78L1.17001 166.57C0.852774 166.428 0.578001 166.206 0.372833 165.925C0.167665 165.645 0.0391729 165.315 0 164.97C0.0147401 164.7 0.102543 164.44 0.254028 164.216C0.405514 163.992 0.614966 163.814 0.859985 163.7L71.36 122.99C72.0826 122.66 72.8726 122.504 73.6664 122.535C74.4603 122.567 75.2356 122.784 75.93 123.17L194.08 191.38C194.399 191.523 194.674 191.747 194.879 192.029C195.085 192.312 195.212 192.643 195.25 192.99C195.236 193.259 195.15 193.519 195 193.742C194.851 193.966 194.643 194.145 194.4 194.26L123.89 234.96C123.275 235.285 122.585 235.443 121.89 235.42ZM73.36 122.93C72.7347 122.909 72.1146 123.051 71.56 123.34L1.06 164.04C0.877404 164.123 0.720043 164.252 0.604065 164.416C0.488087 164.579 0.417661 164.77 0.399994 164.97C0.445994 165.246 0.56206 165.506 0.737122 165.725C0.912183 165.944 1.1404 166.114 1.39999 166.22L119.55 234.43C120.183 234.784 120.889 234.984 121.614 235.015C122.338 235.047 123.059 234.908 123.72 234.61L194.22 193.91C194.402 193.83 194.56 193.702 194.676 193.54C194.792 193.379 194.863 193.188 194.88 192.99C194.837 192.711 194.722 192.449 194.546 192.228C194.371 192.007 194.141 191.836 193.88 191.73L75.73 123.52C75.0025 123.126 74.1871 122.923 73.36 122.93Z" fill="#42E8E0"/>
<path d="M195.05 181.19L188.55 180.26L75.83 115.18C75.1669 114.809 74.4258 114.599 73.6666 114.568C72.9074 114.537 72.1515 114.685 71.4601 115L4.33005 153.76L0.200073 153.16V158.65C0.237108 158.956 0.353458 159.247 0.537628 159.495C0.721798 159.742 0.967387 159.937 1.25006 160.06L119.42 228.27C120.083 228.641 120.824 228.851 121.584 228.882C122.343 228.913 123.099 228.765 123.79 228.45L194.28 187.75C194.495 187.65 194.678 187.493 194.809 187.295C194.939 187.097 195.012 186.867 195.02 186.63L195.05 181.19Z" fill="url(#paint0_linear_483_769)"/>
<path d="M1.28004 154.61L119.42 222.87C120.083 223.241 120.824 223.451 121.584 223.482C122.343 223.513 123.099 223.365 123.79 223.05L194.28 182.3C195.4 181.65 195.28 180.52 193.96 179.77L75.83 111.56C75.1669 111.189 74.4257 110.979 73.6665 110.948C72.9073 110.917 72.1514 111.065 71.46 111.38L0.960029 152.08C-0.159971 152.73 -0.0199635 153.87 1.28004 154.61Z" fill="url(#paint1_linear_483_769)"/>
<path opacity="0.3" d="M11.5001 155.94L117.11 216.94C117.702 217.27 118.363 217.458 119.04 217.487C119.717 217.517 120.392 217.387 121.01 217.11L184.01 180.72C185.01 180.14 184.89 179.14 183.73 178.47L78.1301 117.47C77.5364 117.139 76.8733 116.952 76.1941 116.924C75.515 116.897 74.8388 117.029 74.2201 117.31L11.2201 153.69C10.2201 154.27 10.3501 155.28 11.5001 155.94Z" fill="#1A46EE"/>
<path d="M194.28 181.7L123.77 222.41C123.078 222.723 122.322 222.869 121.564 222.838C120.805 222.807 120.064 222.599 119.4 222.23L1.27999 154.01C0.8119 153.778 0.452994 153.373 0.279989 152.88C0.0999893 153.46 0.439989 154.12 1.27999 154.61L119.42 222.87C120.083 223.241 120.824 223.451 121.583 223.482C122.343 223.513 123.099 223.365 123.79 223.05L194.28 182.3C194.542 182.186 194.755 181.982 194.881 181.726C195.007 181.47 195.039 181.177 194.97 180.9C194.852 181.246 194.605 181.533 194.28 181.7Z" fill="white"/>
<path d="M75.62 90.29L90.56 1.67999L89.3501 1.17999L91.16 0.179986C91.378 0.0653288 91.6237 0.0139298 91.8693 0.0316015C92.1149 0.0492732 92.3507 0.135317 92.55 0.279992L211.91 69.17C212.41 69.4888 212.817 69.9342 213.089 70.4611C213.362 70.988 213.489 71.5776 213.46 72.17L198.41 161.48C198.393 161.673 198.326 161.859 198.215 162.018C198.105 162.178 197.955 162.306 197.78 162.39L196.01 163.39L195.71 161.74H195.81L77.1701 93.33C76.666 93.0056 76.257 92.5533 75.9847 92.0192C75.7124 91.4852 75.5866 90.8885 75.62 90.29Z" fill="url(#paint2_linear_483_769)"/>
<path d="M211.28 71.59L213.28 70.72C213.504 71.1791 213.59 71.6929 213.53 72.2L198.48 161.51C198.463 161.703 198.396 161.889 198.285 162.048C198.175 162.208 198.025 162.336 197.85 162.42L196.08 163.42L195.78 161.77H195.88L189.88 158.31L211.28 71.59Z" fill="url(#paint3_linear_483_769)"/>
<path d="M75.2801 94.4L194.64 163.31C195.56 163.85 196.35 163.54 196.51 162.58L211.57 73.27C211.597 72.678 211.469 72.0891 211.197 71.5626C210.924 71.036 210.519 70.5903 210.02 70.27L90.6701 1.33001C89.7501 0.790007 88.96 1.10001 88.8 2.05001L73.8 91.37C73.7578 91.9607 73.8725 92.552 74.1324 93.0841C74.3923 93.6162 74.7882 94.0702 75.2801 94.4Z" fill="url(#paint4_linear_483_769)"/>
<path d="M75.2801 94.4L194.64 163.31C195.56 163.85 196.35 163.54 196.51 162.58L211.57 73.27C211.597 72.678 211.469 72.0891 211.197 71.5626C210.924 71.036 210.519 70.5903 210.02 70.27L90.6701 1.33001C89.7501 0.790007 88.96 1.10001 88.8 2.05001L73.8 91.37C73.7578 91.9607 73.8725 92.552 74.1324 93.0841C74.3923 93.6162 74.7882 94.0702 75.2801 94.4Z" fill="url(#paint5_linear_483_769)"/>
<path d="M75.2801 94.4L194.64 163.31C195.56 163.85 196.35 163.54 196.51 162.58L211.57 73.27C211.597 72.678 211.469 72.0891 211.197 71.5626C210.924 71.036 210.519 70.5903 210.02 70.27L90.6701 1.33001C89.7501 0.790007 88.96 1.10001 88.8 2.05001L73.8 91.37C73.7578 91.9607 73.8725 92.552 74.1324 93.0841C74.3923 93.6162 74.7882 94.0702 75.2801 94.4Z" fill="url(#paint6_linear_483_769)"/>
<path d="M0.280029 136.68L6.79004 140.09L72.11 102.37C72.7846 102.064 73.5216 101.922 74.2615 101.953C75.0014 101.984 75.7236 102.189 76.37 102.55L189.03 167.55C190.11 166.95 195.03 164.55 195.03 164.55L192.65 168.42C192.527 168.742 192.288 169.006 191.98 169.16L123.19 208.88C122.514 209.185 121.776 209.328 121.035 209.299C120.294 209.269 119.57 209.068 118.92 208.71L3.61002 142.22C3.16602 142.02 2.81044 141.664 2.61002 141.22L0.280029 136.68Z" fill="url(#paint7_linear_483_769)"/>
<path d="M1.28004 137.76L119.42 205.97C120.083 206.341 120.824 206.55 121.584 206.582C122.343 206.613 123.099 206.465 123.79 206.15L194.28 165.44C195.4 164.8 195.28 163.67 193.96 162.92L75.83 94.71C75.1669 94.3391 74.4257 94.1295 73.6665 94.0982C72.9073 94.0669 72.1514 94.2149 71.46 94.53L0.960029 135.23C-0.159971 135.87 -0.0199635 137.01 1.28004 137.76Z" fill="url(#paint8_linear_483_769)"/>
<path d="M1.27999 137.23L119.43 205.44C120.093 205.811 120.834 206.02 121.593 206.052C122.353 206.083 123.109 205.935 123.8 205.62L194.28 164.87C194.616 164.701 194.871 164.407 194.99 164.05C195.045 164.322 195.004 164.605 194.874 164.851C194.745 165.097 194.535 165.291 194.28 165.4L123.77 206.11C123.079 206.425 122.323 206.573 121.563 206.542C120.804 206.511 120.063 206.301 119.4 205.93L1.27999 137.76C0.439989 137.27 0.0999893 136.63 0.279989 136.06C0.361142 136.311 0.491285 136.544 0.662924 136.745C0.834562 136.946 1.0443 137.111 1.27999 137.23Z" fill="white"/>
<g opacity="0.8">
<path d="M55.6201 130.2L51.8701 128.04C51.5701 127.86 51.6101 127.56 51.9501 127.36L56.3801 124.8C56.5596 124.701 56.7595 124.646 56.9642 124.637C57.1689 124.628 57.3728 124.667 57.5601 124.75L61.3101 126.92C61.6101 127.09 61.5701 127.4 61.2201 127.6L56.7901 130.15C56.6123 130.249 56.414 130.304 56.211 130.313C56.0079 130.322 55.8056 130.283 55.6201 130.2Z" fill="#2445CD"/>
<path d="M61.41 133.55L57.66 131.38C57.36 131.21 57.4 130.9 57.75 130.7L62.1701 128.15C62.348 128.047 62.5483 127.988 62.7539 127.979C62.9594 127.971 63.164 128.012 63.35 128.1L67.1 130.26C67.4 130.44 67.3601 130.74 67.0101 130.94L62.59 133.5C62.4105 133.599 62.2106 133.654 62.0059 133.663C61.8012 133.672 61.5973 133.633 61.41 133.55Z" fill="#2445CD"/>
<path d="M67.2001 136.87L63.4501 134.7C63.1501 134.53 63.1901 134.23 63.5401 134.03L67.9601 131.47C68.1396 131.371 68.3396 131.315 68.5442 131.307C68.7489 131.298 68.9528 131.337 69.1401 131.42L72.8901 133.59C73.1901 133.76 73.1501 134.06 72.8101 134.26L68.3801 136.87C68.1967 136.961 67.9948 137.008 67.7901 137.008C67.5854 137.008 67.3835 136.961 67.2001 136.87Z" fill="#2445CD"/>
<path d="M75.2201 134.13L71.4601 131.96C71.1601 131.79 71.2001 131.48 71.5501 131.28L75.2701 129.14C75.4479 129.041 75.6461 128.986 75.8492 128.977C76.0523 128.968 76.2546 129.007 76.4401 129.09L80.1901 131.25C80.4901 131.43 80.4501 131.73 80.1101 131.93L76.3901 134.08C76.2123 134.179 76.0141 134.234 75.811 134.243C75.6079 134.252 75.4056 134.213 75.2201 134.13Z" fill="#2445CD"/>
<path d="M81.0101 137.47L77.2801 135.31C76.9801 135.13 77.0101 134.83 77.3601 134.63L81.0801 132.48C81.2578 132.381 81.4561 132.326 81.6592 132.317C81.8622 132.308 82.0646 132.347 82.2501 132.43L86.0001 134.6C86.3001 134.77 86.2701 135.08 85.9201 135.28L82.2001 137.42C82.0207 137.524 81.8186 137.583 81.6113 137.592C81.404 137.601 81.1976 137.559 81.0101 137.47Z" fill="#2445CD"/>
<path d="M86.8 140.87L83.05 138.7C82.75 138.53 82.79 138.22 83.13 138.02L86.85 135.88C87.027 135.779 87.2255 135.722 87.429 135.713C87.6325 135.705 87.8351 135.745 88.02 135.83L91.78 137.99C92.08 138.17 92.04 138.47 91.69 138.67L87.97 140.82C87.7922 140.919 87.594 140.974 87.3909 140.983C87.1878 140.992 86.9855 140.953 86.8 140.87Z" fill="#2445CD"/>
<path d="M92.5901 144.16L88.8401 141.99C88.5401 141.82 88.5801 141.52 88.9301 141.32L92.6401 139.17C92.8196 139.071 93.0196 139.016 93.2243 139.007C93.4289 138.998 93.6329 139.037 93.8201 139.12L97.5701 141.29C97.8701 141.46 97.8301 141.76 97.4801 141.97L93.7701 144.11C93.5905 144.209 93.3906 144.264 93.186 144.273C92.9813 144.282 92.7774 144.243 92.5901 144.16Z" fill="#2445CD"/>
<path d="M98.3801 147.5L94.6301 145.34C94.3301 145.16 94.3701 144.86 94.7201 144.66L98.4301 142.51C98.6129 142.417 98.815 142.368 99.0201 142.368C99.2252 142.368 99.4274 142.417 99.6101 142.51L103.36 144.67C103.66 144.85 103.62 145.15 103.28 145.35L99.5601 147.5C99.3774 147.593 99.1752 147.642 98.9701 147.642C98.7651 147.642 98.5629 147.593 98.3801 147.5Z" fill="#2445CD"/>
<path d="M104.18 150.87L100.43 148.7C100.12 148.53 100.16 148.23 100.51 148.02L104.28 145.87C104.458 145.771 104.656 145.716 104.859 145.707C105.062 145.698 105.264 145.737 105.45 145.82L109.2 147.99C109.5 148.16 109.47 148.46 109.12 148.66L105.4 150.81C105.217 150.918 105.01 150.98 104.797 150.991C104.585 151.001 104.373 150.96 104.18 150.87Z" fill="#2445CD"/>
<path d="M109.97 154.19L106.22 152.03C105.92 151.85 105.95 151.55 106.3 151.35L110.02 149.2C110.198 149.101 110.396 149.046 110.599 149.037C110.802 149.028 111.004 149.067 111.19 149.15L114.94 151.32C115.25 151.49 115.21 151.8 114.86 152L111.14 154.14C110.963 154.241 110.765 154.298 110.561 154.307C110.358 154.315 110.155 154.275 109.97 154.19Z" fill="#2445CD"/>
<path d="M115.76 157.54L112.01 155.37C111.71 155.2 111.75 154.89 112.09 154.69L115.81 152.55C115.989 152.449 116.189 152.392 116.394 152.383C116.599 152.375 116.803 152.415 116.99 152.5L120.74 154.66C121.04 154.84 121 155.14 120.65 155.34L116.94 157.49C116.761 157.589 116.561 157.644 116.356 157.653C116.151 157.662 115.947 157.623 115.76 157.54Z" fill="#2445CD"/>
<path d="M121.55 160.87L117.8 158.71C117.5 158.53 117.54 158.23 117.89 158.03L121.6 155.88C121.78 155.781 121.98 155.726 122.184 155.717C122.389 155.708 122.593 155.747 122.78 155.83L126.53 158C126.83 158.17 126.79 158.48 126.44 158.68L122.73 160.87C122.547 160.961 122.345 161.008 122.14 161.008C121.935 161.008 121.733 160.961 121.55 160.87Z" fill="#2445CD"/>
<path d="M127.35 164.22L123.59 162.06C123.29 161.89 123.33 161.58 123.68 161.38L127.4 159.24C127.576 159.137 127.775 159.078 127.979 159.069C128.183 159.061 128.386 159.102 128.57 159.19L132.32 161.35C132.62 161.53 132.58 161.83 132.24 162.03L128.52 164.18C128.342 164.279 128.143 164.335 127.94 164.342C127.736 164.349 127.534 164.307 127.35 164.22Z" fill="#2445CD"/>
<path d="M83.7501 132.54L80.0001 130.38C79.7001 130.21 79.7401 129.9 80.0801 129.7L83.8001 127.55C83.9811 127.457 84.1816 127.408 84.3851 127.408C84.5886 127.408 84.7891 127.457 84.9701 127.55L88.7301 129.71C89.0301 129.89 88.9901 130.19 88.6401 130.39L84.9201 132.54C84.7391 132.633 84.5386 132.682 84.3351 132.682C84.1316 132.682 83.9311 132.633 83.7501 132.54Z" fill="#2445CD"/>
<path d="M77.8701 129.15L74.1201 126.98C73.8201 126.81 73.8601 126.51 74.2001 126.31L77.9201 124.16C78.1035 124.069 78.3054 124.022 78.5101 124.022C78.7147 124.022 78.9167 124.069 79.1001 124.16L82.8501 126.33C83.1501 126.5 83.1101 126.81 82.7601 127.01L79.0501 129.15C78.8666 129.241 78.6647 129.288 78.4601 129.288C78.2554 129.288 78.0535 129.241 77.8701 129.15Z" fill="#2445CD"/>
<path d="M71.9801 125.75L63.9 121.09C63.6 120.91 63.64 120.61 63.99 120.41L67.71 118.26C67.8917 118.169 68.092 118.122 68.2951 118.122C68.4981 118.122 68.6984 118.169 68.88 118.26L76.96 122.93C77.26 123.1 77.22 123.41 76.87 123.61L73.16 125.75C72.9766 125.841 72.7747 125.888 72.5701 125.888C72.3654 125.888 72.1635 125.841 71.9801 125.75Z" fill="#2445CD"/>
<path d="M76.1 121.62L69.5401 117.87C69.2401 117.7 69.28 117.39 69.63 117.19L73.34 115.05C73.5228 114.957 73.725 114.908 73.93 114.908C74.1351 114.908 74.3373 114.957 74.52 115.05L81.0701 118.83C81.3801 119.01 81.34 119.31 80.99 119.51L77.28 121.57C77.101 121.67 76.901 121.727 76.696 121.736C76.491 121.744 76.2869 121.705 76.1 121.62Z" fill="#2445CD"/>
<path d="M89.5401 135.87L85.7901 133.7C85.4901 133.53 85.53 133.23 85.88 133.02L89.59 130.88C89.7696 130.781 89.9695 130.726 90.1742 130.717C90.3789 130.708 90.5828 130.747 90.77 130.83L94.52 133C94.82 133.17 94.78 133.47 94.43 133.67L90.72 135.87C90.5366 135.961 90.3347 136.008 90.13 136.008C89.9254 136.008 89.7235 135.961 89.5401 135.87Z" fill="#2445CD"/>
<path d="M95.3301 139.23L91.5801 137.07C91.2801 136.89 91.3201 136.59 91.6701 136.39L95.3801 134.24C95.5596 134.141 95.7596 134.085 95.9642 134.077C96.1689 134.068 96.3728 134.107 96.5601 134.19L100.31 136.36C100.61 136.53 100.57 136.84 100.23 137.04L96.5101 139.18C96.3313 139.281 96.1312 139.338 95.9261 139.347C95.721 139.355 95.5167 139.315 95.3301 139.23Z" fill="#2445CD"/>
<path d="M101.13 142.58L97.3801 140.41C97.0701 140.24 97.1101 139.93 97.4601 139.73L101.18 137.59C101.357 137.489 101.556 137.432 101.759 137.423C101.963 137.415 102.165 137.455 102.35 137.54L106.1 139.7C106.4 139.88 106.37 140.18 106.02 140.38L102.28 142.53C102.105 142.625 101.91 142.679 101.711 142.688C101.512 142.697 101.313 142.66 101.13 142.58Z" fill="#2445CD"/>
<path d="M106.92 145.92L103.17 143.76C102.87 143.58 102.9 143.28 103.25 143.08L106.97 140.93C107.148 140.831 107.346 140.776 107.549 140.767C107.752 140.758 107.955 140.797 108.14 140.88L111.89 143.05C112.2 143.22 112.16 143.53 111.81 143.73L108.09 145.87C107.912 145.969 107.714 146.024 107.511 146.033C107.308 146.042 107.106 146.003 106.92 145.92Z" fill="#2445CD"/>
<path d="M112.71 149.27L108.96 147.1C108.66 146.93 108.7 146.62 109.04 146.42L112.76 144.28C112.942 144.185 113.145 144.135 113.35 144.135C113.556 144.135 113.758 144.185 113.94 144.28L117.69 146.44C117.99 146.62 117.95 146.92 117.6 147.12L113.89 149.27C113.707 149.361 113.505 149.408 113.3 149.408C113.095 149.408 112.893 149.361 112.71 149.27Z" fill="#2445CD"/>
<path d="M118.5 152.61L114.75 150.44C114.45 150.27 114.49 149.97 114.84 149.77L118.55 147.62C118.73 147.521 118.929 147.465 119.134 147.457C119.339 147.448 119.543 147.487 119.73 147.57L123.48 149.74C123.78 149.91 123.74 150.21 123.39 150.41L119.68 152.56C119.5 152.659 119.301 152.714 119.096 152.723C118.891 152.732 118.687 152.693 118.5 152.61Z" fill="#2445CD"/>
<path d="M124.28 155.95L120.52 153.79C120.22 153.61 120.26 153.31 120.61 153.11L124.33 150.96C124.511 150.867 124.712 150.818 124.915 150.818C125.119 150.818 125.319 150.867 125.5 150.96L129.25 153.12C129.55 153.29 129.51 153.6 129.17 153.8L125.47 155.87C125.294 155.981 125.093 156.047 124.885 156.061C124.677 156.075 124.469 156.037 124.28 155.95Z" fill="#2445CD"/>
<path d="M130.09 159.3L126.34 157.13C126.04 156.96 126.07 156.65 126.42 156.45L130.14 154.31C130.318 154.211 130.516 154.156 130.719 154.147C130.922 154.138 131.124 154.177 131.31 154.26L135.06 156.42C135.36 156.6 135.33 156.9 134.98 157.1L131.28 159.25C131.1 159.352 130.898 159.409 130.691 159.418C130.484 159.427 130.278 159.386 130.09 159.3Z" fill="#2445CD"/>
<path d="M135.88 162.64L132.13 160.48C131.83 160.3 131.87 160 132.21 159.8L135.93 157.65C136.108 157.551 136.306 157.496 136.509 157.487C136.712 157.478 136.915 157.517 137.1 157.6L140.86 159.77C141.16 159.94 141.12 160.25 140.77 160.45L137.05 162.59C136.873 162.691 136.675 162.748 136.471 162.757C136.268 162.765 136.065 162.725 135.88 162.64Z" fill="#2445CD"/>
<path d="M146.18 168.59L137.99 163.87C137.69 163.7 137.73 163.39 138.08 163.19L141.79 161.05C141.973 160.959 142.175 160.912 142.38 160.912C142.585 160.912 142.787 160.959 142.97 161.05L151.15 165.77C151.45 165.95 151.42 166.25 151.07 166.45L147.35 168.6C147.168 168.689 146.967 168.735 146.764 168.733C146.561 168.731 146.361 168.682 146.18 168.59Z" fill="#2445CD"/>
<path d="M157.45 162.08L150.55 158.08C150.25 157.9 150.28 157.6 150.63 157.4L154.35 155.25C154.531 155.157 154.732 155.108 154.935 155.108C155.139 155.108 155.339 155.157 155.52 155.25L162.43 159.25C162.73 159.43 162.69 159.73 162.35 159.93L158.63 162.08C158.447 162.171 158.245 162.218 158.04 162.218C157.835 162.218 157.634 162.171 157.45 162.08Z" fill="#2445CD"/>
<path d="M99.6901 135.23L95.9301 133.07C95.6301 132.89 95.6701 132.59 96.0201 132.39L99.7401 130.24C99.921 130.147 100.122 130.098 100.325 130.098C100.529 130.098 100.729 130.147 100.91 130.24L104.66 132.4C104.96 132.58 104.92 132.88 104.58 133.08L100.86 135.23C100.679 135.323 100.479 135.371 100.275 135.371C100.072 135.371 99.8711 135.323 99.6901 135.23Z" fill="#2445CD"/>
<path d="M93.7501 131.81L90.0001 129.64C89.7001 129.47 89.73 129.16 90.08 128.96L93.8 126.82C93.981 126.727 94.1816 126.678 94.3851 126.678C94.5885 126.678 94.7891 126.727 94.9701 126.82L98.7201 128.98C99.0301 129.16 98.99 129.46 98.64 129.66L94.9201 131.81C94.7384 131.901 94.5381 131.948 94.335 131.948C94.132 131.948 93.9317 131.901 93.7501 131.81Z" fill="#2445CD"/>
<path d="M87.8101 128.38L84.0601 126.21C83.7601 126.04 83.8001 125.74 84.1501 125.54L87.8601 123.39C88.0396 123.291 88.2395 123.236 88.4442 123.227C88.6489 123.218 88.8528 123.257 89.0401 123.34L92.7901 125.51C93.0901 125.68 93.0501 125.98 92.7001 126.19L88.9901 128.33C88.8105 128.429 88.6106 128.484 88.4059 128.493C88.2012 128.502 87.9973 128.463 87.8101 128.38Z" fill="#2445CD"/>
<path d="M81.8801 124.95L78.1301 122.79C77.8201 122.61 77.8601 122.31 78.2101 122.11L81.9301 119.96C82.1078 119.861 82.3061 119.806 82.5092 119.797C82.7122 119.788 82.9145 119.827 83.1001 119.91L86.8501 122.08C87.1501 122.25 87.1201 122.56 86.7701 122.76L83.0501 124.87C82.8755 124.976 82.6783 125.038 82.4748 125.052C82.2713 125.066 82.0674 125.031 81.8801 124.95Z" fill="#2445CD"/>
<path d="M105.48 138.58L101.73 136.41C101.43 136.24 101.46 135.94 101.81 135.73L105.53 133.59C105.708 133.491 105.906 133.436 106.109 133.427C106.312 133.418 106.515 133.457 106.7 133.54L110.45 135.71C110.75 135.88 110.72 136.18 110.37 136.38L106.65 138.53C106.472 138.629 106.274 138.684 106.071 138.693C105.868 138.702 105.666 138.663 105.48 138.58Z" fill="#2445CD"/>
<path d="M111.28 141.92L107.53 139.76C107.23 139.58 107.27 139.28 107.61 139.08L111.33 136.93C111.508 136.831 111.706 136.776 111.909 136.767C112.112 136.758 112.314 136.797 112.5 136.88L116.26 139.05C116.56 139.22 116.52 139.53 116.17 139.73L112.44 141.87C112.264 141.969 112.068 142.025 111.866 142.034C111.664 142.043 111.464 142.004 111.28 141.92Z" fill="#2445CD"/>
<path d="M117.06 145.27L113.28 143.1C112.98 142.93 113.02 142.62 113.37 142.42L117.08 140.28C117.263 140.187 117.465 140.138 117.67 140.138C117.875 140.138 118.077 140.187 118.26 140.28L122.01 142.44C122.31 142.62 122.27 142.92 121.92 143.12L118.28 145.22C118.095 145.325 117.888 145.385 117.676 145.393C117.464 145.402 117.253 145.36 117.06 145.27Z" fill="#2445CD"/>
<path d="M122.85 148.61L119.1 146.45C118.8 146.27 118.84 145.97 119.19 145.77L122.9 143.62C123.08 143.521 123.28 143.465 123.484 143.457C123.689 143.448 123.893 143.487 124.08 143.57L127.83 145.74C128.13 145.91 128.09 146.22 127.75 146.42L124.03 148.56C123.851 148.659 123.651 148.714 123.446 148.723C123.241 148.732 123.037 148.693 122.85 148.61Z" fill="#2445CD"/>
<path d="M128.65 151.95L124.9 149.79C124.59 149.62 124.63 149.31 124.98 149.11L128.7 146.97C128.88 146.875 129.081 146.825 129.285 146.825C129.489 146.825 129.69 146.875 129.87 146.97L133.62 149.13C133.92 149.31 133.89 149.61 133.54 149.81L129.82 151.87C129.646 151.976 129.448 152.038 129.245 152.052C129.041 152.066 128.837 152.031 128.65 151.95Z" fill="#2445CD"/>
<path d="M134.44 155.3L130.69 153.13C130.39 152.96 130.42 152.66 130.77 152.46L134.49 150.31C134.668 150.211 134.866 150.156 135.069 150.147C135.272 150.138 135.475 150.177 135.66 150.26L139.41 152.43C139.72 152.6 139.68 152.9 139.33 153.1L135.61 155.25C135.432 155.349 135.234 155.404 135.031 155.413C134.828 155.422 134.626 155.383 134.44 155.3Z" fill="#2445CD"/>
<path d="M140.28 158.64L136.53 156.48C136.23 156.3 136.27 156 136.61 155.8L140.33 153.65C140.513 153.557 140.715 153.508 140.92 153.508C141.125 153.508 141.327 153.557 141.51 153.65L145.26 155.81C145.56 155.98 145.52 156.29 145.17 156.49L141.46 158.63C141.279 158.727 141.077 158.779 140.871 158.78C140.666 158.782 140.463 158.734 140.28 158.64Z" fill="#2445CD"/>
<path d="M146.02 161.99L142.28 159.87C141.98 159.7 142.02 159.39 142.37 159.19L146.08 157.05C146.263 156.959 146.465 156.912 146.67 156.912C146.875 156.912 147.077 156.959 147.26 157.05L151.01 159.21C151.31 159.39 151.27 159.69 150.92 159.89L147.21 162.04C147.021 162.125 146.816 162.164 146.609 162.156C146.403 162.147 146.201 162.09 146.02 161.99Z" fill="#2445CD"/>
<path d="M151.82 165.33L148.06 163.17C147.76 162.99 147.8 162.69 148.15 162.49L151.87 160.34C152.048 160.241 152.246 160.186 152.449 160.177C152.652 160.168 152.855 160.207 153.04 160.29L156.79 162.46C157.09 162.63 157.05 162.94 156.71 163.14L152.99 165.28C152.813 165.381 152.615 165.438 152.411 165.447C152.208 165.455 152.005 165.415 151.82 165.33Z" fill="#2445CD"/>
<path d="M96.6401 126.96L92.8801 124.8C92.5801 124.62 92.6201 124.32 92.9701 124.12L96.6901 121.97C96.8718 121.879 97.0721 121.832 97.2751 121.832C97.4782 121.832 97.6784 121.879 97.8601 121.97L101.61 124.14C101.91 124.31 101.87 124.62 101.53 124.82L97.8101 126.87C97.6364 126.977 97.4396 127.041 97.2361 127.057C97.0325 127.073 96.8282 127.039 96.6401 126.96Z" fill="#2445CD"/>
<path d="M90.8701 123.64L87.1201 121.47C86.8201 121.3 86.8601 120.99 87.2101 120.79L90.9201 118.65C91.0981 118.547 91.2984 118.488 91.504 118.479C91.7095 118.471 91.9141 118.512 92.1001 118.6L95.8501 120.76C96.1501 120.94 96.1101 121.24 95.7601 121.44L92.0501 123.59C91.8706 123.689 91.6707 123.744 91.466 123.753C91.2613 123.762 91.0574 123.723 90.8701 123.64Z" fill="#2445CD"/>
<path d="M85.11 120.31L81.36 118.14C81.06 117.97 81.09 117.66 81.44 117.46L85.16 115.32C85.3417 115.229 85.542 115.182 85.745 115.182C85.9481 115.182 86.1483 115.229 86.33 115.32L90.08 117.48C90.39 117.66 90.35 117.96 90 118.16L86.28 120.26C86.1023 120.359 85.904 120.414 85.7009 120.423C85.4979 120.432 85.2956 120.393 85.11 120.31Z" fill="#2445CD"/>
<path d="M79.3501 116.98L75.5901 114.81C75.2901 114.64 75.3301 114.34 75.6801 114.14L79.4001 111.99C79.5779 111.891 79.7761 111.836 79.9792 111.827C80.1823 111.818 80.3846 111.857 80.5701 111.94L84.3201 114.11C84.6201 114.28 84.5801 114.59 84.2401 114.79L80.5201 116.93C80.3423 117.029 80.1441 117.084 79.941 117.093C79.7379 117.102 79.5356 117.063 79.3501 116.98Z" fill="#2445CD"/>
<path d="M85.28 113.56L81.53 111.39C81.23 111.22 81.27 110.92 81.62 110.71L82.84 110.01C83.022 109.915 83.2245 109.865 83.43 109.865C83.6356 109.865 83.838 109.915 84.02 110.01L87.77 112.17C88.07 112.35 88.03 112.65 87.69 112.85L86.46 113.56C86.2766 113.651 86.0747 113.698 85.87 113.698C85.6654 113.698 85.4635 113.651 85.28 113.56Z" fill="#2445CD"/>
<path d="M92.7901 117.87L89.0401 115.71C88.7401 115.53 88.78 115.23 89.13 115.03L90.36 114.32C90.5417 114.229 90.742 114.182 90.9451 114.182C91.1481 114.182 91.3484 114.229 91.53 114.32L95.28 116.48C95.58 116.66 95.5401 116.96 95.2001 117.16L93.97 117.87C93.7866 117.961 93.5847 118.008 93.38 118.008C93.1754 118.008 92.9735 117.961 92.7901 117.87Z" fill="#2445CD"/>
<path d="M98.53 121.21L94.78 119.05C94.48 118.88 94.52 118.57 94.87 118.37L96.09 117.66C96.2735 117.569 96.4754 117.522 96.68 117.522C96.8847 117.522 97.0866 117.569 97.27 117.66L101.02 119.83C101.32 120 101.28 120.31 100.94 120.51L99.71 121.22C99.5265 121.312 99.3239 121.358 99.1188 121.357C98.9138 121.355 98.712 121.305 98.53 121.21Z" fill="#2445CD"/>
<path d="M104.28 124.53L100.53 122.36C100.23 122.19 100.27 121.89 100.62 121.68L101.84 120.98C102.018 120.877 102.218 120.818 102.424 120.809C102.629 120.801 102.834 120.842 103.02 120.93L106.77 123.09C107.07 123.27 107.03 123.57 106.69 123.77L105.46 124.48C105.28 124.579 105.081 124.634 104.876 124.643C104.671 124.652 104.467 124.613 104.28 124.53Z" fill="#2445CD"/>
<path d="M110.01 127.87L106.28 125.68C105.98 125.5 106.02 125.2 106.36 125L107.59 124.29C107.773 124.199 107.975 124.152 108.18 124.152C108.385 124.152 108.587 124.199 108.77 124.29L112.52 126.46C112.82 126.63 112.78 126.93 112.43 127.13L111.21 127.84C111.027 127.941 110.823 127.997 110.614 128.002C110.405 128.007 110.198 127.962 110.01 127.87Z" fill="#2445CD"/>
<path d="M142.05 146.34L138.28 144.18C137.98 144 138.02 143.7 138.37 143.5L139.6 142.79C139.782 142.699 139.982 142.652 140.185 142.652C140.388 142.652 140.588 142.699 140.77 142.79L144.52 144.96C144.82 145.13 144.78 145.43 144.44 145.63L143.21 146.34C143.03 146.43 142.831 146.477 142.63 146.477C142.429 146.477 142.23 146.43 142.05 146.34Z" fill="#2445CD"/>
<path d="M147.79 149.65L144.04 147.49C143.74 147.32 143.78 147.01 144.13 146.81L145.35 146.1C145.533 146.009 145.735 145.962 145.94 145.962C146.145 145.962 146.347 146.009 146.53 146.1L150.28 148.27C150.58 148.44 150.54 148.75 150.2 148.95L148.97 149.66C148.787 149.752 148.584 149.798 148.379 149.797C148.174 149.795 147.972 149.745 147.79 149.65Z" fill="#2445CD"/>
<path d="M153.53 152.97L149.78 150.8C149.48 150.63 149.52 150.33 149.87 150.12L151.09 149.42C151.268 149.317 151.468 149.258 151.674 149.249C151.879 149.241 152.084 149.282 152.27 149.37L156.02 151.53C156.32 151.71 156.28 152.01 155.94 152.21L154.71 152.92C154.53 153.019 154.331 153.074 154.126 153.083C153.921 153.092 153.717 153.053 153.53 152.97Z" fill="#2445CD"/>
<path d="M159.28 156.28L155.53 154.12C155.23 153.94 155.27 153.64 155.62 153.44L156.84 152.73C157.02 152.631 157.219 152.576 157.424 152.567C157.629 152.558 157.833 152.597 158.02 152.68L161.77 154.85C162.07 155.02 162.03 155.32 161.68 155.52L160.46 156.23C160.281 156.331 160.081 156.388 159.876 156.397C159.671 156.405 159.467 156.365 159.28 156.28Z" fill="#2445CD"/>
<path d="M102.43 130.31L98.6801 128.14C98.3801 127.97 98.4101 127.66 98.7601 127.46L102.48 125.32C102.661 125.227 102.862 125.178 103.065 125.178C103.269 125.178 103.469 125.227 103.65 125.32L107.4 127.48C107.7 127.66 107.67 127.96 107.32 128.16L103.6 130.31C103.418 130.401 103.218 130.448 103.015 130.448C102.812 130.448 102.612 130.401 102.43 130.31Z" fill="#2445CD"/>
<path d="M108.22 133.65L104.47 131.49C104.17 131.31 104.21 131.01 104.55 130.81L108.27 128.66C108.452 128.569 108.652 128.522 108.855 128.522C109.058 128.522 109.258 128.569 109.44 128.66L113.2 130.83C113.5 131 113.46 131.31 113.11 131.51L109.39 133.65C109.208 133.741 109.008 133.788 108.805 133.788C108.602 133.788 108.402 133.741 108.22 133.65Z" fill="#2445CD"/>
<path d="M114.01 137L110.28 134.87C109.98 134.7 110.02 134.39 110.37 134.19L114.08 132.05C114.262 131.955 114.465 131.905 114.67 131.905C114.876 131.905 115.078 131.955 115.26 132.05L119.01 134.21C119.31 134.39 119.27 134.69 118.92 134.89L115.21 137.04C115.021 137.128 114.814 137.17 114.605 137.163C114.397 137.156 114.193 137.1 114.01 137Z" fill="#2445CD"/>
<path d="M119.8 140.34L116.05 138.17C115.75 138 115.79 137.7 116.14 137.5L119.85 135.35C120.034 135.259 120.235 135.212 120.44 135.212C120.645 135.212 120.847 135.259 121.03 135.35L124.78 137.52C125.08 137.69 125.04 137.99 124.7 138.19L120.98 140.34C120.797 140.431 120.595 140.478 120.39 140.478C120.185 140.478 119.983 140.431 119.8 140.34Z" fill="#2445CD"/>
<path d="M125.6 143.68L121.85 141.52C121.54 141.34 121.58 141.04 121.93 140.84L125.65 138.69C125.831 138.597 126.032 138.548 126.235 138.548C126.439 138.548 126.639 138.597 126.82 138.69L130.57 140.85C130.87 141.02 130.84 141.33 130.49 141.53L126.77 143.67C126.591 143.767 126.39 143.819 126.186 143.82C125.982 143.822 125.781 143.774 125.6 143.68Z" fill="#2445CD"/>
<path d="M131.39 147.03L127.64 144.87C127.34 144.7 127.37 144.39 127.72 144.19L131.44 142.05C131.622 141.959 131.822 141.912 132.025 141.912C132.228 141.912 132.428 141.959 132.61 142.05L136.36 144.21C136.67 144.39 136.63 144.69 136.28 144.89L132.56 147.04C132.378 147.129 132.177 147.175 131.974 147.173C131.771 147.171 131.571 147.122 131.39 147.03Z" fill="#2445CD"/>
<path d="M137.18 150.37L133.43 148.21C133.13 148.03 133.17 147.73 133.51 147.53L137.23 145.38C137.414 145.289 137.615 145.242 137.82 145.242C138.025 145.242 138.227 145.289 138.41 145.38L142.16 147.55C142.46 147.72 142.42 148.03 142.07 148.23L138.36 150.37C138.177 150.463 137.975 150.512 137.77 150.512C137.565 150.512 137.363 150.463 137.18 150.37Z" fill="#2445CD"/>
<path d="M142.97 153.72L139.22 151.55C138.92 151.38 138.96 151.07 139.31 150.87L143.02 148.73C143.199 148.629 143.399 148.572 143.604 148.563C143.809 148.555 144.013 148.595 144.2 148.68L147.95 150.84C148.25 151.02 148.21 151.32 147.86 151.52L144.15 153.67C143.971 153.769 143.771 153.824 143.566 153.833C143.361 153.842 143.157 153.803 142.97 153.72Z" fill="#2445CD"/>
<path d="M148.77 157.06L145.01 154.87C144.71 154.7 144.75 154.4 145.1 154.2L148.82 152.05C149.002 151.959 149.202 151.912 149.405 151.912C149.608 151.912 149.808 151.959 149.99 152.05L153.74 154.22C154.04 154.39 154 154.69 153.66 154.9L149.94 157.04C149.76 157.134 149.56 157.184 149.357 157.188C149.154 157.191 148.953 157.148 148.77 157.06Z" fill="#2445CD"/>
<path d="M69.2801 130.72L58.2801 124.34C57.9801 124.17 58.0101 123.86 58.3601 123.66L62.0801 121.52C62.2578 121.421 62.4561 121.366 62.6592 121.357C62.8622 121.348 63.0646 121.387 63.2501 121.47L74.2801 127.87C74.5801 128.04 74.5401 128.34 74.1901 128.55L70.4801 130.69C70.2964 130.789 70.0921 130.843 69.8837 130.848C69.6752 130.853 69.4685 130.809 69.2801 130.72Z" fill="#2445CD"/>
<path d="M140.47 171.8L129.47 165.43C129.16 165.25 129.2 164.95 129.55 164.75L133.27 162.6C133.452 162.509 133.652 162.462 133.855 162.462C134.058 162.462 134.258 162.509 134.44 162.6L145.49 168.98C145.79 169.15 145.75 169.46 145.4 169.66L141.69 171.8C141.503 171.902 141.293 171.956 141.08 171.956C140.867 171.956 140.657 171.902 140.47 171.8Z" fill="#2445CD"/>
<path d="M117.28 165.87L113.53 163.7C113.23 163.53 113.26 163.22 113.61 163.02L118.04 160.47C118.217 160.369 118.416 160.312 118.619 160.303C118.823 160.295 119.025 160.335 119.21 160.42L122.96 162.58C123.27 162.76 123.23 163.06 122.88 163.26L118.45 165.82C118.272 165.919 118.074 165.974 117.871 165.983C117.668 165.992 117.466 165.953 117.28 165.87Z" fill="#2445CD"/>
<path d="M75.2801 141.53L69.2801 138.07C68.9701 137.89 69.0101 137.59 69.3601 137.39L73.7901 134.83C73.9679 134.731 74.1661 134.676 74.3692 134.667C74.5723 134.658 74.7746 134.697 74.9601 134.78L80.9601 138.25C81.2601 138.42 81.2201 138.73 80.8801 138.93L76.4501 141.48C76.2726 141.579 76.0743 141.636 75.871 141.644C75.6678 141.653 75.4654 141.614 75.2801 141.53Z" fill="#2445CD"/>
<path d="M111.73 162.59L105.73 159.13C105.43 158.96 105.46 158.65 105.81 158.45L110.28 155.87C110.457 155.769 110.655 155.712 110.859 155.703C111.062 155.695 111.265 155.735 111.45 155.82L117.45 159.28C117.75 159.46 117.72 159.76 117.37 159.96L112.94 162.52C112.76 162.631 112.555 162.695 112.344 162.707C112.133 162.719 111.922 162.679 111.73 162.59Z" fill="#2445CD"/>
<path d="M83.6001 146.36L77.6001 142.89C77.3001 142.72 77.3401 142.42 77.6901 142.21L82.1101 139.66C82.2935 139.569 82.4954 139.522 82.7001 139.522C82.9048 139.522 83.1067 139.569 83.2901 139.66L89.2901 143.12C89.5901 143.3 89.5501 143.6 89.2001 143.8L84.7801 146.36C84.5967 146.451 84.3948 146.498 84.1901 146.498C83.9854 146.498 83.7835 146.451 83.6001 146.36Z" fill="#2445CD"/>
<path d="M83.33 139.63L109.41 154.69C109.481 154.715 109.542 154.76 109.585 154.821C109.628 154.882 109.652 154.955 109.652 155.03C109.652 155.105 109.628 155.178 109.585 155.239C109.542 155.299 109.481 155.345 109.41 155.37L104.89 157.97C104.709 158.064 104.509 158.113 104.305 158.113C104.101 158.113 103.901 158.064 103.72 157.97L77.64 142.97L83.33 139.63Z" fill="#2445CD"/>
<path d="M133.5 171.87L137.67 174.28C137.92 174.42 137.89 174.67 137.6 174.84L135.79 175.84C135.638 175.928 135.466 175.974 135.29 175.974C135.115 175.974 134.942 175.928 134.79 175.84L130.61 173.43C130.37 173.29 130.4 173.04 130.68 172.88L132.49 171.88C132.646 171.799 132.818 171.755 132.994 171.753C133.169 171.752 133.343 171.792 133.5 171.87Z" fill="#2445CD"/>
<path d="M127.66 168.51L131.83 170.92C132.08 171.06 132.05 171.31 131.76 171.48L129.95 172.48C129.797 172.563 129.625 172.607 129.45 172.607C129.275 172.607 129.104 172.563 128.95 172.48L124.77 170.07C124.53 169.93 124.56 169.68 124.84 169.51L126.65 168.51C126.806 168.428 126.979 168.385 127.155 168.385C127.331 168.385 127.504 168.428 127.66 168.51Z" fill="#2445CD"/>
<path d="M121.86 165.16L126.04 167.58C126.29 167.72 126.26 167.97 125.97 168.13L124.16 169.18C124.005 169.26 123.834 169.301 123.66 169.301C123.486 169.301 123.315 169.26 123.16 169.18L118.98 166.77C118.73 166.62 118.76 166.37 119.05 166.21L120.86 165.21C121.011 165.122 121.18 165.072 121.354 165.063C121.528 165.055 121.701 165.088 121.86 165.16Z" fill="#2445CD"/>
<path d="M130.85 166.66L135.03 169.07C135.28 169.22 135.25 169.46 134.96 169.63L133.15 170.63C132.998 170.718 132.826 170.764 132.65 170.764C132.475 170.764 132.302 170.718 132.15 170.63L127.97 168.22C127.72 168.08 127.76 167.83 128.04 167.67L129.85 166.67C130.004 166.589 130.175 166.545 130.349 166.544C130.523 166.542 130.695 166.582 130.85 166.66Z" fill="#2445CD"/>
</g>
<path d="M85.87 81.36V118.29C85.9049 118.747 86.0614 119.187 86.3234 119.563C86.5854 119.939 86.9433 120.239 87.36 120.43L118.04 138.14C120.25 139.42 124.11 139.26 126.66 137.79C128.09 136.96 128.8 135.9 128.76 134.9V97.96L85.87 81.36Z" fill="url(#paint9_linear_483_769)"/>
<path opacity="0.3" d="M120.34 138.87C122.509 139.199 124.726 138.816 126.66 137.78C128.09 136.95 128.8 135.89 128.76 134.89V97.96L120.49 94.76H120.34V138.87Z" fill="#1A46EE"/>
<path d="M118.04 101.22L87.36 83.5C85.15 82.23 85.42 80 87.98 78.5C90.53 77.02 94.38 76.86 96.59 78.14L127.28 95.87C129.48 97.15 129.21 99.38 126.66 100.87C124.11 102.33 120.28 102.49 118.04 101.22Z" fill="url(#paint10_linear_483_769)"/>
<path opacity="0.5" d="M118.04 152.69L87.36 134.97C85.15 133.7 85.42 131.47 87.98 129.97C90.53 128.5 94.38 128.34 96.59 129.61L127.28 147.36C129.48 148.63 129.21 150.86 126.66 152.36C124.11 153.8 120.28 153.96 118.04 152.69Z" fill="#1A46EE"/>
<path d="M121.1 98.87C120.752 98.87 120.407 98.8014 120.086 98.6683C119.764 98.5351 119.472 98.3399 119.226 98.0938C118.98 97.8477 118.785 97.5556 118.652 97.2341C118.519 96.9126 118.45 96.568 118.45 96.22V79.78C118.45 74.19 114.36 67.09 109.51 64.3L102.51 60.23C100.65 59.16 98.97 58.9 97.9 59.51C96.83 60.12 96.22 61.71 96.22 63.86V80.27C96.22 80.9728 95.9408 81.6469 95.4438 82.1438C94.9469 82.6408 94.2729 82.92 93.57 82.92C92.8672 82.92 92.1932 82.6408 91.6962 82.1438C91.1992 81.6469 90.92 80.9728 90.92 80.27V63.87C90.92 59.72 92.46 56.54 95.25 54.93C98.04 53.32 101.56 53.57 105.16 55.65L112.16 59.71C118.66 63.47 123.75 72.29 123.75 79.79V96.2C123.753 96.5497 123.686 96.8964 123.554 97.2202C123.422 97.5441 123.227 97.8386 122.981 98.0868C122.735 98.335 122.442 98.532 122.119 98.6664C121.796 98.8008 121.45 98.87 121.1 98.87Z" fill="url(#paint11_linear_483_769)"/>
</g>
<defs>
<linearGradient id="paint0_linear_483_769" x1="191.39" y1="171.73" x2="-3.45993" y2="171.73" gradientUnits="userSpaceOnUse">
<stop stop-color="#5761D7"/>
<stop offset="0.18" stop-color="#5C66D9"/>
<stop offset="0.39" stop-color="#6A73DF"/>
<stop offset="0.61" stop-color="#8289E8"/>
<stop offset="0.85" stop-color="#A3A7F5"/>
<stop offset="1" stop-color="#BCBEFF"/>
</linearGradient>
<linearGradient id="paint1_linear_483_769" x1="129.58" y1="167.19" x2="-65.27" y2="167.19" gradientUnits="userSpaceOnUse">
<stop stop-color="#C0BFF6"/>
<stop offset="0.29" stop-color="#C5C4F7"/>
<stop offset="0.64" stop-color="#D3D2F9"/>
<stop offset="1" stop-color="#E9E9FD"/>
</linearGradient>
<linearGradient id="paint2_linear_483_769" x1="213.49" y1="81.72" x2="75.6" y2="81.72" gradientUnits="userSpaceOnUse">
<stop stop-color="#C0BFF6"/>
<stop offset="0.29" stop-color="#C5C4F7"/>
<stop offset="0.64" stop-color="#D3D2F9"/>
<stop offset="1" stop-color="#E9E9FD"/>
</linearGradient>
<linearGradient id="paint3_linear_483_769" x1="213.49" y1="117.08" x2="189.81" y2="117.08" gradientUnits="userSpaceOnUse">
<stop stop-color="#5761D7"/>
<stop offset="0.18" stop-color="#5C66D9"/>
<stop offset="0.39" stop-color="#6A73DF"/>
<stop offset="0.61" stop-color="#8289E8"/>
<stop offset="0.85" stop-color="#A3A7F5"/>
<stop offset="1" stop-color="#BCBEFF"/>
</linearGradient>
<linearGradient id="paint4_linear_483_769" x1="142.683" y1="1.06555" x2="142.683" y2="163.574" gradientUnits="userSpaceOnUse">
<stop stop-color="#AAB7F0"/>
<stop offset="0.545" stop-color="#62698A"/>
</linearGradient>
<linearGradient id="paint5_linear_483_769" x1="142.683" y1="1.06555" x2="142.683" y2="163.574" gradientUnits="userSpaceOnUse">
<stop stop-color="#AAB7F0"/>
<stop offset="0.845" stop-color="#395AE4"/>
<stop offset="1" stop-color="#7289EA"/>
</linearGradient>
<linearGradient id="paint6_linear_483_769" x1="142.683" y1="1.06555" x2="142.683" y2="163.574" gradientUnits="userSpaceOnUse">
<stop stop-color="#AAB7F0"/>
<stop offset="0.57" stop-color="#7289EA"/>
<stop offset="0.9999" stop-color="#395AE4"/>
<stop offset="1" stop-color="#7289EA"/>
</linearGradient>
<linearGradient id="paint7_linear_483_769" x1="195.01" y1="155.66" x2="0.270024" y2="155.66" gradientUnits="userSpaceOnUse">
<stop stop-color="#5761D7"/>
<stop offset="0.18" stop-color="#5C66D9"/>
<stop offset="0.39" stop-color="#6A73DF"/>
<stop offset="0.61" stop-color="#8289E8"/>
<stop offset="0.85" stop-color="#A3A7F5"/>
<stop offset="1" stop-color="#BCBEFF"/>
</linearGradient>
<linearGradient id="paint8_linear_483_769" x1="129.58" y1="150.34" x2="-65.27" y2="150.34" gradientUnits="userSpaceOnUse">
<stop stop-color="#C0BFF6"/>
<stop offset="0.29" stop-color="#C5C4F7"/>
<stop offset="0.64" stop-color="#D3D2F9"/>
<stop offset="1" stop-color="#E9E9FD"/>
</linearGradient>
<linearGradient id="paint9_linear_483_769" x1="91.24" y1="110.18" x2="134.14" y2="110.18" gradientUnits="userSpaceOnUse">
<stop stop-color="#BCBEFF"/>
<stop offset="0.14" stop-color="#B4B7FC"/>
<stop offset="0.37" stop-color="#9EA2F3"/>
<stop offset="0.65" stop-color="#7A81E5"/>
<stop offset="0.87" stop-color="#5761D7"/>
</linearGradient>
<linearGradient id="paint10_linear_483_769" x1="46.03" y1="89.69" x2="151.89" y2="89.69" gradientUnits="userSpaceOnUse">
<stop stop-color="#E9E9FD"/>
<stop offset="0.36" stop-color="#D3D2F9"/>
<stop offset="0.71" stop-color="#C5C4F7"/>
<stop offset="1" stop-color="#C0BFF6"/>
</linearGradient>
<linearGradient id="paint11_linear_483_769" x1="75.2801" y1="70.32" x2="151.95" y2="83.49" gradientUnits="userSpaceOnUse">
<stop stop-color="#BCBEFF"/>
<stop offset="0.14" stop-color="#B4B7FC"/>
<stop offset="0.37" stop-color="#9EA2F3"/>
<stop offset="0.65" stop-color="#7A81E5"/>
<stop offset="0.87" stop-color="#5761D7"/>
</linearGradient>
<clipPath id="clip0_483_769">
<rect width="269.18" height="235.42" fill="white"/>
</clipPath>
</defs>
</svg>
