<svg width="440" height="674" viewBox="0 0 440 674" fill="none" xmlns="http://www.w3.org/2000/svg">
<g clip-path="url(#clip0_619_1446)">
<path d="M13.2747 104.446C14.6279 103.256 16.0963 102.203 17.6582 101.303L188.864 2.41992L203.937 11.1893L32.7317 110.051C31.1774 110.971 29.7101 112.03 28.3482 113.216C25.3659 115.87 22.8007 118.959 20.739 122.378L5.66553 113.63C7.72002 110.199 10.2859 107.102 13.2747 104.446Z" fill="#F4F4FA"/>
<path d="M32.7317 110.051L17.6582 101.22C7.85729 106.866 -0.0413144 120.558 3.95758e-05 131.809L15.0736 140.558C15.0322 129.41 22.9515 115.697 32.7317 110.051Z" fill="#F4F4FA"/>
<path d="M208.693 471.229L205.26 476.007C215.061 470.34 222.96 456.648 222.919 445.417L220.458 450.754C220.254 454.854 219.081 458.847 217.036 462.406C214.991 465.965 212.132 468.989 208.693 471.229Z" fill="#BFBEED"/>
<path d="M37.4873 570.091L34.0549 574.869L205.26 476.007L208.693 471.229L37.4873 570.091Z" fill="#BFBEED"/>
<path d="M25.8256 565.604L16.5416 568.127C16.718 569.637 17.1994 571.097 17.9564 572.416C18.7135 573.735 19.7305 574.886 20.9458 575.8L28.7617 570.712C27.9488 570.107 27.2688 569.341 26.7637 568.463C26.2587 567.584 25.9394 566.611 25.8256 565.604Z" fill="#F4F4FA"/>
<path d="M28.7617 570.712L20.9458 575.8C24.2128 577.992 28.8651 577.868 34.0343 574.869L37.4874 570.092C34.0343 572.098 30.9328 572.18 28.7617 570.712Z" fill="#BFBEED"/>
<path d="M6.36847 567.341L21.442 576.11C18.2578 574.249 16.2934 570.319 16.2728 564.735L1.19922 555.965C1.2199 561.57 3.18421 565.5 6.36847 567.341Z" fill="#BFBEED"/>
<mask id="mask0_619_1446" style="mask-type:luminance" maskUnits="userSpaceOnUse" x="1" y="555" width="21" height="22">
<path d="M6.36847 567.341L21.442 576.11C18.2578 574.249 16.2934 570.319 16.2728 564.735L1.19922 555.965C1.2199 561.57 3.18421 565.5 6.36847 567.341Z" fill="white"/>
</mask>
<g mask="url(#mask0_619_1446)">
<path d="M16.2728 564.735L1.19922 555.965C1.19922 561.57 3.26692 565.5 6.36847 567.341L21.442 576.11C18.2578 574.249 16.2934 570.319 16.2728 564.735Z" fill="#BFBEED"/>
</g>
<path d="M220.458 450.836L222.919 445.418L221.719 21.3237L219.259 26.7425L220.458 450.836Z" fill="#BFBEED"/>
<path d="M219.259 26.7634L221.802 21.3239C221.815 19.6995 221.62 18.0801 221.223 16.5049L218.969 23.5369C219.203 24.5957 219.3 25.6799 219.259 26.7634Z" fill="#BFBEED"/>
<path d="M218.866 23.5369L221.12 16.5049C220.825 15.0608 220.214 13.7 219.331 12.52C218.448 11.34 217.315 10.37 216.013 9.67969L215.454 18.9661C216.323 19.4312 217.079 20.0817 217.669 20.8716C218.259 21.6615 218.667 22.5714 218.866 23.5369Z" fill="#F4F4FA"/>
<path d="M215.454 18.966L216.013 9.67953C213.47 8.54504 210.587 8.44124 207.969 9.38997L210.037 18.7798C211.799 18.1397 213.74 18.2064 215.454 18.966Z" fill="#F4F4FA"/>
<path d="M210.099 18.78L208.031 9.39014C206.625 9.83937 205.273 10.4428 203.999 11.1895L207.328 19.9796C208.203 19.4745 209.132 19.0719 210.099 18.78Z" fill="#F4F4FA"/>
<path d="M216.53 9.94827L201.456 1.19958C198.23 -0.682524 193.785 -0.413652 188.864 2.41985L203.937 11.1892C208.858 8.35571 213.325 8.14889 216.53 9.94827Z" fill="#F4F4FA"/>
<mask id="mask1_619_1446" style="mask-type:luminance" maskUnits="userSpaceOnUse" x="188" y="-1" width="29" height="13">
<path d="M216.53 9.94827L201.456 1.19958C198.23 -0.682524 193.785 -0.413652 188.864 2.41985L203.937 11.1892C208.858 8.35571 213.325 8.14889 216.53 9.94827Z" fill="white"/>
</mask>
<g mask="url(#mask1_619_1446)">
<path d="M216.53 9.94846L201.456 1.19977C199.305 0.0200551 196.792 -0.318966 194.405 0.248378L209.396 8.99707C211.81 8.41843 214.352 8.75751 216.53 9.94846Z" fill="#F4F4FA"/>
<path d="M209.396 8.99722L194.322 0.248535C192.373 0.625184 190.5 1.32418 188.781 2.31678L203.855 11.0861C205.578 10.0984 207.449 9.3932 209.396 8.99722Z" fill="#F4F4FA"/>
</g>
<path d="M24.4402 139.255L25.6395 563.349C25.6363 564.104 25.6986 564.858 25.8255 565.603L16.5416 568.126C16.3633 567.004 16.2734 565.87 16.2728 564.734L15.0735 140.744L24.4402 139.255Z" fill="#F4F4FA"/>
<path d="M15.0735 140.661L0 131.892L1.19927 555.986L16.2728 564.735L15.0735 140.661Z" fill="#BFBEED"/>
<path d="M207.411 20.0002L203.937 11.1895L32.7317 110.072L36.2054 118.862L207.411 20.0002Z" fill="#F4F4FA"/>
<path d="M36.2054 118.862C32.7739 121.091 29.9187 124.101 27.8738 127.645C25.8288 131.19 24.6522 135.168 24.4402 139.255L25.6395 563.349C25.6395 570.836 30.9741 573.856 37.4874 570.092L208.693 471.229C212.121 468.997 214.973 465.987 217.018 462.443C219.062 458.899 220.241 454.922 220.458 450.837L219.259 26.8461C219.259 19.359 213.924 16.3187 207.411 20.0829L36.2054 118.862Z" fill="#F4F4FA"/>
<path d="M36.2054 118.862L32.7317 110.051C25.0605 114.498 18.5472 123.846 16.1901 133.112L25.2052 134.229C26.8424 127.921 30.7623 122.445 36.2054 118.862Z" fill="#F4F4FA"/>
<path d="M25.1225 134.312L16.1073 133.195C15.4389 135.649 15.0914 138.18 15.0735 140.723L24.4402 139.338C24.4373 137.639 24.6669 135.948 25.1225 134.312Z" fill="#F4F4FA"/>
<path d="M20.739 122.378L5.66545 113.629C3.24847 117.553 1.5211 121.863 0.558228 126.37L15.6318 135.139C16.5849 130.622 18.3128 126.305 20.739 122.378Z" fill="#F4F4FA"/>
<path d="M15.6318 135.118L0.55824 126.349C0.182236 128.173 -0.00483864 130.03 -3.17502e-05 131.892L15.0735 140.641C15.08 138.786 15.267 136.937 15.6318 135.118Z" fill="#BFBEED"/>
<path d="M25.2466 550.195C25.169 552.112 25.6349 554.012 26.5905 555.676C28.6582 558.902 32.5248 559.585 37.0945 556.958C37.0945 556.958 210.037 456.958 210.781 456.276C213.497 453.96 215.714 451.115 217.296 447.915C218.878 444.715 219.792 441.226 219.983 437.662L218.845 26.7631C218.845 19.276 213.531 16.2357 207.018 19.9999L35.8125 118.883C30.4304 122.385 26.5229 127.744 24.833 133.94C24.5256 134.988 24.3043 136.061 24.1713 137.145C24.068 137.807 25.2466 550.195 25.2466 550.195Z" fill="#A5B5F1"/>
<path d="M86.0577 114.271L158.841 72.2645C163.363 69.3471 166.75 64.9672 168.435 59.855L176.313 36.6079L68.627 98.8001L76.4636 112.885C78.2418 116.091 81.9636 116.628 86.0577 114.271Z" fill="#F4F4FA"/>
<path d="M94.0803 96.6701C93.8652 99.4227 93.0042 102.086 91.5671 104.443C90.13 106.801 88.1574 108.786 85.8095 110.238C84.8113 110.824 83.6793 111.145 82.5218 111.168C81.7471 111.153 81.0075 110.842 80.4541 110.3C79.9676 109.736 79.6027 109.077 79.3821 108.365C79.1615 107.653 79.0901 106.904 79.1722 106.163C79.3839 103.413 80.2437 100.751 81.6813 98.3964C83.1188 96.0418 85.0932 94.0611 87.443 92.6163C88.4328 92.0278 89.5587 91.7071 90.71 91.6856C91.1603 91.6837 91.6054 91.7826 92.0126 91.9751C92.7893 92.4589 93.4022 93.1657 93.771 94.0033C94.1399 94.8409 94.2477 95.7703 94.0803 96.6701Z" fill="#F4F4FA"/>
<path d="M93.2326 96.1116C93.0208 98.8624 92.161 101.524 90.7234 103.879C89.2859 106.233 87.3115 108.214 84.9618 109.659C83.9719 110.247 82.8461 110.568 81.6948 110.589C81.2456 110.581 80.8025 110.483 80.3921 110.3C79.9056 109.736 79.5407 109.077 79.3201 108.365C79.0995 107.653 79.028 106.904 79.1102 106.163C79.3219 103.413 80.1817 100.751 81.6193 98.3964C83.0568 96.0418 85.0312 94.0611 87.381 92.6163C88.3708 92.0278 89.4967 91.7071 90.6479 91.6856C91.0983 91.6837 91.5434 91.7826 91.9506 91.9751C92.4371 92.5394 92.8021 93.198 93.0227 93.9097C93.2432 94.6214 93.3147 95.371 93.2326 96.1116Z" fill="#BFBEED"/>
<path d="M81.6948 109.886C81.3839 109.871 81.0771 109.808 80.785 109.7C80.0263 108.702 79.6719 107.453 79.7925 106.205C80.0037 103.576 80.8306 101.035 82.2065 98.7853C83.5823 96.536 85.4683 94.6423 87.7118 93.2577C88.5944 92.7286 89.5987 92.4365 90.6273 92.4097C90.9394 92.4153 91.2478 92.4784 91.5371 92.5958C92.2903 93.5972 92.6441 94.8432 92.5295 96.0911C92.3168 98.7192 91.4892 101.26 90.1135 103.509C88.7378 105.758 86.8527 107.652 84.6102 109.038C83.7237 109.558 82.7219 109.85 81.6948 109.886Z" fill="#3A2C99"/>
<path d="M87.2362 95.6153C87.2134 95.942 87.1135 96.2585 86.9445 96.539C86.7755 96.8195 86.5424 97.0558 86.2643 97.2285C85.7267 97.5181 85.3132 97.2286 85.3339 96.6701C85.3566 96.3435 85.4566 96.0269 85.6255 95.7464C85.7945 95.466 86.0276 95.2296 86.3057 95.0569C86.8433 94.7673 87.2568 95.0155 87.2362 95.6153Z" fill="#3A2C99"/>
<path d="M84.9204 97.0835C85.0172 97.3716 85.0317 97.6811 84.9623 97.977C84.8929 98.273 84.7423 98.5437 84.5275 98.7587C84.052 99.2965 83.473 99.4413 83.2249 99.069C83.1205 98.7818 83.102 98.4704 83.1718 98.1728C83.2416 97.8753 83.3965 97.6045 83.6177 97.3937C84.0726 96.7732 84.6723 96.6285 84.9204 97.0835Z" fill="#3A2C99"/>
<path d="M82.9147 99.5034C83.3696 99.5034 83.5143 100.145 83.2248 100.806C82.9354 101.468 82.3564 101.965 81.9222 101.923C81.488 101.882 81.3226 101.282 81.5914 100.62C81.8602 99.9584 82.4598 99.462 82.9147 99.5034Z" fill="#3A2C99"/>
<path d="M81.7982 102.44C82.3151 102.151 82.7287 102.44 82.7287 103.019C82.7036 103.348 82.6005 103.666 82.4279 103.946C82.2552 104.227 82.0181 104.462 81.7361 104.633C81.1985 104.922 80.785 104.633 80.8057 104.053C80.8307 103.725 80.9338 103.407 81.1064 103.127C81.2791 102.846 81.5162 102.611 81.7982 102.44Z" fill="#3A2C99"/>
<path d="M81.8395 105.046C82.2944 104.488 82.8734 104.343 83.1422 104.715C83.2407 105.007 83.2562 105.32 83.1868 105.619C83.1174 105.919 82.9659 106.193 82.7493 106.411C82.2738 106.949 81.6948 107.094 81.4467 106.722C81.3423 106.434 81.3238 106.123 81.3936 105.825C81.4634 105.528 81.6183 105.257 81.8395 105.046Z" fill="#3A2C99"/>
<path d="M83.0388 106.577C83.3076 105.915 83.9073 105.419 84.3622 105.481C84.8171 105.543 84.9411 106.101 84.6723 106.763C84.4035 107.425 83.8039 107.942 83.349 107.88C82.8941 107.818 82.77 107.26 83.0388 106.577Z" fill="#3A2C99"/>
<path d="M85.0858 106.68C85.1086 106.354 85.2085 106.037 85.3775 105.757C85.5464 105.476 85.7796 105.24 86.0576 105.067C86.5952 104.778 87.0088 105.067 86.9881 105.626C86.9654 105.952 86.8654 106.269 86.6964 106.549C86.5275 106.83 86.2944 107.066 86.0163 107.239C85.4787 107.528 85.0651 107.28 85.0858 106.68Z" fill="#3A2C99"/>
<path d="M87.4016 105.357C87.3048 105.068 87.2903 104.759 87.3597 104.463C87.4291 104.167 87.5797 103.896 87.7945 103.681C88.27 103.123 88.849 102.999 89.0971 103.371C89.2016 103.658 89.22 103.97 89.1502 104.267C89.0805 104.565 88.9255 104.835 88.7043 105.046C88.2287 105.522 87.6497 105.667 87.4016 105.357Z" fill="#3A2C99"/>
<path d="M89.4694 102.771C89.0145 102.771 88.8697 102.151 89.1592 101.489C89.4487 100.827 90.0276 100.31 90.4619 100.372C90.8961 100.434 91.0615 101.013 90.772 101.675C90.4825 102.337 89.8622 102.833 89.4694 102.771Z" fill="#3A2C99"/>
<path d="M90.5238 99.8345C90.0069 100.124 89.5727 99.8345 89.5934 99.2761C89.6184 98.9475 89.7215 98.6297 89.8941 98.3491C90.0668 98.0685 90.3039 97.8332 90.5858 97.6628C91.1234 97.3733 91.537 97.6628 91.5163 98.2213C91.4913 98.5498 91.3882 98.8676 91.2156 99.1482C91.0429 99.4288 90.8058 99.6641 90.5238 99.8345Z" fill="#3A2C99"/>
<path d="M90.4826 97.2492C90.0277 97.8076 89.428 97.9524 89.1799 97.5595C89.0831 97.2713 89.0686 96.9618 89.138 96.6659C89.2074 96.3699 89.358 96.0992 89.5728 95.8842C90.0484 95.3464 90.6273 95.2016 90.8754 95.5739C90.9798 95.8611 90.9983 96.1726 90.9285 96.4701C90.8588 96.7677 90.7038 97.0384 90.4826 97.2492Z" fill="#3A2C99"/>
<path d="M89.2833 95.7186C89.0145 96.3804 88.4149 96.8768 87.96 96.8148C87.5051 96.7527 87.381 96.1943 87.6498 95.5118C87.9186 94.8292 88.5182 94.3535 88.9731 94.4156C89.428 94.4776 89.4694 95.0154 89.2833 95.7186Z" fill="#3A2C99"/>
<path d="M88.3941 99.9174C88.3401 100.685 88.1037 101.429 87.7045 102.088C87.3053 102.746 86.7549 103.299 86.099 103.702C84.8583 104.364 83.8866 103.702 83.9279 102.358C83.9851 101.593 84.223 100.854 84.622 100.199C85.021 99.5447 85.5698 98.9945 86.223 98.5937C87.4016 97.9112 88.4355 98.511 88.3941 99.9174Z" fill="#3A2C99"/>
<path d="M117.838 82.8541C117.625 85.6072 116.764 88.271 115.327 90.6287C113.89 92.9863 111.917 94.9712 109.568 96.4218C108.574 97.0009 107.45 97.3209 106.301 97.3525C105.528 97.3291 104.791 97.0196 104.233 96.4838C103.746 95.9196 103.381 95.261 103.161 94.5493C102.94 93.8375 102.869 93.088 102.951 92.3474C103.163 89.5966 104.022 86.935 105.46 84.5804C106.897 82.2258 108.872 80.2451 111.222 78.8003C112.212 78.2119 113.337 77.8912 114.489 77.8696C114.937 77.8707 115.38 77.9621 115.791 78.1385C116.562 78.6325 117.168 79.3448 117.533 80.1846C117.897 81.0243 118.004 81.9536 117.838 82.8541Z" fill="#F4F4FA"/>
<path d="M116.991 82.275C116.772 85.0268 115.91 87.6887 114.473 90.0456C113.036 92.4026 111.065 94.3884 108.72 95.8427C107.726 96.4218 106.602 96.7418 105.453 96.7734C105.003 96.7652 104.561 96.6668 104.15 96.4838C103.664 95.9196 103.299 95.261 103.078 94.5493C102.857 93.8375 102.786 93.088 102.868 92.3474C103.08 89.5966 103.94 86.935 105.377 84.5804C106.815 82.2258 108.789 80.2451 111.139 78.8003C112.129 78.2119 113.255 77.8912 114.406 77.8696C114.854 77.8707 115.297 77.9621 115.709 78.1385C116.194 78.7034 116.558 79.3621 116.779 80.0736C116.999 80.7852 117.071 81.5344 116.991 82.275Z" fill="#BFBEED"/>
<path d="M105.453 96.0498C105.142 96.0507 104.834 95.9946 104.543 95.8843C103.784 94.8856 103.43 93.6375 103.55 92.389C103.757 89.7592 104.582 87.2155 105.958 84.9655C107.334 82.7154 109.223 80.8227 111.47 79.4417C112.352 78.9127 113.357 78.6206 114.385 78.5938C114.695 78.6031 115.002 78.6589 115.295 78.7592C116.048 79.7681 116.395 81.0228 116.267 82.2752C116.06 84.8995 115.236 87.4378 113.864 89.6839C112.491 91.93 110.609 93.8205 108.368 95.2018C107.484 95.7282 106.481 96.0201 105.453 96.0498Z" fill="#3A2C99"/>
<path d="M110.994 81.7994C110.971 82.126 110.871 82.4426 110.703 82.7231C110.534 83.0035 110.3 83.2399 110.022 83.4126C109.485 83.7022 109.071 83.4126 109.092 82.8335C109.118 82.5105 109.219 82.198 109.388 81.9214C109.557 81.6448 109.788 81.4117 110.064 81.241C110.601 80.9514 111.015 81.1996 110.994 81.7994Z" fill="#3A2C99"/>
<path d="M108.678 83.1851C108.777 83.4764 108.792 83.7894 108.723 84.089C108.654 84.3886 108.502 84.6629 108.285 84.8811C107.81 85.4188 107.231 85.5636 106.983 85.1913C106.878 84.9041 106.86 84.5927 106.93 84.2951C106.999 83.9976 107.154 83.7269 107.376 83.5161C107.831 82.9576 108.41 82.8129 108.678 83.1851Z" fill="#3A2C99"/>
<path d="M106.673 85.6875C107.128 85.6875 107.272 86.3286 106.983 86.9905C106.693 87.6523 106.114 88.1487 105.66 88.1073C105.205 88.066 105.081 87.4662 105.349 86.8043C105.618 86.1425 106.218 85.6461 106.673 85.6875Z" fill="#3A2C99"/>
<path d="M105.556 88.6243C106.073 88.3348 106.487 88.6243 106.487 89.2034C106.462 89.532 106.358 89.8498 106.186 90.1304C106.013 90.411 105.776 90.6463 105.494 90.8167C104.956 91.1062 104.543 90.8167 104.564 90.2376C104.589 89.909 104.692 89.5912 104.864 89.3106C105.037 89.03 105.274 88.7947 105.556 88.6243Z" fill="#3A2C99"/>
<path d="M105.597 91.2099C106.052 90.6721 106.631 90.5273 106.879 90.8996C106.989 91.1845 107.012 91.4954 106.946 91.7934C106.88 92.0914 106.727 92.3633 106.507 92.5749C106.032 93.1333 105.453 93.2781 105.205 92.9058C105.101 92.6151 105.083 92.3009 105.153 92.0003C105.222 91.6997 105.377 91.4254 105.597 91.2099Z" fill="#3A2C99"/>
<path d="M106.797 92.7609C107.066 92.099 107.665 91.6026 108.12 91.644C108.575 91.6854 108.699 92.2852 108.43 92.947C108.161 93.6088 107.562 94.1052 107.107 94.0639C106.652 94.0225 106.507 93.4227 106.797 92.7609Z" fill="#3A2C99"/>
<path d="M108.823 92.9473C108.851 92.6223 108.956 92.3087 109.128 92.0319C109.301 91.7551 109.536 91.5231 109.816 91.3547C110.353 91.0652 110.767 91.3547 110.746 91.9131C110.721 92.2417 110.618 92.5595 110.445 92.8401C110.273 93.1207 110.036 93.356 109.754 93.5264C109.237 93.7125 108.823 93.4643 108.823 92.9473Z" fill="#3A2C99"/>
<path d="M111.16 91.4581C111.058 91.1705 111.041 90.8598 111.11 90.5628C111.18 90.2658 111.334 89.9951 111.553 89.7828C112.007 89.2244 112.586 89.1003 112.855 89.4726C112.952 89.7607 112.966 90.0702 112.897 90.3661C112.828 90.6621 112.677 90.9328 112.462 91.1478C111.987 91.7063 111.408 91.8304 111.16 91.4581Z" fill="#3A2C99"/>
<path d="M113.165 88.9555C112.71 88.9555 112.566 88.335 112.834 87.6732C113.103 87.0113 113.703 86.4943 114.158 86.5563C114.613 86.6184 114.757 87.1768 114.468 87.8593C114.178 88.5418 113.599 89.0175 113.165 88.9555Z" fill="#3A2C99"/>
<path d="M114.282 86.0186C113.765 86.3081 113.331 86.0186 113.351 85.4601C113.376 85.1316 113.48 84.8138 113.652 84.5332C113.825 84.2526 114.062 84.0173 114.344 83.8469C114.861 83.5573 115.274 83.8469 115.274 84.4053C115.249 84.7339 115.146 85.0517 114.974 85.3323C114.801 85.6129 114.564 85.8482 114.282 86.0186Z" fill="#3A2C99"/>
<path d="M114.282 83.433C113.827 83.9914 113.227 84.1362 112.979 83.7433C112.877 83.4557 112.86 83.1449 112.93 82.848C113 82.551 113.153 82.2802 113.372 82.068C113.827 81.5095 114.427 81.3854 114.675 81.7577C114.771 82.0459 114.786 82.3553 114.717 82.6513C114.647 82.9473 114.497 83.218 114.282 83.433Z" fill="#3A2C99"/>
<path d="M113.041 81.882C112.752 82.5645 112.173 83.0609 111.718 82.9988C111.263 82.9368 111.118 82.3784 111.408 81.6958C111.697 81.0133 112.276 80.5376 112.731 80.5997C113.186 80.6617 113.31 81.2202 113.041 81.882Z" fill="#3A2C99"/>
<path d="M112.214 86.1011C112.158 86.8687 111.921 87.612 111.522 88.2701C111.123 88.9281 110.574 89.4819 109.919 89.886C108.678 90.5478 107.707 89.886 107.727 88.5416C107.79 87.7762 108.032 87.0364 108.435 86.3823C108.837 85.7282 109.388 85.1784 110.043 84.7774C111.222 84.0949 112.214 84.674 112.214 86.1011Z" fill="#3A2C99"/>
<path d="M129.603 78.9037L138.639 73.6917C139.534 73.1095 140.278 72.325 140.814 71.4017C141.349 70.4783 141.659 69.4419 141.72 68.3763C141.72 66.4322 140.335 65.6256 138.639 66.5977L129.603 71.8096C128.716 72.3977 127.978 73.1841 127.447 74.1065C126.916 75.029 126.606 76.0624 126.543 77.125C126.543 79.0898 127.929 79.8758 129.603 78.9037Z" fill="#231869"/>
<path d="M246.47 405.707C246.643 405.62 246.834 405.574 247.028 405.574C247.222 405.574 247.413 405.62 247.586 405.707C247.929 405.87 248.243 406.086 248.517 406.348C251.342 408.929 253.995 411.692 256.457 414.621L256.271 414.497C256.602 414.87 256.932 415.262 257.222 415.655L257.387 415.904C258.462 416.096 259.459 416.591 260.261 417.331C260.734 417.893 261.067 418.559 261.233 419.275C261.608 421.183 261.808 423.121 261.833 425.066C261.731 425.356 261.57 425.622 261.36 425.846C261.15 426.07 260.896 426.248 260.613 426.369C260.613 426.369 260.51 426.369 260.468 426.369C259.636 426.984 258.934 427.757 258.4 428.644C257.966 429.347 257.16 429.202 256.333 429.451C253.19 425.583 249.22 423.556 246.883 419.254C246.544 418.749 246.391 418.143 246.449 417.538C246.481 417.388 246.542 417.246 246.629 417.12C246.716 416.994 246.828 416.886 246.956 416.804C247.085 416.721 247.229 416.665 247.38 416.638C247.531 416.611 247.685 416.615 247.835 416.648C247.703 416.372 247.661 416.061 247.717 415.76C247.773 415.459 247.923 415.184 248.145 414.973C248.394 414.764 248.695 414.629 249.017 414.581C249.338 414.534 249.666 414.576 249.964 414.704C249.912 414.43 249.95 414.147 250.073 413.897C250.197 413.647 250.398 413.444 250.647 413.318C250.897 413.194 251.173 413.13 251.453 413.132C249.92 411.688 248.497 410.133 247.194 408.479C246.718 407.879 245.932 407.134 246.098 406.41C246.129 406.138 246.262 405.887 246.47 405.707Z" fill="#F9D5C3"/>
<path d="M339.061 623.39C338.855 622.708 338.42 622.335 337.18 622.232C335.939 622.128 334.244 622.046 332.796 621.963L326.862 621.57C326.862 619.978 327.007 618.344 327.172 616.751C325.356 617.045 323.493 616.725 321.879 615.841C319.522 614.972 317.103 614.166 314.683 613.463C313.665 613.094 312.575 612.967 311.499 613.09C308.811 613.649 307.364 618.054 307.715 620.35C308.044 622.019 308.998 623.499 310.382 624.486C312.465 626.11 314.915 627.197 317.516 627.651C320.119 627.959 322.595 628.951 324.691 630.526C327.441 632.594 329.385 634.931 332.962 635.2C333.794 635.32 334.642 635.262 335.451 635.032C336.259 634.801 337.01 634.402 337.654 633.862C338.298 633.321 338.821 632.65 339.188 631.894C339.555 631.137 339.759 630.311 339.785 629.471C339.774 628.115 339.628 626.764 339.351 625.438C339.299 624.75 339.202 624.066 339.061 623.39Z" fill="#BFBEED"/>
<path d="M320.535 629.988C320.535 629.698 320.535 629.409 320.535 629.119C320.483 626.24 319.776 623.411 318.467 620.846C318.143 619.79 317.552 618.835 316.751 618.075C314.807 616.503 311.685 617.868 310.445 620.143C309.866 621.136 309.555 622.211 309.039 623.328C308.583 624.448 307.857 625.438 306.926 626.21C305.996 626.983 304.889 627.513 303.704 627.754C300.337 627.539 296.983 627.153 293.655 626.596C292.396 626.452 291.122 626.572 289.912 626.947C287.142 628.085 286.356 632.532 287.328 635.034C288.038 636.545 289.283 637.739 290.822 638.385C293.217 639.509 295.851 640.028 298.493 639.895C301.1 639.611 303.735 640.032 306.123 641.115C310.258 643.183 315.159 645.913 319.377 642.066C320.474 640.962 321.116 639.486 321.176 637.93C321.104 635.273 320.891 632.622 320.535 629.988Z" fill="#BFBEED"/>
<path d="M332.672 506.782C330.708 508.851 323.016 505.293 322.892 504.3C313.691 497.517 315.448 525.459 318.322 536.503C319.853 542.459 319.646 548.706 320.618 554.766C321.715 561.525 323.305 568.196 325.373 574.724C325.742 576.173 326.451 577.513 327.441 578.633C329.509 580.805 333.107 580.495 336.105 579.936C338.71 579.44 341.605 578.633 342.825 576.296C343.452 574.787 343.673 573.14 343.466 571.518C343.186 567.19 343.352 562.845 343.962 558.55C344.748 554.042 345.554 549.512 346.36 545.003C347.131 541.064 347.697 537.088 348.056 533.09C348.478 525.843 347.964 518.572 346.526 511.457C345.864 507.713 346.939 500.66 341.584 500.019C336.684 499.461 333.975 505.397 332.672 506.782Z" fill="#A5B5F1"/>
<path d="M322.747 569.161L321.259 562.956C321.858 564.962 322.334 567.051 322.747 569.161Z" fill="#6E4CB3"/>
<path d="M326.407 571.821C327.896 569.753 331.721 569.753 333.024 570.187C334.327 570.622 341.295 566.237 343.362 564.562C343.344 565.256 343.406 565.95 343.549 566.63C343.631 567.375 343.693 568.119 343.735 568.864C343.859 570.339 343.962 571.808 344.045 573.269C344.231 576.144 344.396 579.04 344.396 581.914C344.304 595.712 342.919 609.471 340.261 623.01C340.147 624.079 339.771 625.102 339.165 625.989C338.193 627.168 335.443 628.346 331.432 627.726C330.179 627.552 328.998 627.035 328.02 626.232C327.042 625.429 326.305 624.371 325.89 623.176C325.297 620.959 325.136 618.649 325.415 616.371C325.973 607.374 326.593 598.44 326.387 589.484C326.307 582.223 325.538 574.987 324.091 567.871L326.407 571.821Z" fill="#A5B5F1"/>
<path d="M301.429 527.01C300.923 535.817 301.026 544.649 301.74 553.442C302.153 558.737 302.794 564.031 303.662 569.264C304.097 571.891 304.572 574.497 305.11 577.103C305.188 578.073 305.509 579.008 306.044 579.822C306.579 580.635 307.31 581.3 308.17 581.756C312.574 584.693 320.576 584.507 323.967 579.543C327.544 574.186 326.324 565.645 327.586 559.543C329.405 550.691 335.505 544.3 338.441 535.924C339.443 533.052 340.021 530.049 340.157 527.01H301.429Z" fill="#A5B5F1"/>
<path d="M349.359 485.169C349.545 483.597 349.793 482.025 350.062 480.474C351.364 473.008 353.597 465.707 354.549 458.178C355.272 452.325 355.81 445.024 351.158 440.495C350.392 439.769 349.538 439.143 348.614 438.634C339.599 433.525 330.977 439.73 322.52 442.77C316.955 444.759 311.634 447.375 306.661 450.567C304.863 451.418 303.27 452.645 301.988 454.166C300.75 455.932 300.033 458.01 299.92 460.164C299.89 462.68 300.14 465.191 300.664 467.651C303.324 482.047 303.916 496.749 302.422 511.312C301.677 517.516 300.933 534.621 300.933 534.621C303.001 535.531 304.345 536.379 314.415 536.565C335.236 536.937 346.753 531.684 347.932 530.588C349.111 529.492 348.718 526.968 348.759 525.458C348.904 520.929 348.759 516.4 348.759 511.87C348.298 502.967 348.498 494.042 349.359 485.169Z" fill="#DADAF9"/>
<path d="M305.296 581.26C305.585 585.824 305.827 590.402 306.02 594.993C306.185 598.592 306.33 602.211 306.413 605.851C306.413 608.623 306.537 611.415 306.578 614.124C306.702 629.388 305.006 632.739 312.14 634.952C313.735 635.469 315.437 635.569 317.082 635.241C321.796 634.207 322.706 630.112 323.409 625.024C323.823 622.17 324.05 618.716 324.215 615.82C324.36 613.359 324.484 610.919 324.588 608.457C324.732 605.148 324.836 601.839 324.96 598.509C325.125 594.145 325.27 589.76 325.415 585.396C325.601 579.791 326.221 574.083 326.407 568.499C326.393 568.091 326.285 567.693 326.091 567.334C325.897 566.975 325.623 566.666 325.291 566.431C324.464 565.851 307.467 571.581 305.709 573.442C305.124 576.005 304.984 578.65 305.296 581.26Z" fill="#A5B5F1"/>
<path d="M304.221 446.989C298.679 446.162 285.467 443.659 282.551 441.901C274.963 437.269 266.94 427.982 263.57 423.473C262.433 421.943 253.066 427.962 253.045 429.327C253.025 430.692 260.323 441.736 261.461 443.473C267.292 452.036 272.916 456.669 274.859 457.744C280.008 460.578 300.458 469.016 301.74 469.306C305.42 470.112 311.913 466.514 313.381 463.928C322.789 447.341 306.578 447.32 304.221 446.989Z" fill="#F4F4FA"/>
<path d="M320.245 435.428C319.935 433.194 318.178 433.711 319.088 431.684C319.799 429.947 320.937 428.418 322.396 427.238C323.875 426.066 325.721 425.457 327.607 425.521C328.247 425.521 328.682 425.935 329.323 425.935C331.078 425.81 332.84 425.81 334.595 425.935C336.353 426.203 337.966 426.328 337.966 428.292C337.786 430.899 338.024 433.517 338.669 436.048C339.248 437.373 339.672 438.762 339.93 440.185C339.933 441.619 339.516 443.022 338.729 444.22C337.943 445.419 336.822 446.36 335.505 446.927C332.308 448.232 328.791 448.542 325.415 447.817C323.74 447.568 321.279 447.237 320.37 445.624C319.821 444.314 319.727 442.858 320.101 441.488C320.432 439.484 320.481 437.445 320.245 435.428Z" fill="#F9D5C3"/>
<path d="M324.05 401.84L331.37 406.1C331.039 405.946 330.674 405.882 330.311 405.915C329.948 405.948 329.6 406.076 329.302 406.286L321.982 402.026C322.28 401.815 322.628 401.687 322.991 401.654C323.354 401.622 323.72 401.686 324.05 401.84Z" fill="#3A2C99"/>
<mask id="mask2_619_1446" style="mask-type:luminance" maskUnits="userSpaceOnUse" x="321" y="401" width="11" height="6">
<path d="M324.05 401.84L331.37 406.1C331.039 405.946 330.674 405.882 330.311 405.915C329.948 405.948 329.6 406.076 329.302 406.286L321.982 402.026C322.28 401.815 322.628 401.687 322.991 401.654C323.354 401.622 323.72 401.686 324.05 401.84Z" fill="white"/>
</mask>
<g mask="url(#mask2_619_1446)">
<path d="M329.323 406.286L322.003 402.026C322.301 401.815 322.649 401.687 323.012 401.654C323.375 401.622 323.74 401.686 324.071 401.84L331.39 406.1C331.06 405.946 330.695 405.882 330.331 405.915C329.968 405.948 329.62 406.076 329.323 406.286Z" fill="#7F89A6"/>
</g>
<path d="M312.781 406.865C311.689 408.125 310.972 409.665 310.713 411.312C310.134 415.118 311.664 419.027 310.837 422.791C310.01 426.555 311.623 434.745 318.819 436.876C323.241 437.604 327.776 437.155 331.969 435.573C334.942 433.802 337.362 431.238 338.958 428.168C353.866 404.259 322.913 394.435 312.781 406.865Z" fill="#F9D5C3"/>
<path d="M345.658 417.455C345.658 418.158 345.471 418.861 345.327 419.523C345.227 420.054 345.096 420.579 344.934 421.095C344.812 421.545 344.646 421.981 344.438 422.398C343.668 423.986 342.747 425.496 341.688 426.907C340.455 429.015 338.704 430.774 336.601 432.015C335.641 432.44 334.635 432.752 333.603 432.946C330.749 433.587 326.552 433.711 324.36 431.353C323.457 430.233 322.922 428.86 322.83 427.424C322.72 426.109 322.519 424.802 322.23 423.515C322.23 423.184 322.044 422.832 321.941 422.501C321.787 421.965 321.579 421.445 321.321 420.95C320.876 420.13 320.137 419.509 319.253 419.213C317.764 418.758 315.965 419.606 314.683 418.737C314.035 418.205 313.572 417.481 313.36 416.669C313.071 415.924 312.802 415.118 312.492 414.311C312.144 413.26 311.635 412.269 310.982 411.374C310.602 410.954 310.256 410.505 309.948 410.03C309.497 409.422 309.205 408.711 309.101 407.962C308.956 404.466 311.83 401.012 314.249 398.778C315.525 397.547 317 396.54 318.612 395.8C320.069 395.309 321.585 395.01 323.12 394.911C327.665 394.003 332.382 394.598 336.56 396.607C337.662 397.137 338.573 397.997 339.165 399.068C339.247 399.329 339.373 399.574 339.537 399.792C339.799 400.043 340.108 400.24 340.447 400.371C341.469 400.827 342.395 401.472 343.176 402.274C346.898 405.955 346.361 412.408 345.658 417.455Z" fill="black"/>
<path d="M321.052 417.662C323.926 417.413 324.732 420.992 322.789 423.866C322.105 424.691 321.328 425.434 320.473 426.079C315.366 430.588 313.98 425.831 315.593 424.301C319.253 420.619 317.309 417.931 321.052 417.662Z" fill="#F9D5C3"/>
<path d="M320.163 423.08C320.494 422.77 323.74 420.764 321.486 419.482C321.337 419.419 321.175 419.392 321.014 419.405C320.852 419.417 320.696 419.468 320.559 419.553C320.421 419.638 320.306 419.755 320.222 419.893C320.139 420.032 320.09 420.189 320.08 420.35C320.08 420.681 320.08 421.033 320.08 421.385C320.035 421.582 319.958 421.77 319.853 421.943C319.584 422.419 318.591 422.894 318.798 423.598C319.005 424.301 319.977 423.246 320.163 423.08Z" fill="#FFBFA2"/>
<path d="M304.779 361.302C304.623 361.195 304.493 361.053 304.4 360.889C304.307 360.724 304.252 360.54 304.241 360.35C304.241 359.813 305.048 359.565 305.482 359.502C306.24 359.427 307.004 359.555 307.694 359.875C308.569 360.328 309.466 360.735 310.382 361.095C310.647 361.166 310.925 361.166 311.189 361.095C311.321 361.061 311.44 360.988 311.529 360.884C311.618 360.78 311.672 360.652 311.685 360.516C311.685 360.02 310.837 359.606 310.507 359.337C309.939 358.926 309.345 358.553 308.728 358.22C307.739 357.62 306.656 357.194 305.523 356.959C304.345 356.814 303.063 356.959 301.864 356.959C301.621 356.948 301.383 356.892 301.161 356.793C300.826 356.603 300.559 356.314 300.396 355.966C300.189 355.593 299.982 355.221 299.817 354.849C299.651 354.477 299.817 354.683 299.817 354.621C299.817 354.559 299.92 354.477 299.982 354.415C301.431 353.59 302.972 352.937 304.572 352.47C305.647 352.077 306.743 351.684 307.839 351.333C308.094 351.225 308.369 351.176 308.646 351.188C308.927 351.246 309.194 351.358 309.431 351.519C310.216 351.901 311.024 352.233 311.851 352.512C314.619 353.799 317.145 355.555 319.315 357.703C320.824 359.047 322.375 360.412 323.823 361.84C325.27 363.267 324.277 365.19 323.223 366.142C322.996 366.364 322.738 366.552 322.458 366.7C321.392 367.232 320.161 367.328 319.025 366.969C318.446 366.803 315.8 365.831 314.993 365.604C311.609 364.745 308.365 363.408 305.358 361.633C305.155 361.541 304.961 361.43 304.779 361.302Z" fill="#F9D5C3"/>
<path d="M368.423 368.354C377.087 362.729 380.436 353.628 377.273 350.609C371.876 345.459 367.182 348.913 354.879 359.668L354.052 360.371C351.033 362.956 348.035 365.562 345.265 368.416C343.683 369.998 342.218 371.691 340.881 373.484C340.571 373.897 340.281 374.332 340.013 374.766C339.773 375.236 339.599 375.737 339.496 376.255C339.038 377.532 338.773 378.871 338.71 380.226C338.657 381.068 338.789 381.912 339.096 382.698C339.403 383.484 339.878 384.193 340.488 384.776C341.259 385.355 342.165 385.728 343.119 385.862C344.074 385.996 345.047 385.885 345.947 385.541C348.015 384.859 355.376 383.473 360.793 378.158C364.349 374.704 357.237 375.635 368.423 368.354Z" fill="#D3D3F5"/>
<path d="M320.783 361.964C321.3 361.199 321.796 360.682 322.706 360.888C323.629 361.119 324.518 361.466 325.353 361.922C327.047 362.899 328.677 363.983 330.232 365.17C332.3 366.659 334.492 367.858 336.704 369.161C338.296 370.113 339.847 371.126 341.336 372.202C344.127 374.27 350.268 378.882 347.353 382.957C346.712 383.791 345.884 384.464 344.936 384.92C343.988 385.376 342.946 385.603 341.894 385.583C340.447 385.397 338.689 383.66 337.573 382.832C334.926 380.93 332.362 378.923 329.778 376.938C326.655 374.518 323.574 371.726 320.494 369.285C319.212 368.293 318.322 368.189 318.757 366.328C319.158 364.857 319.794 363.46 320.638 362.191L320.783 361.964Z" fill="#D3D3F5"/>
<path d="M406.882 355.987C406.882 354.249 407.006 352.512 407.068 350.775C407.252 347.167 407.072 343.55 406.531 339.978C405.768 335.717 404.173 331.648 401.837 328.003C401.495 327.445 401.085 326.931 400.617 326.473C399.418 326.659 397.888 326.245 396.792 326.824C395.19 328.221 394.003 330.031 393.359 332.057C391.436 336.343 390.901 341.123 391.829 345.728C392.294 347.356 392.881 348.946 393.587 350.485C394.219 352.487 395.079 354.409 396.151 356.214C396.825 357.353 397.722 358.345 398.788 359.13C399.853 359.916 401.066 360.478 402.354 360.785C402.993 360.955 403.664 360.963 404.307 360.807C404.95 360.652 405.543 360.339 406.034 359.896C406.82 358.786 407.14 357.412 406.923 356.069L406.882 355.987Z" fill="#302534"/>
<path d="M406.034 355.138C400.853 352.847 395.843 350.186 391.043 347.176C390.465 346.803 387.859 348.499 387.198 348.355C382.186 347.202 376.94 347.636 372.186 349.595H372.021V380.433H401.547L406.034 355.138Z" fill="#FFBFA2"/>
<path d="M394.91 352.781C394.91 352.781 376.528 362.026 377.417 351.829C378.658 337.6 379.485 336.007 385.936 334.187C387.673 333.67 388.355 332.119 390.175 332.284C396.771 332.532 394 335.986 393.607 338.489C392.429 345.873 395.034 348.872 394.91 352.781Z" fill="#FFBFA2"/>
<path d="M378.306 347.341H378.058C378.803 347.072 379.216 347.341 378.306 347.341Z" fill="#E3E2F2"/>
<path d="M415.484 365.749C415.515 366.341 415.515 366.935 415.484 367.527C415.344 369.213 415.046 370.882 414.595 372.512C414.086 374.441 413.262 376.272 412.155 377.931C411.038 379.73 410.087 381.55 409.032 383.35C408.05 385.152 407.187 387.018 406.448 388.934C404.35 393.209 402.827 397.744 401.919 402.419C401.352 406.196 401.206 410.026 401.485 413.835C401.708 415.64 401.819 417.457 401.816 419.275C401.857 419.881 401.857 420.489 401.816 421.095C401.671 421.757 401.341 421.984 400.741 422.46C397.44 424.93 393.586 426.556 389.513 427.196C385.123 427.826 380.659 427.728 376.301 426.907C375.06 426.7 373.882 426.472 372.765 426.204C369.529 425.556 366.389 424.499 363.419 423.06C362.488 422.357 362.902 422.563 363.667 415.924C366.872 388.644 354.817 388.148 359.532 373.877C360.338 371.436 361.972 369.12 362.985 366.679C366.727 357.745 364.37 347.776 378.058 347.279C377.211 347.548 369.291 360.888 378.823 364.818C385.026 367.341 397.143 360.682 399.997 352.243C403.874 353.732 407.593 355.602 411.1 357.827C412.402 358.71 413.477 359.888 414.238 361.264C415 362.64 415.427 364.177 415.484 365.749Z" fill="#F4F4FA"/>
<path d="M390.299 547.775C389.849 548.538 389.488 549.349 389.224 550.195C388.149 553.214 387.156 556.234 386.019 559.254C385.184 561.945 384.644 564.719 384.406 567.527C384.158 569.74 383.331 572.449 384.882 574.29C385.709 575.158 386.778 575.758 387.95 576.013C389.122 576.267 390.344 576.164 391.457 575.717C393.68 574.774 395.476 573.043 396.502 570.857C397.644 568.319 398.343 565.605 398.57 562.832C399.045 559.771 399.5 556.627 399.955 553.628C400.193 552.378 400.193 551.094 399.955 549.843C399.17 546.534 393.359 544.3 390.857 546.906C390.638 547.173 390.45 547.464 390.299 547.775Z" fill="#19121B"/>
<path d="M365.487 553.918C365.551 552.317 366.115 550.776 367.099 549.512C368.568 547.444 370.532 545.769 372.124 543.804C372.829 542.859 373.451 541.856 373.985 540.805C374.784 539.691 375.684 538.652 376.673 537.703L377.087 537.248C378.521 535.666 380.38 534.531 382.442 533.98C384.158 533.566 386.887 533.442 388.087 534.91C388.796 535.896 389.238 537.048 389.369 538.256C389.499 539.463 389.314 540.684 388.831 541.798C388.149 544.259 385.957 545.045 384.241 546.762C383.352 547.651 382.731 548.644 381.842 549.533C380.953 550.422 379.588 551.932 378.451 553.111C376.96 554.779 375.154 556.136 373.137 557.103C370.18 558.385 365.673 558.116 365.507 554.021L365.487 553.918Z" fill="#19121B"/>
<path d="M358.581 490.236C360.173 493.938 371.38 521.57 373.902 530.608C375.019 534.6 376.177 539.853 373.323 543.432C372.643 544.171 372.066 544.999 371.607 545.893C371.384 546.348 371.298 546.859 371.36 547.362C371.423 547.865 371.631 548.339 371.959 548.726C372.309 549.02 372.734 549.212 373.186 549.281C373.638 549.35 374.1 549.294 374.523 549.119C375.363 548.763 376.128 548.251 376.776 547.609C378.952 545.805 380.985 543.834 382.855 541.715C383.889 540.495 384.784 539.163 385.523 537.744C386.267 536.275 386.929 535.096 386.184 533.607C384.683 530.354 383.813 526.844 383.62 523.266C383.472 521.029 383.438 518.785 383.517 516.544C383.517 514.476 383.889 512.408 383.765 510.34C383.667 506.161 383.148 502.004 382.214 497.93C381.504 495.225 380.251 492.692 378.534 490.484C376.714 488.251 374.233 486.886 372.331 484.879C371.794 484.2 371.103 483.659 370.316 483.299C369.529 482.939 368.667 482.772 367.802 482.811L358.581 490.236Z" fill="#FFBFA2"/>
<path d="M407.585 443.101C407.579 438.617 407.261 434.139 406.634 429.699C406.158 426.348 403.512 417.289 403.512 417.289C403.512 417.289 389.865 423.142 385.543 423.494C381.745 424.108 377.87 424.059 374.088 423.349C372.227 422.998 372.021 423.08 372.021 424.962C372.303 427.698 372.822 430.404 373.571 433.049C375.515 442.998 378.493 452.925 380.043 462.915C381.305 471.043 380.953 479.688 382.111 487.961C382.846 491.512 384.182 494.912 386.06 498.013C387.901 501.529 389.762 503.494 393.194 503.101C395.204 502.615 396.994 501.472 398.28 499.854C398.73 498.727 399.056 497.555 399.252 496.358C400.162 493.504 400.927 490.588 401.568 487.651L401.94 485.831C401.94 485.831 401.94 485.686 401.94 485.624C403.491 477.806 404.359 469.781 405.538 461.901C406.732 455.701 407.416 449.413 407.585 443.101Z" fill="#F9D5C3"/>
<path d="M381.015 482.542C381.739 492.222 385.667 499.254 387.218 508.83C388.755 519.403 389.446 530.081 389.286 540.764C389.549 545.406 389.417 550.063 388.893 554.683C388.417 557.475 385.916 562.129 388.169 564.631C389.011 565.516 390.156 566.048 391.374 566.12C392.418 566.235 393.47 565.987 394.352 565.417C395.841 564.383 396.13 561.715 396.668 560.081C398.549 554.352 399.583 548.457 401.175 542.666C402.912 536.255 405.621 530.112 406.593 523.535C408.088 511.176 406.246 498.643 401.258 487.237C400.514 485.562 400.286 487.548 398.508 487.237L381.015 482.542Z" fill="#F9D5C3"/>
<path d="M355.479 482.48C354.928 484.214 354.791 486.052 355.078 487.848C355.365 489.643 356.069 491.347 357.133 492.822C358.752 494.807 360.759 496.442 363.031 497.626C365.302 498.81 367.791 499.519 370.346 499.709C375.449 500.067 380.577 499.719 385.585 498.675L402.788 495.903C403.499 495.961 404.213 495.84 404.866 495.551C405.518 495.263 406.088 494.815 406.524 494.25C406.959 493.685 407.247 493.02 407.36 492.315C407.473 491.611 407.408 490.889 407.172 490.216C406.501 483.385 406.274 476.518 406.489 469.657C406.882 461.798 408.205 453.835 408.205 445.997C408.844 438.515 407.936 430.982 405.538 423.866C404.938 422.295 404.091 417.662 402.436 416.958C399.893 415.883 395.013 419.254 392.636 420.061C386.908 421.617 381.076 422.758 375.184 423.473C369.994 423.742 368.981 419.337 362.489 419.461C360.669 419.461 359.573 432.346 359.304 434.084C358.622 438.51 358.043 442.956 357.754 447.424C357.464 451.56 358.064 455.345 358.002 459.42C357.947 465.656 357.415 471.879 356.41 478.034C356.203 479.585 355.769 481.053 355.479 482.48Z" fill="#A5B5F1"/>
<path d="M362.406 419.42C363.067 417.103 363.708 414.994 363.708 414.994C369.213 419.504 376.179 421.844 383.29 421.571C394.042 420.785 401.754 414.58 401.444 414.021C402.126 415.056 402.788 416.09 403.512 417.207C391.891 427.3 374.812 427.01 362.406 419.42Z" fill="#231869"/>
<path d="M388.087 343.97C388.598 343.642 389.088 343.283 389.555 342.894L390.196 342.315C391.85 340.449 393.298 338.41 394.517 336.235C395.855 334.039 396.714 331.587 397.04 329.037C397.441 326.568 397.277 324.04 396.561 321.644C395.845 319.247 394.595 317.044 392.904 315.2C390.902 313.153 388.392 311.673 385.631 310.914C382.87 310.154 379.957 310.142 377.19 310.878C375.708 311.32 374.275 311.909 372.91 312.636C371.696 313.188 370.59 313.951 369.643 314.89C369.056 315.548 368.556 316.278 368.154 317.062C367.479 318.381 366.945 319.767 366.562 321.198C366.399 322.043 366.351 322.906 366.417 323.763C366.403 325.255 366.535 326.744 366.81 328.21C367.068 329.421 367.213 330.653 367.244 331.891C367.138 333.106 366.808 334.291 366.272 335.387C365.904 336.181 365.748 337.057 365.818 337.93C366.045 338.716 366.893 339.358 367.286 339.999C367.681 340.677 367.888 341.448 367.885 342.232C367.922 342.741 368.07 343.235 368.319 343.68C368.428 344.063 368.477 344.461 368.464 344.859C368.639 345.345 368.854 345.815 369.105 346.266C369.292 346.796 369.513 347.315 369.767 347.817C371.4 350.774 373.778 350.96 376.735 349.885C379.009 348.975 381.196 347.861 383.269 346.555C384.923 345.707 386.557 344.963 388.087 343.97Z" fill="#F9D5C3"/>
<path d="M402.374 323.949C402.296 322.577 402.039 321.222 401.609 319.916C401.203 318.648 400.648 317.433 399.955 316.297C399.603 315.706 399.202 315.145 398.756 314.621C398.342 314.146 397.453 313.67 397.226 313.112C397.226 313.112 394.848 307.176 383.972 307.176C379.852 307.308 375.848 308.567 372.393 310.816C370.103 312.045 368.295 314.013 367.265 316.4C366.1 319.079 365.535 321.98 365.611 324.901C365.563 325.338 365.69 325.776 365.962 326.121C366.417 326.617 367.203 326.493 367.823 326.328C370.121 325.765 372.327 324.881 374.378 323.701C375.35 323.143 377.976 321.922 379.134 322.46C380.291 322.998 379.361 325.356 379.733 326.452C380.181 327.861 381.073 329.087 382.276 329.947C383.402 330.601 384.561 331.195 385.75 331.726C386.348 331.993 386.885 332.381 387.326 332.865C387.767 333.349 388.103 333.919 388.314 334.539C388.645 335.883 388.19 337.703 389.389 338.406C390.589 339.109 394.724 335.986 394.517 336.338C393.566 337.951 393.711 337.662 393.359 340.475C395.651 339.097 397.623 337.247 399.142 335.046C400.661 332.845 401.693 330.345 402.168 327.713C402.371 326.47 402.44 325.208 402.374 323.949Z" fill="#3E3544"/>
<path d="M393.09 330.961C395.944 330.774 396.647 334.332 394.683 337.062C393.987 337.84 393.203 338.534 392.346 339.13C387.198 343.474 385.936 338.758 387.57 337.269C391.354 333.898 389.493 331.188 393.09 330.961Z" fill="#F9D5C3"/>
<path d="M391.23 337.455C391.56 337.145 394.827 335.242 392.615 333.919C392.47 333.856 392.313 333.828 392.155 333.838C391.998 333.848 391.845 333.895 391.71 333.976C391.574 334.057 391.46 334.169 391.377 334.303C391.293 334.437 391.243 334.589 391.23 334.746C391.23 335.077 391.23 335.428 391.23 335.759C391.188 335.958 391.111 336.147 391.002 336.318C390.713 336.793 389.72 337.248 389.906 337.931C390.092 338.613 391.043 337.621 391.23 337.455Z" fill="#FFBFA2"/>
<path d="M407.606 406.059C407.321 406.363 406.985 406.615 406.613 406.803C406.005 407.087 405.313 407.139 404.67 406.948C403.897 406.591 403.233 406.034 402.747 405.335C401.858 404.28 400.927 403.267 399.935 402.295C399.824 402.151 399.684 402.034 399.523 401.952C399.362 401.87 399.185 401.824 399.004 401.819C398.844 401.844 398.696 401.917 398.578 402.027C398.46 402.138 398.378 402.282 398.343 402.439C398.343 402.646 398.446 403.66 398.343 403.701C398.239 403.742 397.453 403.391 397.185 403.287L395.82 402.894C394.86 402.649 393.887 402.462 392.904 402.336C390.965 402.112 389.004 402.147 387.074 402.439C386.899 402.449 386.729 402.498 386.577 402.584C386.502 402.627 386.44 402.691 386.4 402.768C386.36 402.845 386.342 402.932 386.35 403.019C386.379 403.107 386.428 403.188 386.492 403.256C386.557 403.324 386.635 403.377 386.722 403.411C388.043 403.985 389.433 404.381 390.857 404.59C391.478 404.735 391.995 405.025 392.594 405.211C393.364 405.441 394.117 405.724 394.848 406.059C392.48 405.518 390.061 405.234 387.632 405.211C387.136 405.211 385.957 405.211 385.667 405.707C385.378 406.204 386.329 406.762 386.743 406.927L390.692 408.355C389.225 407.848 387.664 407.679 386.122 407.858C385.357 407.858 384.82 407.858 385.027 408.851C385.089 409.143 385.237 409.41 385.45 409.62C385.663 409.829 385.933 409.972 386.226 410.03C387.156 410.195 388.045 410.319 388.976 410.526C390.254 410.78 391.501 411.168 392.698 411.684C391.67 411.709 390.649 411.862 389.658 412.139C388.781 412.387 388.011 412.918 387.466 413.649C387.156 414.146 387.094 415.118 387.859 415.18C388.665 415.231 389.473 415.231 390.278 415.18C391.984 415.015 393.701 415.015 395.406 415.18C397.888 415.552 400.1 416.958 402.581 417.248C404.82 417.472 407.075 417.018 409.053 415.945C410.893 415.035 412.258 413.422 414.016 412.326C415.113 411.806 416.147 411.16 417.097 410.402C418.075 409.409 419.006 408.375 419.888 407.3C420.377 406.836 420.704 406.227 420.818 405.562C420.78 405.099 420.631 404.652 420.382 404.26C420.134 403.867 419.794 403.541 419.392 403.308C418.377 402.586 417.222 402.086 416.001 401.84C414.873 401.467 413.655 401.467 412.527 401.84C411.11 402.72 409.805 403.769 408.64 404.963C408.267 405.252 407.895 405.707 407.606 406.059Z" fill="#F9D5C3"/>
<path d="M411.7 358.013L410.873 357.372C410.558 356.959 410.133 356.643 409.646 356.462C409.16 356.28 408.632 356.24 408.124 356.346C407.615 356.452 407.147 356.7 406.774 357.061C406.401 357.422 406.137 357.881 406.014 358.386C405.155 360.532 404.693 362.817 404.649 365.128C404.418 367.469 404.466 369.83 404.794 372.16C405.038 374.502 406.073 376.691 407.73 378.365C409.405 379.647 411.038 381.033 412.672 382.398C415.98 385.156 419.343 387.837 422.762 390.443C424.334 391.894 426.085 393.138 427.973 394.146C433.287 396.214 438.456 393.525 439.366 389.595C439.583 388.049 439.269 386.474 438.477 385.128C437.389 383.291 436.053 381.614 434.507 380.144C432.866 378.31 431.212 376.49 429.544 374.683C425.19 369.786 420.528 365.172 415.587 360.867C414.326 359.751 412.982 358.985 411.7 358.013Z" fill="#F4F4FA"/>
<path d="M412.672 413.091C415.029 413.753 416.683 411.953 418.254 410.733C421.894 407.879 435.582 398.489 439.159 390.278C440.007 388.21 435.023 386.411 432.811 384.404C431.24 383.039 428.552 383.763 426.815 384.404C424.747 385.108 407.751 404.694 407.44 405.79C406.758 408.044 410.831 412.574 412.672 413.091Z" fill="#F4F4FA"/>
<g opacity="0.2">
<path d="M340.323 227.859C340.323 238.965 332.548 252.492 322.892 258.076L71.0876 403.473C61.4314 409.058 53.5741 404.59 53.5328 393.484L53.0159 207.114V188.955C53.0159 177.849 60.7904 164.322 70.4673 158.738L322.189 13.3195C331.845 7.75597 339.723 12.2234 339.744 23.3299V41.5097L340.323 227.859Z" fill="#BFBEED"/>
</g>
<g opacity="0.2">
<path d="M353.866 240.806C353.866 251.912 346.071 265.439 336.415 271.023L84.631 416.421C74.9541 422.005 67.0968 417.538 67.0762 406.431L66.5386 220.061V201.902C66.5386 190.796 74.3131 177.269 83.9693 171.685L335.712 26.2668C345.389 20.7032 353.246 25.1706 353.267 36.2771V54.457L353.866 240.806Z" fill="#BFBEED"/>
</g>
<path d="M361.02 35.1396L365.404 37.6836C362.282 35.8635 357.939 36.1117 353.142 38.8832L348.738 36.3392C353.535 33.5678 357.877 33.2989 361.02 35.1396Z" fill="#F4F4FA"/>
<mask id="mask3_619_1446" style="mask-type:luminance" maskUnits="userSpaceOnUse" x="348" y="33" width="18" height="6">
<path d="M361.02 35.1396L365.404 37.6836C362.282 35.8635 357.939 36.1117 353.142 38.8832L348.738 36.3392C353.535 33.5678 357.877 33.2989 361.02 35.1396Z" fill="white"/>
</mask>
<g mask="url(#mask3_619_1446)">
<path d="M353.142 38.8832L348.738 36.3392C353.535 33.5678 357.877 33.2989 361.02 35.1396L365.404 37.6836C362.282 35.8635 357.939 36.1117 353.142 38.8832Z" fill="#FE8786"/>
</g>
<path d="M93.4187 424.59L89.0145 422.026C85.9129 420.226 84.0107 416.4 83.99 410.961L88.3942 413.525C88.3942 418.965 90.3171 422.791 93.4187 424.59Z" fill="#BFBEED"/>
<mask id="mask4_619_1446" style="mask-type:luminance" maskUnits="userSpaceOnUse" x="83" y="410" width="11" height="15">
<path d="M93.4187 424.59L89.0145 422.026C85.9129 420.226 84.0107 416.4 83.99 410.961L88.3942 413.525C88.3942 418.965 90.3171 422.791 93.4187 424.59Z" fill="white"/>
</mask>
<g mask="url(#mask4_619_1446)">
<path d="M93.4187 424.59L89.0145 422.026C85.9129 420.226 84.0107 416.4 83.99 410.961L88.3942 413.525C88.3942 418.965 90.3171 422.791 93.4187 424.59Z" fill="#BFBEED"/>
</g>
<path d="M87.8152 211.975L83.4316 209.41L83.473 227.342L87.8772 229.865L87.8152 211.975Z" fill="#FF6661"/>
<path d="M83.473 227.342L83.9899 410.981L88.3942 413.525L87.8772 229.865L83.473 227.342Z" fill="#BFBEED"/>
<path d="M105.018 182.192L100.614 179.648L348.759 36.3394L353.142 38.8833L105.018 182.192Z" fill="#FE8786"/>
<path d="M87.8152 211.975L83.411 209.41C83.411 198.469 91.0822 185.129 100.614 179.627L104.998 182.192C95.4864 187.694 87.7945 201.034 87.8152 211.975Z" fill="#F4F4FA"/>
<mask id="mask5_619_1446" style="mask-type:luminance" maskUnits="userSpaceOnUse" x="83" y="179" width="22" height="33">
<path d="M87.8152 211.975L83.411 209.41C83.411 198.469 91.0822 185.129 100.614 179.627L104.998 182.192C95.4864 187.694 87.7945 201.034 87.8152 211.975Z" fill="white"/>
</mask>
<g mask="url(#mask5_619_1446)">
<path d="M87.8152 211.975L83.411 209.41C83.411 198.469 91.0822 185.129 100.614 179.627L104.998 182.192C95.4864 187.694 87.7945 201.034 87.8152 211.975Z" fill="#FF6661"/>
</g>
<path d="M371.007 250.299C371.007 261.261 363.357 274.58 353.825 280.082L105.701 423.37C96.1894 428.872 88.4355 424.466 88.4148 413.525L87.8772 229.865V211.975C87.8772 201.013 95.5484 187.693 105.06 182.192L353.184 38.8832C362.716 33.4023 370.449 37.8077 370.491 48.7487V66.6597L371.007 250.299Z" fill="#F3F2FC"/>
<path d="M370.491 66.6597L87.8566 229.865V211.975C87.8566 201.013 95.5277 187.693 105.039 182.192L353.163 38.8832C362.695 33.4023 370.428 37.8077 370.47 48.7487L370.491 66.6597Z" fill="#FE4340"/>
<path d="M272.254 180.061C272.254 155.718 255.32 145.77 234.436 157.828C213.552 169.885 196.638 199.379 196.638 223.722C196.638 248.065 213.531 258.013 234.436 245.997C255.34 233.98 272.254 204.384 272.254 180.061Z" fill="#A5B5F1"/>
<path d="M246.16 170.775C245.949 174.863 244.777 178.844 242.74 182.395C240.703 185.945 237.858 188.965 234.436 191.21C227.964 194.953 222.733 191.871 222.733 184.322C222.94 180.236 224.107 176.255 226.141 172.705C228.174 169.154 231.016 166.134 234.436 163.888C240.908 160.165 246.16 163.268 246.16 170.775Z" fill="white"/>
<path d="M252.818 223.247V200.703C252.818 190.858 245.912 186.783 237.455 191.665L231.52 195.098C223.064 199.979 216.137 212.037 216.137 221.985V244.529L252.818 223.247Z" fill="white"/>
<path d="M293.407 241.509L175.506 309.596V289.761L293.407 221.654V241.509Z" fill="white"/>
<path d="M256.994 305.542L213.056 330.919V343.639L256.994 318.262V305.542Z" fill="#A5B5F1"/>
<path d="M293.407 272.264L175.506 340.371V320.516L293.407 252.429V272.264Z" fill="white"/>
<path d="M184.356 325.728L182.288 326.225L182.619 324.798L184.687 324.467V321.695L185.783 321.075V323.97L187.851 321.902L188.181 322.977L186.01 325.046L187.416 326.473L186.527 327.734L185.204 326.142L183.922 329.182L183.053 328.955L184.356 325.728Z" fill="#F22B38"/>
<path d="M190.601 322.109L188.533 322.605L188.843 321.178L190.911 320.868V318.076L192.007 317.455V320.351L194.074 318.282L194.405 319.337L192.234 321.405L193.619 322.812L192.751 324.094L191.428 322.481L190.146 325.521L189.257 325.294L190.601 322.109Z" fill="#F22B38"/>
<path d="M196.866 318.489L194.798 318.985L195.129 317.558L197.197 317.248V314.456L198.272 313.835V316.731L200.34 314.663L200.67 315.718L198.479 317.786L199.885 319.192L199.016 320.475L197.693 318.882L196.411 321.922L195.522 321.674L196.866 318.489Z" fill="#F22B38"/>
<path d="M203.193 314.87L201.125 315.366L201.456 313.96L203.524 313.629V310.857L204.599 310.216V313.112L206.667 311.044L206.977 312.098L204.909 314.167L206.315 315.573L205.426 316.855L204.123 315.263L202.841 318.303L201.952 318.055L203.193 314.87Z" fill="#F22B38"/>
<path d="M209.396 311.25L207.328 311.767L207.659 310.34L209.727 310.009V307.238L210.823 306.597V309.513L212.89 307.445L213.221 308.499L211.154 310.568L212.56 311.974L211.67 313.256L210.347 311.664L209.086 314.704L208.197 314.477L209.396 311.25Z" fill="#F22B38"/>
<path d="M343.3 64.1364C343.3 66.4735 344.934 67.4249 346.96 66.2046C348.03 65.5104 348.92 64.5736 349.56 63.4703C350.199 62.367 350.57 61.1284 350.641 59.8551C350.641 57.4973 349.007 56.5459 346.96 57.7869C345.897 58.4858 345.012 59.4242 344.376 60.5268C343.741 61.6295 343.372 62.8657 343.3 64.1364Z" fill="#F4F4FA"/>
<path d="M331.721 70.8169C331.721 73.1541 333.355 74.1055 335.381 72.8852C336.453 72.1889 337.346 71.2488 337.985 70.1417C338.625 69.0346 338.994 67.7919 339.062 66.515C339.062 64.1779 337.428 63.2265 335.381 64.4467C334.315 65.1477 333.428 66.0894 332.793 67.1959C332.157 68.3023 331.79 69.5426 331.721 70.8169Z" fill="#F4F4FA"/>
<path d="M320.142 77.4971C320.142 79.8549 321.775 80.8063 323.822 79.5654C324.891 78.8668 325.779 77.9257 326.415 76.8187C327.051 75.7118 327.417 74.4702 327.482 73.1952C327.482 70.858 325.849 69.9067 323.822 71.1269C322.747 71.8194 321.852 72.7587 321.212 73.8665C320.571 74.9744 320.205 76.2191 320.142 77.4971Z" fill="#F4F4FA"/>
<path d="M10.4213 646.555L54.3185 672.056C49.0252 668.995 45.7169 662.459 45.6962 653.214L1.79895 627.775C1.8403 636.896 5.12794 643.473 10.4213 646.555Z" fill="#FFB700"/>
<mask id="mask6_619_1446" style="mask-type:luminance" maskUnits="userSpaceOnUse" x="1" y="627" width="54" height="46">
<path d="M10.4213 646.555L54.3185 672.056C49.0252 668.995 45.7169 662.459 45.6962 653.214L1.79895 627.775C1.8403 636.896 5.12794 643.473 10.4213 646.555Z" fill="white"/>
</mask>
<g mask="url(#mask6_619_1446)">
<path d="M45.6962 653.152L1.79895 627.713C1.79895 636.958 5.12794 643.473 10.4213 646.555L54.3185 672.056C49.0252 668.933 45.7169 662.397 45.6962 653.152Z" fill="#FFB700"/>
</g>
<path d="M195.832 427.3L151.935 401.86C146.579 398.737 139.156 399.151 131.01 403.929L174.886 429.389C183.054 424.611 190.456 424.197 195.832 427.3Z" fill="#FFDE38"/>
<mask id="mask7_619_1446" style="mask-type:luminance" maskUnits="userSpaceOnUse" x="131" y="399" width="65" height="31">
<path d="M195.832 427.3L151.935 401.86C146.579 398.737 139.156 399.151 131.01 403.929L174.886 429.389C183.054 424.611 190.456 424.197 195.832 427.3Z" fill="white"/>
</mask>
<g mask="url(#mask7_619_1446)">
<path d="M195.832 427.3L151.935 401.86C146.662 398.799 139.384 399.151 131.382 403.639L175.279 429.099C183.281 424.59 190.539 424.239 195.832 427.3Z" fill="#FFDE38"/>
<path d="M175.279 429.099L131.382 403.639L131.01 403.867L174.886 429.327L175.279 429.099Z" fill="#FFDE38"/>
</g>
<path d="M45.386 538.054L1.48877 512.594L1.8196 627.713L45.7169 653.152L45.386 538.054Z" fill="#FFB700"/>
<path d="M174.907 429.327L131.009 403.866L30.8707 461.715L74.7473 487.155L174.907 429.327Z" fill="#FFDE38"/>
<path d="M74.7474 487.155L30.8501 461.695C14.6393 471.064 1.42671 493.959 1.48874 512.594L45.3653 538.054C45.324 519.419 58.4539 496.503 74.7474 487.155Z" fill="#FFDE38"/>
<mask id="mask8_619_1446" style="mask-type:luminance" maskUnits="userSpaceOnUse" x="1" y="461" width="74" height="78">
<path d="M74.7474 487.155L30.8501 461.695C14.6393 471.064 1.42671 493.959 1.48874 512.594L45.3653 538.054C45.324 519.419 58.4539 496.503 74.7474 487.155Z" fill="white"/>
</mask>
<g mask="url(#mask8_619_1446)">
<path d="M74.7474 487.155L30.8501 461.695C27.2238 463.845 23.8883 466.451 20.9252 469.451L64.8224 494.89C67.7859 491.897 71.1216 489.297 74.7474 487.155Z" fill="#FFDE38"/>
<path d="M64.8223 494.89L20.9251 469.368C9.57341 480.64 1.44733 497.889 1.48868 512.511L45.3653 537.971C45.3239 523.432 53.4707 506.162 64.8223 494.89Z" fill="#FFDE38"/>
</g>
<path d="M74.7474 487.155C58.5366 496.503 45.324 519.419 45.3653 538.054L45.6962 653.152C45.6962 671.766 59.0535 679.357 75.2643 669.988L175.424 612.077C191.614 602.708 204.826 579.833 204.785 561.198L204.454 446.1C204.454 427.486 191.097 419.875 174.886 429.244L74.7474 487.155Z" fill="#FFC400"/>
<path d="M144.346 584.197C144.346 576.482 138.97 573.338 132.271 577.165C128.744 579.449 125.805 582.533 123.693 586.166C121.581 589.799 120.354 593.879 120.113 598.075C120.113 603.163 122.428 606.244 125.944 606.658V628.623L138.35 621.487V599.522C141.937 595.188 144.039 589.816 144.346 584.197Z" fill="#262028"/>
<path d="M174.886 356.441L174.659 417.661C174.547 418.915 174.105 420.117 173.379 421.145C172.653 422.173 171.667 422.99 170.523 423.515C167.408 425.115 163.956 425.95 160.454 425.95C156.951 425.95 153.499 425.115 150.384 423.515C149.231 422.985 148.24 422.158 147.513 421.119C146.786 420.079 146.35 418.864 146.248 417.599L146.476 356.462C146.476 345.79 143.54 337.848 138.205 334.849C132.87 331.85 124.62 333.07 115.357 338.365L99.6011 347.341C74.9334 361.467 54.1117 397.393 53.9256 425.81L53.6981 486.968C53.5815 488.223 53.1384 489.426 52.4129 490.456C51.6874 491.487 50.7047 492.309 49.5627 492.842C45.5189 494.938 40.9171 495.706 36.4122 495.035C33.9557 494.743 31.5808 493.97 29.4234 492.759C28.7251 492.357 28.0733 491.878 27.4797 491.332C26.8134 490.786 26.2727 490.102 25.8945 489.327C25.5163 488.553 25.3094 487.706 25.288 486.844L25.4947 425.707C25.4947 407.093 31.6978 386.224 43.0702 366.907C54.4425 347.589 69.392 331.85 85.5201 322.605L101.255 313.608C109.281 308.795 118.268 305.808 127.577 304.859C136.273 303.925 145.04 305.795 152.599 310.197C160.157 314.598 166.112 321.301 169.593 329.327C173.317 337.869 175.124 347.125 174.886 356.441Z" fill="#DADAF9"/>
<path d="M146.042 338.075C144.322 337.119 142.404 336.574 140.438 336.483C144.284 340.288 146.435 347.3 146.393 356.338L146.166 417.475C146.267 418.74 146.704 419.955 147.431 420.995C148.157 422.034 149.148 422.861 150.301 423.391C151.464 424.067 152.708 424.595 154.002 424.962L154.25 359.689C154.313 349.016 151.314 341.136 146.042 338.075Z" fill="#BFBEED"/>
<path d="M154.436 313.712C149.3 312.287 143.949 311.797 138.639 312.264C129.331 313.205 120.345 316.185 112.317 320.992L96.5822 330.009C80.4335 339.254 65.3599 354.973 54.1117 374.311C42.8634 393.649 36.6396 414.497 36.5569 433.111L36.3295 494.931C33.873 494.64 31.4981 493.867 29.3406 492.656C28.6423 492.253 27.9905 491.775 27.397 491.229L27.6451 429.368C27.6451 410.754 33.9516 389.906 45.1792 370.568C56.4068 351.23 71.5217 335.532 87.6498 326.287L103.385 317.269C111.415 312.466 120.4 309.48 129.707 308.52C138.285 307.71 146.908 309.52 154.436 313.712Z" fill="#F4F4FA"/>
</g>
<defs>
<clipPath id="clip0_619_1446">
<rect width="439.49" height="674" fill="white"/>
</clipPath>
</defs>
</svg>
