<svg width="455" height="384" viewBox="0 0 455 384" fill="none" xmlns="http://www.w3.org/2000/svg">
<g clip-path="url(#clip0_619_1698)">
<path d="M395.577 343.649L394.842 340.782L386.527 342.914L387.262 345.781L395.577 343.649Z" fill="#5793CE"/>
<path d="M391.228 347.774L390.494 344.907L382.178 347.038L382.913 349.905L391.228 347.774Z" fill="#5793CE"/>
<path d="M386.973 351.893L386.238 349.027L377.923 351.157L378.657 354.024L386.973 351.893Z" fill="#5793CE"/>
<path d="M382.856 356.075L382.121 353.208L373.806 355.34L374.541 358.206L382.856 356.075Z" fill="#5793CE"/>
<path d="M211.438 85.313L133.33 131.13C113.528 125.056 88.3033 126.931 71.6622 136.693C51.4109 148.577 51.5193 167.682 71.9566 179.21C76.7924 181.887 81.9606 183.913 87.3271 185.237C91.3396 186.239 95.4206 186.943 99.5368 187.344C115.775 188.894 133.098 186.027 145.602 178.698C160.725 169.82 164.474 157.006 156.882 146.16L167.728 139.838L167.418 133.005H178.76L178.466 126.59L189.808 126.513L189.529 120.114H200.855L200.576 113.699H211.918L211.624 107.3L223.741 107.207L227.428 105.037L231.504 88.2259L211.438 85.313ZM101.536 172.965C98.5774 174.496 95.2996 175.307 91.9689 175.331C88.6383 175.355 85.349 174.592 82.3689 173.105C77.0543 170.083 77.0078 165.141 82.2914 162.042C85.2495 160.511 88.5274 159.7 91.858 159.676C95.1887 159.652 98.478 160.415 101.458 161.902C106.773 164.924 106.804 169.882 101.536 172.965Z" fill="#C4D9E8"/>
<path d="M254.125 375.122L148.763 314.569C141.666 310.479 142.565 303.32 150.746 298.595L253.01 239.592C261.191 234.943 273.571 234.339 280.667 238.445L386.03 298.982C393.127 303.088 392.228 310.231 384.047 314.957L281.783 373.975C273.602 378.701 261.222 379.213 254.125 375.122Z" fill="#C4D9E8"/>
<path d="M377.601 237.841L359.395 227.32L426.517 188.584C429.694 186.755 429.694 183.78 426.517 181.952L357.939 142.348C356.156 141.447 354.187 140.977 352.19 140.977C350.193 140.977 348.224 141.447 346.442 142.348L279.304 181.177L261.098 170.656L328.236 131.92C341.437 124.297 362.928 124.297 376.145 131.92L444.723 171.509C457.925 179.132 457.925 191.543 444.723 199.166L377.601 237.841Z" fill="#5793CE"/>
<path d="M406.979 242.458C406.979 232.727 401.06 221.432 393.762 217.217L272.13 146.996C268.861 145.106 265.932 144.967 263.562 146.253L118.347 230.636L258.774 336.463L401.835 253.428C402.286 253.232 402.713 252.982 403.105 252.684C405.491 250.902 406.979 247.323 406.979 242.458Z" fill="#D4ECFF"/>
<path d="M258.774 336.463L401.835 253.428C402.286 253.231 402.713 252.982 403.105 252.684C405.491 250.871 406.979 247.323 406.979 242.458C406.866 237.564 405.648 232.76 403.415 228.404L240.32 322.564L258.774 336.463Z" fill="#173D7A"/>
<path d="M249.632 336.122L128 265.917C120.702 261.702 114.783 250.422 114.783 240.661C114.783 230.915 120.702 226.452 128 230.667L249.632 300.888C256.93 305.102 262.849 316.382 262.849 326.144C262.849 335.828 256.93 340.29 249.632 336.122Z" fill="#5793CE"/>
<path d="M231.411 312.4L216.784 303.971C215.983 303.395 215.328 302.639 214.871 301.765C214.413 300.891 214.166 299.922 214.15 298.935C214.15 296.999 215.327 296.1 216.784 296.937L231.411 305.381C232.214 305.955 232.871 306.71 233.329 307.585C233.786 308.459 234.031 309.43 234.045 310.417C234.045 312.354 232.867 313.237 231.411 312.4Z" fill="white"/>
<path d="M121.616 65.1388L146.609 79.3317L172.098 64.364L172.036 57.8563L171.819 57.9958L171.788 57.5309L183.13 57.4535L183.068 51.0387L194.193 50.9613L194.115 44.562L205.24 44.4846L205.178 38.0698L216.288 37.9924L216.226 31.5931L228.11 31.5002L231.813 29.3309L235.888 12.5194L235.811 6.01172L233.859 12.2405L215.854 9.83886L121.616 65.1388Z" fill="#396CAA"/>
<path d="M146.531 72.8244L172.035 57.8567L171.726 51.0236L183.068 50.9462L182.773 44.5314L194.115 44.454L193.836 38.0547L205.178 37.9773L204.884 31.5625L216.226 31.4851L215.947 25.0858L228.048 24.9929L231.736 22.8236L235.811 6.01209L215.792 3.33154L121.539 58.6314L146.531 72.8244Z" fill="#D4ECFF"/>
<path d="M163.514 62.8611C160.439 58.7174 156.487 55.3046 151.939 52.8671C148.141 50.756 144.125 49.0624 139.962 47.8159L121.554 58.6621L146.532 72.8705L163.514 62.8611Z" fill="#396CAA"/>
<path d="M235.129 8.83184L235.811 6.01184L232.464 5.5625L152.838 52.2784L157.021 54.6646L235.129 8.83184Z" fill="#5793CE"/>
<path d="M61.2188 85.6692L60.9399 76.4189L63.8994 82.6632L61.2188 85.6692Z" fill="#D3D0CF"/>
<path d="M76.6358 106.478C97.0575 118.068 130.03 117.836 150.281 105.952C160.43 100.002 165.45 92.239 165.373 84.5227L165.094 74.7147L163.405 76.5895C161.05 71.7553 156.572 67.1999 149.94 63.4502C129.534 51.8448 96.5617 52.0772 76.3104 63.9615C56.0591 75.8458 56.1985 94.873 76.6358 106.478ZM106.075 89.1711C111.39 92.1925 111.421 97.1352 106.153 100.234C103.195 101.765 99.9168 102.575 96.5862 102.6C93.2555 102.624 89.9662 101.861 86.9861 100.374C81.6715 97.3522 81.625 92.3939 86.9086 89.295C89.8691 87.7702 93.1472 86.9644 96.4772 86.9429C99.8072 86.9213 103.095 87.6847 106.075 89.1711Z" fill="#396CAA"/>
<path d="M76.3414 97.2283C96.7477 108.818 129.72 108.586 149.971 96.7169C170.223 84.8482 170.114 65.7279 149.677 54.2C129.24 42.6721 96.2828 42.827 76.0315 54.7113C55.7802 66.5956 55.9197 85.6229 76.3414 97.2283ZM105.781 79.9209C111.096 82.9423 111.127 87.9005 105.858 90.984C102.9 92.5148 99.6225 93.3253 96.2918 93.3495C92.9612 93.3738 89.6718 92.611 86.6917 91.1234C81.3771 88.102 81.3461 83.1438 86.6917 80.0603C89.6459 78.5346 92.9181 77.7269 96.2429 77.7026C99.5677 77.6784 102.851 78.4384 105.827 79.9209H105.781Z" fill="#F2F2F2"/>
<path d="M100.002 102.295C95.5794 103.061 91.0281 102.387 87.0173 100.374C83.2056 98.2043 82.121 95.0434 83.7479 92.2854L74.4512 84.9565L64.8291 74.1104C57.3917 84.9565 61.3119 97.817 76.5585 106.494C83.6527 110.314 91.3988 112.773 99.3974 113.745L100.002 102.295Z" fill="#5793CE"/>
<path d="M76.3414 97.2283C81.1706 99.9077 86.334 101.935 91.6965 103.256C95.7092 104.256 99.7901 104.961 103.906 105.363C120.144 106.912 137.483 104.046 149.971 96.7169C170.223 84.8327 170.114 65.7279 149.677 54.2C129.24 42.6721 96.2828 42.827 76.0315 54.7113C55.7802 66.5956 55.9197 85.6229 76.3414 97.2283ZM105.781 79.9209C111.096 82.9423 111.127 87.9005 105.858 90.984C102.9 92.5148 99.6225 93.3253 96.2918 93.3495C92.9612 93.3738 89.6718 92.611 86.6917 91.1234C81.3771 88.102 81.3461 83.1438 86.6917 80.0603C89.6459 78.5346 92.9181 77.7269 96.2429 77.7026C99.5677 77.6784 102.851 78.4384 105.827 79.9209H105.781Z" fill="#D4ECFF"/>
<path d="M66.6882 76.1553C67.6799 70.2364 72.0803 64.4415 79.905 59.8551C97.9096 49.2878 127.241 49.0089 145.416 59.4058C154.434 64.5189 159.004 71.29 159.097 78.0921C160.399 70.3449 155.906 62.4117 145.633 56.5703C127.458 46.2509 98.1266 46.4523 80.1065 57.0351C71.0577 62.3497 66.5797 69.2758 66.6882 76.1553Z" fill="#396CAA"/>
<path d="M54.4012 160.306C50.8255 160.339 47.3041 159.43 44.1904 157.672C36.8769 153.52 32.8019 145.168 32.7244 134.183C32.585 114.117 46.5455 89.5275 63.8529 79.3786C73.3355 73.816 82.5857 73.0413 89.8991 77.1938C93.0541 79 95.6698 81.6157 97.476 84.7706C100.173 89.634 101.536 95.1237 101.427 100.684C101.567 120.749 87.606 145.339 70.2986 155.488C65.5239 158.482 60.0352 160.146 54.4012 160.306ZM79.7348 82.0126C75.4416 82.1885 71.2717 83.4983 67.6491 85.8088C52.356 94.7646 40.0224 116.488 40.1463 134.198C40.1463 142.457 42.9508 148.546 47.8936 151.351C52.8363 154.155 59.4525 153.396 66.5799 149.212C81.8575 140.256 94.1911 118.533 94.0672 100.823C94.1864 96.5567 93.1932 92.3328 91.1852 88.5668C90.057 86.533 88.3933 84.8469 86.3748 83.6915C84.3562 82.5361 82.0599 81.9555 79.7348 82.0126Z" fill="#396CAA"/>
<path d="M89.2794 98.2198L103.813 101.768L105.905 90.9219C102.947 92.4527 99.669 93.2632 96.3384 93.2874C93.0077 93.3117 89.7184 92.5489 86.7383 91.0613L89.2794 98.2198Z" fill="#D4ECFF"/>
<path d="M76.3413 97.2281C81.1705 99.9076 86.3339 101.934 91.6964 103.255C95.7091 104.256 99.79 104.96 103.906 105.363C120.144 106.912 137.483 104.046 149.971 96.7168L90.7822 95.3843L76.3413 97.2281Z" fill="#D4ECFF"/>
<path d="M98.2041 104.696C93.843 103.925 89.5484 102.817 85.3591 101.38V110.46C89.4771 111.946 93.7259 113.041 98.0491 113.729C111.607 115.511 98.2041 104.696 98.2041 104.696Z" fill="#396CAA"/>
<path d="M88.7681 102.481C85.907 101.654 83.1105 100.618 80.401 99.382C72.4833 95.6633 82.4928 109.407 82.4928 109.407C82.4928 109.407 85.1888 110.476 88.7681 111.576V102.481Z" fill="#5793CE"/>
<path d="M237.267 262.043L211.36 278.746L198.763 276.701L229.551 261.811L237.267 262.043Z" fill="#5793CE"/>
<path d="M205.953 346.38C205.953 346.38 198.5 342.615 193.914 348.224C189.327 353.833 182.789 367.049 182.587 375.974C182.386 384.899 189.653 384.31 193.976 382.172C198.299 380.034 210.927 361.719 211.702 358.14C212.476 354.561 210.787 349.696 209.579 348.735C208.37 347.774 205.953 346.38 205.953 346.38Z" fill="#173D7A"/>
<path d="M207.58 344.582L207.921 352.329C207.966 353.134 207.787 353.934 207.404 354.643C207.021 355.351 206.449 355.94 205.751 356.343C203.991 357.298 201.955 357.616 199.987 357.241C194.394 356.265 193.867 354.716 193.464 346.968C193.061 339.221 207.58 344.582 207.58 344.582Z" fill="#5793CE"/>
<path d="M178.652 331.474C178.652 331.474 171.183 327.709 166.612 333.302C162.042 338.896 155.472 352.128 155.27 361.069C155.069 370.009 162.351 369.405 166.674 367.266C170.997 365.128 183.625 346.829 184.385 343.25C185.144 339.671 183.486 334.805 182.277 333.845C181.069 332.884 178.652 331.474 178.652 331.474Z" fill="#173D7A"/>
<path d="M180.279 329.723L180.619 337.47C180.664 338.278 180.483 339.083 180.098 339.794C179.712 340.505 179.136 341.095 178.435 341.499C176.676 342.427 174.65 342.717 172.702 342.32C167.077 341.406 166.582 339.81 166.179 332.078C165.776 324.346 180.279 329.723 180.279 329.723Z" fill="#5793CE"/>
<path d="M246.843 187.824C244.627 151.893 207.936 193.108 207.936 193.108L182.82 217.729L160.198 242.52C158.015 244.917 156.383 247.762 155.414 250.856C154.445 253.95 154.163 257.218 154.589 260.432L163.731 330.157C163.947 331.817 164.765 333.341 166.031 334.438C167.296 335.534 168.92 336.128 170.595 336.107C171.731 336.088 172.865 335.99 173.988 335.812C176.17 335.574 178.176 334.5 179.585 332.816C180.995 331.133 181.698 328.97 181.549 326.779L179.876 261.609L227.366 232.975C227.366 232.975 249.043 223.741 246.843 187.824Z" fill="#D4ECFF"/>
<path d="M198.02 249.353L191.264 246.874C191.109 246.874 179.783 257.844 179.876 261.671L184.958 263.314L197.725 250.918L198.02 249.353Z" fill="#5793CE"/>
<path d="M237.267 262.043C237.267 262.043 265.498 245.929 268.876 239.173C270.193 236.524 272.254 233.75 264.011 229.752L226.375 256.589L228.002 265.886L237.267 262.043Z" fill="#5793CE"/>
<path d="M274.144 201.692C271.789 165.776 235.237 206.976 235.237 206.976L210.121 231.596L187.514 256.388C185.328 258.783 183.692 261.627 182.721 264.721C181.749 267.815 181.465 271.084 181.89 274.299L191.032 344.025C191.254 345.687 192.076 347.21 193.343 348.308C194.61 349.407 196.234 350.005 197.911 349.99C199.043 349.965 200.172 349.862 201.289 349.68C203.472 349.441 205.477 348.368 206.886 346.684C208.296 345.001 208.999 342.837 208.85 340.647L207.177 275.492L254.683 246.859C254.683 246.859 276.298 234.525 274.144 201.692Z" fill="#D4ECFF"/>
<path d="M252.437 86.1803C280.327 97.7237 279.707 114.163 279.707 114.163C279.707 114.163 274.253 174.468 276.112 214.738C276.887 231.565 186.678 232.851 200.189 187.933C216.055 134.988 210.106 92.1147 217.527 85.669C224.949 79.2232 245.247 83.2053 252.437 86.1803Z" fill="#5793CE"/>
<path d="M261.392 100.776C259.936 106.416 252.53 109.391 244.86 107.423C237.19 105.456 232.139 99.2578 233.595 93.6023C235.052 87.9468 242.458 84.9874 250.128 86.9552C257.798 88.923 262.849 95.1208 261.392 100.776Z" fill="#FFC2B0"/>
<path d="M249.555 109.36C247.861 109.353 246.174 109.134 244.534 108.71C240.728 107.803 237.309 105.708 234.773 102.729C233.638 101.464 232.822 99.9465 232.393 98.3022C231.964 96.6578 231.936 94.9348 232.309 93.2771C233.859 86.9244 242.086 83.5156 250.453 85.6693C254.26 86.5757 257.679 88.6705 260.215 91.6502C261.349 92.9153 262.164 94.4331 262.593 96.0772C263.021 97.7213 263.051 99.4441 262.678 101.102C261.377 106.153 255.938 109.36 249.555 109.36ZM245.371 87.6681C240.196 87.6681 235.873 90.0697 234.881 93.8659C234.618 95.1212 234.658 96.4211 234.998 97.6579C235.337 98.8947 235.967 100.033 236.834 100.978C239.017 103.505 241.938 105.282 245.185 106.06C252.142 107.842 258.836 105.285 260.106 100.358C260.366 99.1027 260.324 97.8038 259.984 96.5676C259.645 95.3315 259.018 94.1933 258.154 93.2461C255.971 90.7193 253.05 88.9416 249.803 88.1639C248.351 87.8197 246.862 87.6584 245.371 87.6836V87.6681Z" fill="white"/>
<path d="M241.28 84.9255C241.449 88.2374 241.371 91.5572 241.048 94.8575C240.893 97.631 250.593 100.219 253.103 97.724C255.613 95.2294 254.652 92.5953 255.21 83.1592C255.768 73.723 241.28 84.9255 241.28 84.9255Z" fill="#FFC2B0"/>
<path d="M255.21 83.1592C255.21 83.1592 252.824 91.9136 241.032 95.2604L241.218 87.3117L255.21 83.1592Z" fill="#EA9C92"/>
<path d="M262.678 60.9398C263.739 65.0401 263.559 69.3627 262.163 73.361C260.766 77.3593 258.216 80.8538 254.833 83.4025C251.451 85.9511 247.389 87.4396 243.16 87.6796C238.932 87.9196 234.727 86.9004 231.078 84.7508C227.429 82.6012 224.5 79.4178 222.66 75.6032C220.82 71.7886 220.152 67.514 220.742 63.3201C221.331 59.1262 223.151 55.2012 225.971 52.0416C228.792 48.882 232.485 46.6296 236.586 45.5692C239.308 44.8652 242.143 44.7042 244.927 45.0956C247.712 45.4871 250.392 46.4231 252.815 47.8504C255.238 49.2777 257.356 51.1683 259.049 53.4141C260.741 55.66 261.974 58.2172 262.678 60.9398Z" fill="#FFC2B0"/>
<path d="M246.859 67.0913C246.859 67.0913 235.067 72.1425 226.902 72.2045C218.736 72.2664 220.533 65.4179 220.533 65.4179L244.767 61.8696L246.859 67.0913Z" fill="#EA9C92"/>
<path d="M224.469 68.4237C224.469 68.4237 234.742 64.0543 243.744 65.8826C245.886 66.2893 247.816 67.4355 249.198 69.121C249.608 69.6799 250.182 70.0969 250.841 70.3141C252.39 70.6704 255.055 64.1163 258.17 63.8839C261.284 63.6514 263.345 65.9291 260.804 70.0817C258.262 74.2342 259.115 78.7121 260.277 79.3784C261.439 80.0446 273.881 70.5155 262.926 48.8077C251.972 27.0999 224.113 38.7828 219.774 43.1832C219.774 43.1832 215.219 47.1653 211.5 43.617C211.438 43.5396 207.348 74.699 224.469 68.4237Z" fill="black"/>
<path d="M264.119 158.214V174.515C264.121 175.436 263.93 176.347 263.559 177.19C263.188 178.033 262.646 178.79 261.966 179.411L228.482 209.935L232.278 215.746L276.515 183.687C277.536 182.948 278.39 182.001 279.02 180.909C279.65 179.817 280.042 178.604 280.172 177.35L283.162 148.949L264.119 158.214Z" fill="#FFC2B0"/>
<path d="M277.352 106.013C277.352 106.013 287.501 121.291 291.297 161.483C291.297 161.483 273.958 167.093 264.104 163.916C254.249 160.74 277.352 106.013 277.352 106.013Z" fill="#5793CE"/>
<path d="M262.245 125.397C262.245 125.397 258.262 146.671 258.045 156.665C258.006 158.008 258.39 159.329 259.144 160.442C259.898 161.554 260.983 162.401 262.245 162.863V125.397Z" fill="#396CAA"/>
<path d="M253.552 231.116L246.161 230.14L198.407 202.575C197.463 202.146 196.431 201.945 195.395 201.988C194.359 202.031 193.347 202.317 192.442 202.823L158.602 222.346L154.124 221.758V226.204C154.133 226.534 154.236 226.855 154.419 227.129C154.603 227.403 154.86 227.62 155.162 227.754L209.269 259.006C210.216 259.436 211.25 259.637 212.289 259.594C213.327 259.551 214.341 259.265 215.25 258.758L252.096 237.484C252.498 237.316 252.846 237.041 253.103 236.688C253.36 236.336 253.515 235.92 253.552 235.486V231.116Z" fill="#173D7A"/>
<path d="M217.636 213.716L214.242 211.748H176.994L158.602 222.362L154.124 221.773V226.22C154.133 226.55 154.236 226.87 154.419 227.144C154.603 227.419 154.86 227.635 155.162 227.769L209.269 259.022C210.226 259.504 211.301 259.703 212.368 259.595L217.636 213.716Z" fill="#396CAA"/>
<path d="M156.107 222.021L154.124 221.757V226.204C154.133 226.534 154.236 226.855 154.419 227.129C154.603 227.403 154.86 227.619 155.162 227.754L156.107 228.311V222.021Z" fill="#5793CE"/>
<path d="M209.889 259.27C211.555 259.816 213.368 259.705 214.955 258.96V251.383H209.889V259.27Z" fill="#274F89"/>
<path d="M209.269 254.575L155.162 223.322C153.613 222.439 153.814 220.905 155.58 219.882L192.442 198.608C193.347 198.102 194.359 197.816 195.395 197.773C196.431 197.73 197.463 197.931 198.407 198.36L252.53 229.613C254.079 230.496 253.862 232.03 252.096 233.053L215.25 254.327C214.342 254.833 213.328 255.119 212.289 255.162C211.25 255.205 210.216 255.004 209.269 254.575Z" fill="white"/>
<path d="M208.339 249.833L163.405 223.849C162.135 223.121 162.289 221.835 163.761 220.982L183.548 209.888C184.3 209.467 185.14 209.228 186.001 209.191C186.862 209.153 187.72 209.318 188.506 209.671L233.44 235.656C234.711 236.4 234.556 237.67 233.084 238.522L213.344 249.632C212.585 250.059 211.736 250.3 210.866 250.335C209.996 250.37 209.13 250.198 208.339 249.833Z" fill="#D4ECFF"/>
<path d="M194.533 197.586L193.976 201.32C193.495 204.501 193.574 207.742 194.208 210.896L194.874 214.181C195.06 215.089 195.514 215.922 196.176 216.571C196.839 217.22 197.681 217.655 198.593 217.822C198.937 217.884 199.29 217.874 199.631 217.793C199.971 217.713 200.291 217.564 200.572 217.354C200.852 217.145 201.086 216.881 201.26 216.577C201.434 216.274 201.544 215.938 201.583 215.591L202.467 207.611C202.467 207.611 204.512 210.292 205.565 210.292C206.619 210.292 204.465 202.297 202.234 197.772C200.003 193.248 194.533 197.586 194.533 197.586Z" fill="#FFC2B0"/>
<path d="M212.879 138.242L207.068 149.739C205.69 152.455 204.878 155.423 204.682 158.462L202.141 197.772L194.502 197.586L191.032 153.442C190.92 152.075 190.988 150.7 191.233 149.351L195.215 126.946L212.879 138.242Z" fill="#FFC2B0"/>
<path d="M207.441 257.565L202.901 251.646L155.193 224.019C154.348 223.415 153.657 222.621 153.175 221.7C152.693 220.78 152.434 219.759 152.42 218.72V179.659L149.677 176.064L152.249 174.514C152.54 174.354 152.87 174.28 153.202 174.299C153.534 174.318 153.853 174.43 154.124 174.623L208.246 205.968C209.091 206.573 209.783 207.367 210.264 208.287C210.746 209.208 211.005 210.229 211.02 211.267V253.815C211.073 254.25 211.006 254.691 210.826 255.09C210.645 255.489 210.359 255.831 209.997 256.077L207.441 257.565Z" fill="#173D7A"/>
<path d="M174.437 235.175L171.059 233.208L152.466 200.886V179.659L149.723 176.064L152.295 174.514C152.587 174.354 152.917 174.28 153.248 174.299C153.58 174.318 153.9 174.43 154.17 174.623L208.246 205.968C209.141 206.553 209.851 207.38 210.291 208.354L174.437 235.175Z" fill="#396CAA"/>
<path d="M151.009 177.66L149.801 176.111L152.373 174.561C152.664 174.401 152.994 174.327 153.326 174.346C153.658 174.365 153.977 174.477 154.248 174.67L155.193 175.228L151.009 177.66Z" fill="#5793CE"/>
<path d="M208.742 206.34C210.035 207.525 210.842 209.149 211.004 210.896L205.721 213.995L203.179 209.594L208.742 206.34Z" fill="#274F89"/>
<path d="M205.674 207.518L151.598 176.219C150.049 175.32 148.825 176.219 148.825 178.311V220.859C148.84 221.896 149.098 222.915 149.577 223.835C150.055 224.755 150.742 225.55 151.583 226.158L205.659 257.457C207.208 258.34 208.432 257.457 208.432 255.365V212.817C208.421 211.779 208.166 210.758 207.687 209.838C207.208 208.917 206.518 208.122 205.674 207.518Z" fill="#5793CE"/>
<path d="M232.263 215.745L231.395 217.543C230.415 219.602 228.867 221.339 226.933 222.548L221.572 225.863C220.753 226.376 219.812 226.658 218.846 226.68C217.881 226.702 216.927 226.463 216.087 225.987L215.901 225.879C215.507 225.611 215.178 225.259 214.937 224.849C214.695 224.439 214.548 223.98 214.505 223.506C214.462 223.032 214.524 222.554 214.688 222.107C214.852 221.66 215.112 221.255 215.451 220.921L221.06 215.141C221.06 215.141 217.961 217.558 217.016 216.582C216.365 215.869 220.115 212.399 222.92 212.275C224.969 212.025 226.909 211.215 228.529 209.935L232.263 215.745Z" fill="#FFC2B0"/>
<path d="M218.023 85.5762C218.023 85.5762 197.493 107.966 189.157 128.496C194.793 137.165 203.426 143.453 213.406 146.16C230.636 151.133 218.023 85.5762 218.023 85.5762Z" fill="#5793CE"/>
<path d="M209.532 144.827L212.879 112.599L205.008 142.797C206.479 143.553 207.989 144.231 209.532 144.827Z" fill="#396CAA"/>
<path d="M233.44 81.0519L227.909 79.5024C229.464 81.8842 231.738 83.7079 234.401 84.7086C238.259 85.7777 238.863 82.5084 238.863 82.5084L233.44 81.0519Z" fill="white"/>
<path d="M128.496 31.5466C125.431 31.5466 122.436 30.6379 119.888 28.9353C117.34 27.2328 115.354 24.8129 114.181 21.9816C113.008 19.1504 112.701 16.0349 113.299 13.0293C113.897 10.0237 115.373 7.26281 117.54 5.09586C119.707 2.92891 122.468 1.4532 125.473 0.855345C128.479 0.257486 131.594 0.564335 134.425 1.73708C137.257 2.90982 139.677 4.89579 141.379 7.44384C143.082 9.9919 143.99 12.9876 143.99 16.0521C143.99 18.0869 143.59 20.1017 142.811 21.9816C142.032 23.8615 140.891 25.5696 139.452 27.0084C138.013 28.4472 136.305 29.5885 134.425 30.3672C132.546 31.1459 130.531 31.5466 128.496 31.5466ZM128.496 3.95092C126.099 3.94786 123.755 4.65588 121.76 5.98542C119.765 7.31495 118.21 9.20625 117.291 11.42C116.371 13.6338 116.129 16.0705 116.595 18.422C117.06 20.7734 118.213 22.9338 119.907 24.6299C121.601 26.326 123.76 27.4816 126.111 27.9504C128.462 28.4191 130.899 28.1801 133.114 27.2635C135.329 26.3468 137.222 24.7938 138.554 22.8009C139.886 20.808 140.597 18.4647 140.597 16.0676C140.593 12.858 139.317 9.7808 137.049 7.50981C134.781 5.23882 131.706 3.95912 128.496 3.95092Z" fill="#D4ECFF"/>
<path d="M441.609 143.169C439.436 143.169 437.312 142.525 435.506 141.318C433.699 140.111 432.291 138.395 431.46 136.388C430.628 134.381 430.411 132.172 430.834 130.041C431.258 127.91 432.305 125.952 433.841 124.416C435.377 122.879 437.335 121.833 439.466 121.409C441.597 120.985 443.806 121.203 445.813 122.034C447.82 122.866 449.536 124.274 450.743 126.081C451.95 127.887 452.595 130.011 452.595 132.184C452.59 135.096 451.432 137.888 449.372 139.947C447.313 142.007 444.521 143.165 441.609 143.169ZM441.609 124.576C440.104 124.576 438.633 125.022 437.382 125.858C436.131 126.694 435.156 127.882 434.58 129.272C434.004 130.663 433.854 132.192 434.147 133.668C434.441 135.144 435.165 136.499 436.229 137.563C437.293 138.627 438.649 139.352 440.125 139.645C441.6 139.939 443.13 139.788 444.52 139.213C445.91 138.637 447.099 137.662 447.935 136.411C448.77 135.159 449.217 133.689 449.217 132.184C449.217 130.166 448.415 128.231 446.988 126.804C445.562 125.378 443.627 124.576 441.609 124.576Z" fill="#5793CE"/>
<path d="M81.5012 341.592L74.0483 326.423L89.202 318.97L96.6549 334.139L81.5012 341.592ZM78.5728 327.972L83.0352 337.068L92.1305 332.59L87.668 323.494L78.5728 327.972Z" fill="#5793CE"/>
<path d="M301.57 106.571L294.101 91.4176L309.27 83.9492L316.801 99.0564L301.57 106.571ZM298.626 92.9515L303.104 102.047L312.199 97.5844L307.721 88.4736L298.626 92.9515Z" fill="#5793CE"/>
<path d="M61.1297 249.131L54.1633 252.556L57.5882 259.523L64.5546 256.098L61.1297 249.131Z" fill="#5793CE"/>
<path d="M334.325 24.2954L292.893 0.387353C292.586 0.166989 292.224 0.0346479 291.847 0.00461216C291.471 -0.0254236 291.093 0.0479847 290.755 0.216912L286.741 2.54109L289.561 3.56373V33.747C289.585 34.9941 289.898 36.2188 290.476 37.324C291.054 38.4293 291.882 39.3849 292.893 40.1153L332.497 62.9697V66.5179L336.556 64.1782C336.953 63.8688 337.264 63.4627 337.459 62.9989C337.655 62.535 337.728 62.0288 337.672 61.5287V30.6636C337.65 29.4145 337.336 28.1877 336.755 27.0818C336.174 25.9759 335.342 25.0216 334.325 24.2954Z" fill="#D3008D"/>
<path d="M330.234 66.3629L288.802 42.4393C287.788 41.7115 286.959 40.7565 286.38 39.6506C285.802 38.5448 285.49 37.3189 285.471 36.0711V5.26803C285.471 2.8044 287.02 1.67329 288.802 2.74242L330.234 26.6659C331.251 27.3912 332.082 28.3457 332.661 29.4521C333.24 30.5585 333.55 31.7856 333.566 33.0342V63.8372C333.566 66.2854 332.078 67.4165 330.234 66.3629Z" fill="#FF2C9C"/>
<path d="M302.732 31.8258C302.732 33.6077 301.492 34.3204 299.943 33.3753C299.13 32.8422 298.454 32.1254 297.97 31.283C297.485 30.4405 297.206 29.4959 297.154 28.5255C297.154 26.7436 298.393 26.0309 299.943 26.976C300.755 27.5092 301.431 28.2259 301.916 29.0683C302.4 29.9108 302.68 30.8554 302.732 31.8258Z" fill="white"/>
<path d="M311.207 36.7063C311.207 38.4882 309.952 39.2164 308.418 38.2558C307.605 37.7259 306.927 37.0124 306.44 36.1727C305.953 35.333 305.67 34.3906 305.614 33.4215C305.614 31.6396 306.869 30.9114 308.418 31.872C309.229 32.4036 309.903 33.1179 310.388 33.9575C310.872 34.7971 311.153 35.7386 311.207 36.7063Z" fill="white"/>
<path d="M319.683 41.6027C319.683 43.3845 318.428 44.0973 316.878 43.1521C316.066 42.619 315.39 41.9023 314.905 41.0598C314.421 40.2174 314.141 39.2728 314.089 38.3024C314.089 36.5205 315.329 35.8077 316.878 36.7529C317.694 37.2843 318.372 38.0003 318.86 38.8428C319.347 39.6854 319.629 40.6309 319.683 41.6027Z" fill="white"/>
<path d="M47.9245 286.4L7.28235 262.926C6.98026 262.714 6.62725 262.587 6.25961 262.557C5.89197 262.527 5.523 262.596 5.19063 262.756L1.2395 265.033L4.01303 266.041V295.635C4.04351 296.85 4.35445 298.042 4.92158 299.117C5.4887 300.192 6.29664 301.122 7.28235 301.833L46.1271 324.253V327.724L50.1092 325.431C50.4973 325.125 50.8016 324.726 50.994 324.271C51.1863 323.816 51.2604 323.319 51.2093 322.828V292.645C51.1952 291.418 50.8901 290.212 50.319 289.127C49.7479 288.041 48.9272 287.107 47.9245 286.4Z" fill="#5793CE"/>
<path d="M43.9114 327.647L3.26932 304.188C2.28188 303.479 1.47265 302.55 0.905328 301.474C0.338006 300.399 0.0281078 299.206 0 297.99V267.714C0 265.313 1.47196 264.197 3.26932 265.251L43.9114 288.709C44.905 289.413 45.7188 290.341 46.2869 291.417C46.8549 292.494 47.1611 293.69 47.1807 294.907V325.137C47.1962 327.585 45.7243 328.701 43.9114 327.647Z" fill="#D4ECFF"/>
<path d="M16.9355 293.776C16.9355 295.527 15.7115 296.224 14.193 295.325C13.3927 294.805 12.7269 294.103 12.2502 293.276C11.7735 292.45 11.4995 291.522 11.4504 290.569C11.4504 288.833 12.6745 288.12 14.193 289.019C14.9916 289.541 15.656 290.244 16.1325 291.07C16.6089 291.896 16.884 292.823 16.9355 293.776Z" fill="white"/>
<path d="M25.2406 298.564C25.2406 300.315 24.0166 301.027 22.4981 300.113C21.7063 299.584 21.047 298.88 20.5713 298.055C20.0957 297.23 19.8166 296.307 19.7556 295.356C19.7556 293.605 20.9952 292.893 22.4981 293.807C23.2984 294.327 23.9642 295.029 24.4409 295.856C24.9175 296.683 25.1916 297.611 25.2406 298.564Z" fill="white"/>
<path d="M33.5612 303.367C33.5612 305.118 32.3217 305.83 30.8187 304.916C30.0204 304.398 29.3559 303.698 28.8794 302.874C28.4028 302.05 28.1276 301.125 28.0762 300.175C28.0762 298.424 29.3002 297.711 30.8187 298.626C31.6085 299.153 32.2666 299.855 32.7422 300.677C33.2177 301.499 33.4979 302.419 33.5612 303.367Z" fill="white"/>
</g>
<defs>
<clipPath id="clip0_619_1698">
<rect width="454.624" height="383.52" fill="white"/>
</clipPath>
</defs>
</svg>
